<svg width="415" height="262" viewBox="0 0 415 262" fill="none" xmlns="http://www.w3.org/2000/svg">
<g clip-path="url(#clip0_2_50)">
<path d="M356.09 170.555L355.312 170.64L364.925 258.666L365.704 258.58L356.09 170.555Z" fill="#292A2E"/>
<path d="M380.989 208.983L376.26 255.863L377.039 255.942L381.769 209.062L380.989 208.983Z" fill="#292A2E"/>
<path d="M410.276 229.185C416.923 220.332 413.754 206.703 403.197 198.744C392.64 190.785 378.693 191.51 372.045 200.362C365.397 209.215 368.567 222.844 379.124 230.803C389.681 238.762 403.628 238.038 410.276 229.185Z" fill="#0CBC8B"/>
<path opacity="0.2" d="M410.276 229.185C416.923 220.332 413.754 206.703 403.197 198.744C392.64 190.785 378.693 191.51 372.045 200.362C365.397 209.215 368.567 222.844 379.124 230.803C389.681 238.762 403.628 238.038 410.276 229.185Z" fill="white"/>
<path opacity="0.5" d="M410.275 229.186C409.829 229.784 409.341 230.349 408.817 230.879C401.499 235.564 390.698 234.826 382.129 228.365C371.573 220.407 368.405 206.779 375.053 197.926C375.501 197.33 375.986 196.765 376.508 196.233C383.83 191.545 394.627 192.286 403.199 198.744C413.755 206.705 416.923 220.334 410.275 229.186Z" fill="white"/>
<path d="M361.304 195.599C371.763 187.51 374.605 173.637 367.653 164.613C360.701 155.589 346.588 154.831 336.129 162.92C325.671 171.009 322.828 184.882 329.78 193.906C336.732 202.93 350.846 203.688 361.304 195.599Z" fill="#0CBC8B"/>
<path opacity="0.2" d="M357.989 193.276C349.89 199.545 339.597 200.5 332.136 196.419C331.273 195.657 330.484 194.814 329.781 193.901C322.828 184.88 325.669 171.006 336.127 162.918C344.227 156.653 354.52 155.695 361.978 159.772C362.843 160.534 363.633 161.379 364.336 162.293C371.289 171.315 368.447 185.189 357.989 193.276Z" fill="white"/>
<path d="M52.2666 101.957C67.1358 101.957 79.1896 89.8787 79.1896 74.9798C79.1896 60.0809 67.1358 48.0029 52.2666 48.0029C37.3974 48.0029 25.3435 60.0809 25.3435 74.9798C25.3435 89.8787 37.3974 101.957 52.2666 101.957Z" fill="#324DFA"/>
<g opacity="0.05">
<path opacity="0.05" d="M52.2667 96.3657C64.0543 96.3657 73.61 86.7909 73.61 74.9797C73.61 63.1686 64.0543 53.5937 52.2667 53.5937C40.4791 53.5937 30.9233 63.1686 30.9233 74.9797C30.9233 86.7909 40.4791 96.3657 52.2667 96.3657Z" fill="#292A2E"/>
</g>
<path d="M45.2806 82.6186L47.2717 79.525C48.8493 80.7366 50.2302 81.3554 51.6979 81.3554C53.4576 81.3554 54.2318 80.6241 54.2318 79.2083C54.2318 76.008 46.0368 76.0656 46.0368 70.4523C46.0368 66.8437 48.5313 64.5452 52.4651 64.5452C55.1207 64.5452 56.925 65.6435 58.375 67.1843L56.0917 69.8053C54.9633 68.777 54.0065 68.2353 52.7101 68.2353C51.2155 68.2353 50.4065 68.8388 50.4065 70.2363C50.4065 73.2036 58.6012 72.9438 58.6012 78.8888C58.6012 82.4611 56.2422 85.0455 51.6979 85.0455C49.7372 85.0446 47.034 84.2104 45.2806 82.6186ZM50.7411 61.496H53.7695V65.976H50.7411V61.496ZM50.7411 83.1777H53.7695V88.093H50.7411V83.1777Z" fill="white"/>
<path d="M376.909 76.3347C397.946 76.3347 415 59.2466 415 38.1673C415 17.0881 397.946 0 376.909 0C355.872 0 338.818 17.0881 338.818 38.1673C338.818 59.2466 355.872 76.3347 376.909 76.3347Z" fill="#324DFA"/>
<g opacity="0.05">
<path opacity="0.05" d="M376.909 68.4246C393.586 68.4246 407.106 54.878 407.106 38.1673C407.106 21.4567 393.586 7.91008 376.909 7.91008C360.232 7.91008 346.712 21.4567 346.712 38.1673C346.712 54.878 360.232 68.4246 376.909 68.4246Z" fill="#292A2E"/>
</g>
<path d="M367.025 48.9747L369.842 44.5982C372.074 46.3121 374.028 47.1878 376.105 47.1878C378.594 47.1878 379.689 46.1528 379.689 44.1497C379.689 39.6218 368.095 39.7035 368.095 31.7616C368.095 26.6565 371.624 23.4042 377.19 23.4042C380.947 23.4042 383.5 24.9576 385.551 27.1376L382.32 30.8458C380.724 29.3909 379.37 28.625 377.537 28.625C375.422 28.625 374.277 29.4788 374.277 31.4559C374.277 35.6542 385.871 35.2862 385.871 43.6977C385.871 48.7514 382.534 52.4083 376.105 52.4083C373.33 52.4075 369.506 51.2272 367.025 48.9747ZM374.75 19.0905H379.035V25.4284H374.75V19.0905ZM374.75 49.7657H379.035V56.7203H374.75V49.7657Z" fill="white"/>
<path d="M344.398 19.6434H80.2016C73.7136 19.6434 68.4541 24.9134 68.4541 31.4143V225.233C68.4541 231.734 73.7136 237.004 80.2016 237.004H344.398C350.886 237.004 356.145 231.734 356.145 225.233V31.4143C356.145 24.9134 350.886 19.6434 344.398 19.6434Z" fill="white"/>
<path d="M344.397 237.396H80.2016C76.9832 237.392 73.8978 236.11 71.6221 233.829C69.3464 231.549 68.0662 228.457 68.0625 225.233V31.4143C68.0661 28.1895 69.3462 25.0979 71.622 22.8176C73.8977 20.5373 76.9832 19.2546 80.2016 19.251H344.397C347.615 19.2545 350.701 20.5372 352.977 22.8175C355.252 25.0978 356.532 28.1895 356.536 31.4143V225.233C356.532 228.458 355.252 231.549 352.977 233.829C350.701 236.11 347.615 237.392 344.397 237.396ZM80.2016 20.0357C77.1908 20.0391 74.3043 21.2389 72.1754 23.3721C70.0465 25.5053 68.849 28.3976 68.8457 31.4143V225.233C68.849 228.249 70.0465 231.142 72.1754 233.275C74.3043 235.408 77.1908 236.608 80.2016 236.611H344.397C347.408 236.608 350.294 235.408 352.423 233.275C354.552 231.142 355.75 228.249 355.753 225.233V31.4143C355.75 28.3976 354.552 25.5053 352.423 23.3721C350.294 21.2389 347.408 20.0391 344.397 20.0357H80.2016Z" fill="#292A2E"/>
<path d="M119.807 125.879C119.652 125.879 119.499 125.849 119.357 125.79C119.214 125.73 119.085 125.644 118.976 125.534L113.494 120.041C113.28 119.819 113.161 119.522 113.164 119.213C113.167 118.904 113.29 118.609 113.508 118.391C113.726 118.173 114.021 118.049 114.329 118.046C114.637 118.044 114.933 118.162 115.155 118.377L120.637 123.87C120.801 124.034 120.913 124.244 120.959 124.472C121.004 124.701 120.981 124.937 120.892 125.152C120.803 125.367 120.652 125.551 120.459 125.681C120.266 125.81 120.039 125.879 119.807 125.879Z" fill="#0CBC8B"/>
<path d="M114.324 125.879C114.092 125.879 113.865 125.81 113.672 125.681C113.479 125.551 113.328 125.367 113.239 125.152C113.15 124.937 113.127 124.701 113.173 124.472C113.218 124.244 113.33 124.034 113.494 123.87L118.976 118.377C119.198 118.162 119.494 118.044 119.802 118.046C120.11 118.049 120.405 118.173 120.623 118.391C120.841 118.609 120.964 118.904 120.967 119.213C120.97 119.522 120.851 119.819 120.637 120.041L115.155 125.534C115.046 125.644 114.917 125.73 114.774 125.79C114.632 125.849 114.479 125.879 114.324 125.879Z" fill="#0CBC8B"/>
<path d="M276.772 178.382L275.207 181.978L284.837 186.185L286.402 182.588L276.772 178.382Z" fill="#0CBC8B"/>
<path d="M279.812 81.954L270.754 87.2871L272.738 90.6699L281.796 85.3368L279.812 81.954Z" fill="#0CBC8B"/>
<path d="M128.877 91.087L127.663 94.8176L137.653 98.0789L138.866 94.3483L128.877 91.087Z" fill="#0CBC8B"/>
<path d="M140.571 153.658L131.966 159.69L134.21 162.903L142.814 156.871L140.571 153.658Z" fill="#0CBC8B"/>
<path d="M298.384 139.832L298.025 143.739L308.258 144.684L308.617 140.777L298.384 139.832Z" fill="#0CBC8B"/>
<path d="M308.805 111.727C308.651 111.727 308.498 111.697 308.356 111.637C308.213 111.578 308.084 111.491 307.975 111.382L302.493 105.889C302.381 105.78 302.291 105.65 302.23 105.507C302.168 105.363 302.136 105.209 302.134 105.052C302.133 104.896 302.163 104.741 302.222 104.596C302.281 104.452 302.368 104.32 302.478 104.21C302.589 104.099 302.72 104.012 302.864 103.953C303.008 103.893 303.163 103.864 303.319 103.865C303.475 103.866 303.629 103.899 303.773 103.961C303.916 104.022 304.045 104.112 304.154 104.224L309.636 109.717C309.8 109.882 309.912 110.092 309.957 110.32C310.003 110.548 309.979 110.785 309.891 111C309.802 111.215 309.651 111.399 309.458 111.528C309.265 111.658 309.038 111.727 308.805 111.727Z" fill="#0CBC8B"/>
<path d="M303.323 111.727C303.091 111.727 302.864 111.658 302.671 111.528C302.478 111.399 302.327 111.215 302.238 111C302.149 110.785 302.126 110.548 302.171 110.32C302.217 110.092 302.329 109.882 302.493 109.717L307.975 104.224C308.083 104.112 308.213 104.022 308.356 103.961C308.5 103.899 308.654 103.866 308.81 103.865C308.966 103.864 309.12 103.893 309.265 103.953C309.409 104.012 309.54 104.099 309.651 104.21C309.761 104.32 309.848 104.452 309.907 104.596C309.966 104.741 309.996 104.896 309.995 105.052C309.993 105.209 309.961 105.363 309.899 105.507C309.838 105.65 309.748 105.78 309.636 105.889L304.154 111.382C304.045 111.491 303.916 111.578 303.773 111.637C303.63 111.697 303.478 111.727 303.323 111.727Z" fill="#0CBC8B"/>
<path opacity="0.4" d="M212.3 196.61C246.8 196.61 274.768 168.586 274.768 134.016C274.768 99.4468 246.8 71.4227 212.3 71.4227C177.799 71.4227 149.831 99.4468 149.831 134.016C149.831 168.586 177.799 196.61 212.3 196.61Z" fill="#0CBC8B"/>
<path d="M212.3 177.791C236.428 177.791 255.987 158.193 255.987 134.016C255.987 109.84 236.428 90.2413 212.3 90.2413C188.172 90.2413 168.612 109.84 168.612 134.016C168.612 158.193 188.172 177.791 212.3 177.791Z" fill="#00E0A2"/>
<path d="M203.366 152.796C203.023 152.796 202.684 152.727 202.368 152.592C202.053 152.457 201.768 152.26 201.531 152.011L187.625 137.511C187.389 137.27 187.203 136.985 187.078 136.672C186.953 136.359 186.891 136.024 186.896 135.687C186.901 135.349 186.972 135.016 187.106 134.707C187.24 134.398 187.434 134.118 187.677 133.884C187.92 133.651 188.206 133.467 188.52 133.346C188.834 133.224 189.169 133.165 189.506 133.174C189.842 133.182 190.174 133.258 190.481 133.396C190.788 133.533 191.065 133.731 191.296 133.977L203.497 146.7L235.397 118.027C235.645 117.799 235.936 117.623 236.252 117.509C236.569 117.395 236.905 117.345 237.24 117.361C237.576 117.378 237.906 117.461 238.209 117.606C238.513 117.751 238.785 117.955 239.009 118.206C239.234 118.456 239.407 118.749 239.518 119.067C239.629 119.386 239.675 119.722 239.656 120.059C239.636 120.395 239.55 120.724 239.402 121.027C239.255 121.33 239.049 121.601 238.796 121.823L205.066 152.143C204.6 152.564 203.994 152.796 203.366 152.796Z" fill="white"/>
<path d="M356.144 31.4128V43.2571H68.4553V31.4128C68.4553 28.2909 69.693 25.2969 71.8961 23.0894C74.0992 20.882 77.0872 19.6418 80.2028 19.6418H344.397C347.513 19.6418 350.501 20.882 352.704 23.0894C354.907 25.2969 356.144 28.2909 356.144 31.4128Z" fill="#292A2E"/>
<path d="M14.6824 238.424C12.3168 238.423 9.98626 237.85 7.88918 236.753C5.79211 235.656 3.99057 234.068 2.63788 232.123C1.28519 230.179 0.421399 227.935 0.120022 225.584C-0.181354 223.233 0.0886037 220.844 0.906922 218.62C1.73747 216.362 23.0411 161.259 26.7514 151.683L52.3887 166.632C50.3035 172.017 42.7483 192.428 36.6788 208.87L46.7624 207.772L49.9362 234.673L16.2734 238.34C15.745 238.396 15.2139 238.424 14.6824 238.424Z" fill="#324DFA"/>
<path d="M32.2801 239.275L27.8024 261.608H114.772L109.763 238.85L32.2801 239.275Z" fill="#262626"/>
<path d="M98.5379 140.224C98.4478 140.212 95.9808 149.515 76.7267 148.067C63.3972 147.066 60.1471 137.975 59.8417 137.975C61.2788 137.669 63.6126 137.351 64.2509 137.01C66.3498 135.88 67.8785 134.504 68.6484 131.552C69.2502 129.244 69.5568 120.356 69.5568 115.897L90.0679 120.515C89.7821 125.545 87.7811 137.206 94.7943 139.27C95.9613 139.611 97.2182 139.925 98.5379 140.224Z" fill="#E98862"/>
<path d="M89.3592 130.404C81.2734 131.044 70.8863 127.623 68.9131 116.813L67.1329 107.06C65.1598 96.25 69.2267 86.4487 79.3844 84.5873C89.5416 82.7259 98.7337 90.0973 100.706 100.907L101.495 105.225C102.25 109.373 103.785 129.264 89.3592 130.404Z" fill="#E98862"/>
<path d="M51.0843 139.472C43.8181 140.012 36.409 140.8 31.0623 145.76C24.6231 151.734 23.4562 159.078 27.5643 179.291C31.0987 196.682 29.6969 204.282 32.0613 236.374C32.131 237.32 32.2802 239.275 32.2802 239.275L110.009 239.146C110.009 239.146 117.293 196.568 121.314 176.929C124.372 161.999 132.404 143.875 98.5379 140.222C98.4486 140.213 71.2873 137.97 51.0843 139.472Z" fill="#324DFA"/>
<path d="M32.2802 239.472C32.2295 239.472 32.1808 239.452 32.1443 239.417C32.1078 239.382 32.0863 239.334 32.0844 239.283L29.6483 175.926C29.6464 175.874 29.6652 175.823 29.7005 175.785C29.7358 175.747 29.7848 175.724 29.8367 175.722C29.8626 175.72 29.8887 175.724 29.9133 175.732C29.9379 175.741 29.9605 175.754 29.9796 175.772C29.9987 175.79 30.0139 175.811 30.0243 175.835C30.0347 175.859 30.04 175.885 30.0399 175.911L32.476 239.268C32.4779 239.32 32.4591 239.371 32.4238 239.409C32.3884 239.447 32.3395 239.469 32.2876 239.471L32.2802 239.472Z" fill="#0C0C0C"/>
<path d="M157.004 162.093L162.465 149.819C162.585 149.549 162.76 149.307 162.978 149.109C163.197 148.911 163.454 148.76 163.734 148.667C164.013 148.574 164.309 148.54 164.603 148.568C164.896 148.595 165.18 148.684 165.438 148.828C165.905 149.108 166.252 149.552 166.41 150.074C166.569 150.596 166.529 151.159 166.297 151.653L165.126 154.284L172.6 147.701C173.418 146.956 174.898 146.563 175.674 147.538C175.997 147.894 176.189 148.348 176.221 148.828C176.253 149.308 176.121 149.784 175.848 150.179C175.857 150.185 175.865 150.192 175.873 150.199C175.877 150.206 175.882 150.213 175.885 150.221L177.147 149.07C177.381 148.857 177.659 148.699 177.961 148.607C178.264 148.515 178.583 148.493 178.895 148.54C179.208 148.588 179.506 148.705 179.767 148.882C180.029 149.06 180.248 149.293 180.408 149.567C180.651 150.002 180.738 150.507 180.654 150.999C180.57 151.491 180.32 151.939 179.946 152.268L179.409 152.757C179.416 152.779 179.419 152.802 179.418 152.826C179.857 152.579 180.37 152.497 180.864 152.595C181.358 152.692 181.801 152.962 182.115 153.357C182.445 153.799 182.597 154.35 182.54 154.9C182.483 155.449 182.221 155.957 181.807 156.321L180.475 157.537C180.506 157.534 180.538 157.537 180.567 157.548C180.596 157.559 180.623 157.576 180.644 157.599C180.668 157.628 180.683 157.662 180.687 157.699C181.139 157.589 181.615 157.63 182.042 157.816C182.468 158.003 182.821 158.325 183.048 158.733C183.277 159.166 183.353 159.664 183.264 160.146C183.175 160.628 182.927 161.065 182.559 161.388L171.306 171.653C169.732 173.089 167.766 174.021 165.66 174.33C163.553 174.639 161.403 174.311 159.484 173.387C157.829 172.591 156.55 171.179 155.917 169.453C155.284 167.726 155.349 165.82 156.096 164.141L157.004 162.093Z" fill="#E98862"/>
<g opacity="0.2">
<path opacity="0.2" d="M168.482 156.73C168.517 156.768 168.565 156.791 168.616 156.794C168.668 156.796 168.718 156.779 168.756 156.744L175.856 150.475C175.875 150.458 175.891 150.437 175.903 150.414C175.914 150.391 175.92 150.366 175.922 150.34C175.924 150.314 175.92 150.288 175.912 150.264C175.903 150.24 175.89 150.217 175.873 150.198C175.856 150.178 175.836 150.163 175.813 150.151C175.79 150.14 175.764 150.133 175.739 150.132C175.713 150.13 175.687 150.134 175.663 150.142C175.639 150.15 175.616 150.163 175.597 150.181L168.498 156.45C168.479 156.467 168.463 156.488 168.452 156.511C168.44 156.534 168.434 156.559 168.432 156.585C168.43 156.61 168.434 156.636 168.442 156.661C168.451 156.685 168.464 156.707 168.481 156.727L168.482 156.73Z" fill="#0C0C0C"/>
</g>
<g opacity="0.2">
<path opacity="0.2" d="M171.156 159.944C171.19 159.982 171.239 160.005 171.29 160.007C171.341 160.01 171.391 159.992 171.43 159.958L179.353 152.961C179.372 152.944 179.388 152.924 179.399 152.9C179.411 152.877 179.417 152.852 179.419 152.826C179.421 152.801 179.417 152.775 179.409 152.75C179.4 152.726 179.387 152.704 179.37 152.684C179.335 152.647 179.287 152.624 179.235 152.621C179.184 152.618 179.133 152.634 179.094 152.667L171.171 159.664C171.151 159.681 171.135 159.701 171.124 159.725C171.113 159.748 171.106 159.773 171.105 159.799C171.103 159.824 171.107 159.85 171.115 159.874C171.123 159.899 171.136 159.921 171.153 159.941L171.156 159.944Z" fill="#0C0C0C"/>
</g>
<g opacity="0.2">
<path opacity="0.2" d="M174.031 163.441C174.066 163.479 174.114 163.502 174.165 163.505C174.216 163.507 174.267 163.49 174.305 163.455L180.625 157.874C180.664 157.84 180.688 157.791 180.691 157.739C180.695 157.688 180.677 157.636 180.643 157.597C180.608 157.558 180.56 157.534 180.508 157.531C180.456 157.528 180.405 157.545 180.366 157.58L174.046 163.161C174.027 163.178 174.011 163.199 174 163.222C173.988 163.245 173.982 163.27 173.98 163.296C173.978 163.322 173.982 163.348 173.99 163.372C173.999 163.396 174.012 163.419 174.029 163.438L174.031 163.441Z" fill="#0C0C0C"/>
</g>
<path d="M96.8556 120.48C95.4044 113.172 94.7387 108.297 94.8159 103.154C96.8603 99.5604 96.3227 95.4366 95.8579 93.6545C97.8616 94.75 98.6996 94.8708 100.585 94.8708C100.585 94.8708 97.2045 81.275 85.7132 77.6165C83.5986 76.7926 78.205 75.7516 71.0413 76.7361C64.9483 77.5734 49.9288 82.1382 47.7813 99.0813V99.0911C47.7101 99.653 46.2683 115.263 43.3933 122.753C39.5279 132.822 34.1022 135.95 34.2396 147.567C34.4166 162.51 61.8329 164.499 78.371 163.379C94.9091 162.26 104.137 156.814 104.258 146.045C104.391 133.979 99.7596 135.1 96.8556 120.48Z" fill="#0A0A0A"/>
<path d="M96.8603 114.354C93.7735 114.92 90.667 112.069 90.1028 108.977C89.5385 105.884 91.729 103.719 94.8159 103.154L96.8603 114.354Z" fill="#E98862"/>
<path d="M130.061 236.196C126.956 236.196 123.931 235.209 121.421 233.379C118.91 231.549 117.042 228.969 116.086 226.009L95.6844 162.785L123.629 153.732L134.358 186.986L152.9 157.439L177.762 173.104L142.489 229.314C141.167 231.42 139.334 233.156 137.16 234.36C134.987 235.564 132.545 236.195 130.061 236.196Z" fill="#324DFA"/>
<path d="M113.598 218.74C113.586 218.74 113.574 218.739 113.562 218.737C113.511 218.727 113.466 218.698 113.437 218.655C113.407 218.612 113.396 218.559 113.405 218.508L120.341 180.786C120.35 180.735 120.379 180.689 120.422 180.66C120.465 180.63 120.518 180.619 120.569 180.628C120.62 180.638 120.665 180.667 120.695 180.71C120.724 180.753 120.735 180.806 120.726 180.857L113.791 218.58C113.782 218.625 113.759 218.666 113.723 218.695C113.688 218.724 113.644 218.74 113.598 218.74Z" fill="#0C0C0C"/>
<path d="M136.854 195.891C136.81 195.891 136.768 195.876 136.734 195.85C136.699 195.823 136.675 195.786 136.664 195.744L134.354 186.827C134.347 186.802 134.346 186.776 134.349 186.751C134.353 186.725 134.361 186.701 134.374 186.678C134.387 186.656 134.405 186.637 134.425 186.621C134.446 186.606 134.469 186.594 134.494 186.588C134.519 186.581 134.545 186.58 134.57 186.584C134.596 186.587 134.62 186.596 134.642 186.609C134.665 186.622 134.684 186.639 134.699 186.66C134.715 186.68 134.726 186.704 134.733 186.729L137.043 195.646C137.056 195.696 137.048 195.749 137.022 195.794C136.996 195.839 136.953 195.871 136.902 195.884C136.887 195.889 136.87 195.891 136.854 195.891Z" fill="#0C0C0C"/>
<path d="M8.91441 262H400.356C400.46 262 400.56 261.959 400.633 261.885C400.707 261.811 400.748 261.712 400.748 261.608C400.748 261.504 400.707 261.404 400.633 261.33C400.56 261.257 400.46 261.215 400.356 261.215H8.91441C8.81056 261.215 8.71096 261.257 8.63752 261.33C8.56408 261.404 8.52283 261.504 8.52283 261.608C8.52283 261.712 8.56408 261.811 8.63752 261.885C8.71096 261.959 8.81056 262 8.91441 262Z" fill="#292A2E"/>
<path d="M308.559 130.279H383.486C387.439 130.279 390.643 127.069 390.643 123.108V73.9052C390.643 69.9444 387.439 66.7335 383.486 66.7335H308.559C304.606 66.7335 301.402 69.9444 301.402 73.9052V123.108C301.402 127.069 304.606 130.279 308.559 130.279Z" fill="#292A2E"/>
<path d="M321.691 75.586H312.336C310.718 75.586 309.407 76.8997 309.407 78.5202V83.9799C309.407 85.6004 310.718 86.914 312.336 86.914H321.691C323.309 86.914 324.62 85.6004 324.62 83.9799V78.5202C324.62 76.8997 323.309 75.586 321.691 75.586Z" fill="white"/>
<path d="M324.62 76.8424V79.5007H319.466L318.635 78.6692V75.5876H323.366C323.53 75.5875 323.693 75.6199 323.845 75.6829C323.997 75.7459 324.136 75.8383 324.252 75.9548C324.368 76.0713 324.461 76.2097 324.524 76.362C324.587 76.5143 324.619 76.6775 324.62 76.8424Z" fill="#0CBC8B"/>
<path d="M324.62 82.999V85.6573C324.62 85.9903 324.488 86.3096 324.253 86.5451C324.018 86.7806 323.699 86.9128 323.367 86.9128H318.635V83.7477L319.466 82.9982L324.62 82.999Z" fill="#0CBC8B"/>
<path d="M315.309 75.586V78.6693L314.561 79.5023H309.407V76.844C309.407 76.6791 309.44 76.5158 309.503 76.3635C309.566 76.2112 309.658 76.0727 309.774 75.9561C309.891 75.8396 310.029 75.7471 310.181 75.684C310.333 75.6209 310.496 75.5884 310.66 75.5884L315.309 75.586Z" fill="#0CBC8B"/>
<path d="M315.309 83.7484V86.9136H310.662C310.497 86.9136 310.334 86.8812 310.182 86.8181C310.03 86.755 309.892 86.6625 309.776 86.5459C309.659 86.4293 309.567 86.2909 309.504 86.1385C309.441 85.9862 309.409 85.8229 309.409 85.6581V82.9998H314.563L315.309 83.7484Z" fill="#0CBC8B"/>
<path d="M383.708 117.662C383.708 119.429 383.007 121.124 381.76 122.374C380.513 123.624 378.821 124.326 377.058 124.326C375.294 124.326 373.602 123.624 372.355 122.374C371.108 121.124 370.407 119.429 370.407 117.662C370.408 116.669 370.633 115.689 371.065 114.794C371.497 113.9 372.125 113.115 372.901 112.498C373.873 111.702 375.051 111.199 376.297 111.048C377.543 110.897 378.807 111.104 379.94 111.645C381.073 112.187 382.029 113.04 382.696 114.105C383.364 115.171 383.715 116.404 383.709 117.662H383.708Z" fill="white"/>
<path d="M370.407 122.826C369.432 123.623 368.252 124.126 367.003 124.278C365.754 124.429 364.488 124.222 363.352 123.682C362.215 123.141 361.255 122.288 360.583 121.223C359.911 120.157 359.554 118.923 359.554 117.662C359.554 116.402 359.911 115.167 360.583 114.102C361.255 113.036 362.215 112.184 363.352 111.643C364.488 111.102 365.754 110.896 367.003 111.047C368.252 111.198 369.432 111.702 370.407 112.498C368.911 113.747 368.242 115.58 368.242 117.662C368.242 119.744 368.91 121.66 370.407 122.826Z" fill="#0CBC8B"/>
<path d="M323.892 96.0546H310.631C309.955 96.0546 309.407 96.6033 309.407 97.2803V97.2807C309.407 97.9577 309.955 98.5065 310.631 98.5065H323.892C324.568 98.5065 325.115 97.9577 325.115 97.2807V97.2803C325.115 96.6033 324.568 96.0546 323.892 96.0546Z" fill="white"/>
<path d="M343.423 96.0546H330.162C329.486 96.0546 328.938 96.6033 328.938 97.2803V97.2807C328.938 97.9577 329.486 98.5065 330.162 98.5065H343.423C344.099 98.5065 344.646 97.9577 344.646 97.2807V97.2803C344.646 96.6033 344.099 96.0546 343.423 96.0546Z" fill="white"/>
<path d="M362.954 96.0546H349.692C349.017 96.0546 348.469 96.6033 348.469 97.2803V97.2807C348.469 97.9577 349.017 98.5065 349.692 98.5065H362.954C363.629 98.5065 364.177 97.9577 364.177 97.2807V97.2803C364.177 96.6033 363.629 96.0546 362.954 96.0546Z" fill="white"/>
<path d="M382.484 96.0546H369.223C368.547 96.0546 368 96.6033 368 97.2803V97.2807C368 97.9577 368.547 98.5065 369.223 98.5065H382.484C383.16 98.5065 383.707 97.9577 383.707 97.2807V97.2803C383.707 96.6033 383.16 96.0546 382.484 96.0546Z" fill="white"/>
</g>
<defs>
<clipPath id="clip0_2_50">
<rect width="415" height="262" fill="white"/>
</clipPath>
</defs>
</svg>
