<svg width="431" height="409" viewBox="0 0 431 409" fill="none" xmlns="http://www.w3.org/2000/svg">
<g clip-path="url(#clip0_2_985)">
<path d="M111.997 273.137H77.091V283.317H111.997V273.137Z" fill="#F4F4F4"/>
<path opacity="0.05" d="M86.3522 273.137H81.7785V283.317H86.3522V273.137Z" fill="#292A2E"/>
<path d="M107.537 275.35H88.5189V281.383H107.537V275.35Z" fill="white"/>
<path d="M139.839 274.465L107.405 260.267L103.34 269.596L135.774 283.794L139.839 274.465Z" fill="#F4F4F4"/>
<path opacity="0.05" d="M139.839 274.465L107.405 260.267L103.34 269.596L135.774 283.794L139.839 274.465Z" fill="#292A2E"/>
<path d="M135.484 272.559L131.234 270.698L127.169 280.027L131.418 281.888L135.484 272.559Z" fill="white"/>
<path d="M128.337 271.844L110.666 264.108L108.257 269.637L125.928 277.372L128.337 271.844Z" fill="white"/>
<path opacity="0.05" d="M139.9 402.095H131.128V407.967H139.9V402.095Z" fill="#292A2E"/>
<path opacity="0.05" d="M50.2169 402.095H41.445V407.967H50.2169V402.095Z" fill="#292A2E"/>
<path d="M147.941 283.795H33.4041V401.897H147.941V283.795Z" fill="#F4F4F4"/>
<path opacity="0.03" d="M147.941 283.795H33.4041V401.897H147.941V283.795Z" fill="#292A2E"/>
<path d="M169.166 283.795H54.6294V401.897H169.166V283.795Z" fill="#F4F4F4"/>
<path opacity="0.05" d="M161.125 402.095H152.353V407.967H161.125V402.095Z" fill="#292A2E"/>
<path opacity="0.05" d="M71.4422 402.095H62.6703V407.967H71.4422V402.095Z" fill="#292A2E"/>
<path opacity="0.7" d="M164.867 289.326H58.9293V312.016H164.867V289.326Z" fill="white"/>
<path opacity="0.7" d="M164.867 317.57H58.9293V340.259H164.867V317.57Z" fill="white"/>
<path opacity="0.7" d="M164.867 345.812H58.9293V368.502H164.867V345.812Z" fill="white"/>
<path opacity="0.05" d="M111.898 303.846C113.648 303.846 115.066 302.424 115.066 300.671C115.066 298.917 113.648 297.496 111.898 297.496C110.149 297.496 108.731 298.917 108.731 300.671C108.731 302.424 110.149 303.846 111.898 303.846Z" fill="#292A2E"/>
<path opacity="0.05" d="M111.898 332.089C113.648 332.089 115.066 330.668 115.066 328.915C115.066 327.161 113.648 325.74 111.898 325.74C110.149 325.74 108.731 327.161 108.731 328.915C108.731 330.668 110.149 332.089 111.898 332.089Z" fill="#292A2E"/>
<path opacity="0.05" d="M111.898 360.332C113.648 360.332 115.066 358.911 115.066 357.158C115.066 355.404 113.648 353.983 111.898 353.983C110.149 353.983 108.731 355.404 108.731 357.158C108.731 358.911 110.149 360.332 111.898 360.332Z" fill="#292A2E"/>
<path opacity="0.7" d="M164.867 374.692H58.9293V397.382H164.867V374.692Z" fill="white"/>
<path opacity="0.05" d="M111.898 389.212C113.648 389.212 115.066 387.791 115.066 386.037C115.066 384.284 113.648 382.863 111.898 382.863C110.149 382.863 108.731 384.284 108.731 386.037C108.731 387.791 110.149 389.212 111.898 389.212Z" fill="#292A2E"/>
<path d="M0.304187 408.781H430.694C430.775 408.781 430.852 408.749 430.909 408.692C430.966 408.635 430.998 408.557 430.998 408.476C430.998 408.395 430.966 408.318 430.909 408.261C430.852 408.204 430.775 408.171 430.694 408.171H0.304187C0.223512 408.171 0.14614 408.204 0.0890943 408.261C0.0320482 408.318 0 408.395 0 408.476C0 408.557 0.0320482 408.635 0.0890943 408.692C0.14614 408.749 0.223512 408.781 0.304187 408.781Z" fill="#292A2E"/>
<g opacity="0.65">
<path opacity="0.65" d="M0.304187 408.781H430.694C430.775 408.781 430.852 408.749 430.909 408.692C430.966 408.635 430.998 408.557 430.998 408.476C430.998 408.395 430.966 408.318 430.909 408.261C430.852 408.204 430.775 408.171 430.694 408.171H0.304187C0.223512 408.171 0.14614 408.204 0.0890943 408.261C0.0320482 408.318 0 408.395 0 408.476C0 408.557 0.0320482 408.635 0.0890943 408.692C0.14614 408.749 0.223512 408.781 0.304187 408.781Z" fill="#292A2E"/>
</g>
<path d="M401.571 408.603L402.424 408.439L389.085 275.58L388.232 275.745L401.571 408.603Z" fill="#494949"/>
<path d="M351.902 408.603L352.756 408.439L339.417 275.58L338.564 275.745L351.902 408.603Z" fill="#494949"/>
<path d="M242.113 408.603L241.26 408.439L254.599 275.58L255.452 275.745L242.113 408.603Z" fill="#494949"/>
<path d="M291.782 408.603L290.928 408.439L304.267 275.58L305.12 275.745L291.782 408.603Z" fill="#494949"/>
<path d="M309.468 217.105L301.675 275.602L302.537 275.718L310.329 217.22L309.468 217.105Z" fill="#494949"/>
<path d="M398.908 217.105L391.116 275.602L391.977 275.717L399.77 217.22L398.908 217.105Z" fill="#494949"/>
<path d="M301.754 279.946H389.238C391.598 279.946 393.512 278.028 393.512 275.663V275.662C393.512 273.296 391.598 271.378 389.238 271.378H301.754C299.393 271.378 297.48 273.296 297.48 275.662V275.663C297.48 278.028 299.393 279.946 301.754 279.946Z" fill="#292A2E"/>
<path opacity="0.8" d="M301.754 279.946H389.238C391.598 279.946 393.512 278.028 393.512 275.663V275.662C393.512 273.296 391.598 271.378 389.238 271.378H301.754C299.393 271.378 297.48 273.296 297.48 275.662V275.663C297.48 278.028 299.393 279.946 301.754 279.946Z" fill="white"/>
<path d="M297.045 275.664C297.046 274.413 297.542 273.213 298.425 272.328C299.308 271.443 300.505 270.945 301.754 270.943H389.238C390.486 270.943 391.684 271.441 392.567 272.326C393.45 273.211 393.946 274.411 393.946 275.663C393.946 276.914 393.45 278.115 392.567 279C391.684 279.885 390.486 280.382 389.238 280.382H301.754C300.506 280.38 299.309 279.883 298.426 278.999C297.544 278.114 297.047 276.915 297.045 275.664ZM301.754 271.816C300.735 271.816 299.759 272.222 299.039 272.943C298.319 273.665 297.914 274.644 297.914 275.664C297.914 276.685 298.319 277.664 299.039 278.385C299.759 279.107 300.735 279.513 301.754 279.513H389.238C390.256 279.513 391.232 279.107 391.952 278.385C392.672 277.664 393.077 276.685 393.077 275.664C393.077 274.644 392.672 273.665 391.952 272.943C391.232 272.222 390.256 271.816 389.238 271.816H301.754Z" fill="#292A2E"/>
<path d="M253.738 279.946H341.222C343.582 279.946 345.496 278.028 345.496 275.663V275.662C345.496 273.296 343.582 271.378 341.222 271.378H253.738C251.377 271.378 249.464 273.296 249.464 275.662V275.663C249.464 278.028 251.377 279.946 253.738 279.946Z" fill="white"/>
<path d="M249.029 275.664C249.03 274.413 249.527 273.214 250.41 272.329C251.292 271.444 252.489 270.946 253.738 270.945H341.222C342.47 270.945 343.668 271.442 344.551 272.327C345.434 273.212 345.93 274.413 345.93 275.664C345.93 276.916 345.434 278.116 344.551 279.001C343.668 279.886 342.47 280.384 341.222 280.384H253.738C252.489 280.382 251.293 279.884 250.41 279C249.527 278.115 249.03 276.916 249.029 275.664ZM253.738 271.816C252.719 271.816 251.743 272.222 251.023 272.943C250.303 273.665 249.898 274.644 249.898 275.664C249.898 276.685 250.303 277.664 251.023 278.385C251.743 279.107 252.719 279.512 253.738 279.512H341.222C342.24 279.512 343.217 279.107 343.937 278.385C344.657 277.664 345.061 276.685 345.061 275.664C345.061 274.644 344.657 273.665 343.937 272.943C343.217 272.222 342.24 271.816 341.222 271.816H253.738Z" fill="#292A2E"/>
<path d="M314.264 217.165H399.109C400.496 217.165 401.836 216.659 402.878 215.742C403.921 214.824 404.594 213.558 404.773 212.179L410.385 168.981C410.49 168.173 410.422 167.353 410.185 166.574C409.949 165.795 409.549 165.075 409.013 164.463C408.477 163.852 407.817 163.361 407.077 163.026C406.337 162.69 405.534 162.516 404.721 162.516H319.874C318.487 162.516 317.147 163.022 316.105 163.94C315.063 164.857 314.389 166.124 314.21 167.502L308.598 210.7C308.493 211.508 308.561 212.329 308.798 213.108C309.035 213.887 309.434 214.607 309.971 215.218C310.507 215.83 311.167 216.32 311.908 216.656C312.648 216.992 313.451 217.165 314.264 217.165Z" fill="#292A2E"/>
<path opacity="0.8" d="M314.264 217.165H399.109C400.496 217.165 401.836 216.659 402.878 215.742C403.921 214.824 404.594 213.558 404.773 212.179L410.385 168.981C410.49 168.173 410.422 167.353 410.185 166.574C409.949 165.795 409.549 165.075 409.013 164.463C408.477 163.852 407.817 163.361 407.077 163.026C406.337 162.69 405.534 162.516 404.721 162.516H319.874C318.487 162.516 317.147 163.022 316.105 163.94C315.063 164.857 314.389 166.124 314.21 167.502L308.598 210.7C308.493 211.508 308.561 212.329 308.798 213.108C309.035 213.887 309.434 214.607 309.971 215.218C310.507 215.83 311.167 216.32 311.908 216.656C312.648 216.992 313.451 217.165 314.264 217.165Z" fill="white"/>
<path d="M309.645 215.505C309.068 214.847 308.638 214.073 308.383 213.235C308.129 212.397 308.055 211.514 308.168 210.645L313.78 167.446C313.976 165.964 314.702 164.603 315.822 163.617C316.943 162.63 318.383 162.084 319.874 162.081H404.721C405.596 162.081 406.46 162.267 407.256 162.629C408.052 162.99 408.763 163.518 409.34 164.176C409.917 164.834 410.347 165.608 410.601 166.447C410.856 167.285 410.929 168.168 410.816 169.037L405.204 212.235C405.008 213.718 404.283 215.078 403.162 216.065C402.041 217.052 400.601 217.597 399.109 217.601H314.264C313.39 217.601 312.525 217.414 311.729 217.052C310.933 216.691 310.222 216.164 309.645 215.505ZM319.874 162.952C318.594 162.955 317.358 163.424 316.396 164.271C315.434 165.118 314.811 166.286 314.643 167.559L309.031 210.758C308.934 211.504 308.997 212.262 309.215 212.981C309.434 213.701 309.803 214.366 310.299 214.931C310.794 215.496 311.404 215.949 312.088 216.259C312.771 216.57 313.513 216.73 314.264 216.73H399.109C400.39 216.727 401.626 216.259 402.589 215.412C403.551 214.565 404.174 213.396 404.342 212.123L409.954 168.925C410.051 168.179 409.988 167.421 409.77 166.701C409.551 165.981 409.182 165.317 408.687 164.751C408.191 164.186 407.581 163.733 406.898 163.423C406.214 163.113 405.472 162.952 404.721 162.952L319.874 162.952Z" fill="#292A2E"/>
<path d="M309.466 217.165H394.313C395.7 217.165 397.04 216.659 398.083 215.742C399.125 214.824 399.798 213.558 399.978 212.179L405.59 168.981C405.695 168.173 405.627 167.353 405.39 166.574C405.153 165.795 404.754 165.075 404.217 164.463C403.681 163.852 403.021 163.361 402.281 163.026C401.541 162.69 400.738 162.516 399.926 162.516H315.078C313.691 162.516 312.351 163.022 311.309 163.94C310.267 164.857 309.593 166.124 309.414 167.502L303.802 210.7C303.697 211.508 303.765 212.329 304.002 213.108C304.238 213.886 304.638 214.606 305.174 215.218C305.71 215.83 306.37 216.32 307.11 216.656C307.851 216.991 308.654 217.165 309.466 217.165Z" fill="white"/>
<path d="M304.848 215.505C304.271 214.847 303.84 214.073 303.586 213.235C303.331 212.397 303.257 211.514 303.37 210.645L308.982 167.446C309.178 165.964 309.904 164.603 311.025 163.616C312.146 162.63 313.586 162.084 315.077 162.081H399.923C400.798 162.081 401.662 162.267 402.458 162.629C403.255 162.99 403.965 163.518 404.542 164.176C405.119 164.834 405.549 165.608 405.803 166.447C406.058 167.285 406.131 168.168 406.018 169.037L400.407 212.235C400.211 213.717 399.485 215.078 398.365 216.064C397.244 217.051 395.805 217.597 394.313 217.601H309.466C308.592 217.601 307.728 217.414 306.931 217.052C306.135 216.691 305.424 216.163 304.848 215.505ZM315.078 162.952C313.797 162.955 312.561 163.423 311.599 164.271C310.636 165.118 310.013 166.286 309.845 167.559L304.233 210.758C304.136 211.504 304.199 212.262 304.417 212.981C304.636 213.701 305.005 214.366 305.501 214.931C305.996 215.496 306.606 215.949 307.29 216.259C307.973 216.57 308.715 216.73 309.466 216.73H394.313C395.594 216.727 396.831 216.259 397.793 215.412C398.755 214.565 399.378 213.396 399.547 212.123L405.159 168.925C405.256 168.179 405.193 167.421 404.974 166.701C404.755 165.982 404.386 165.317 403.891 164.752C403.396 164.186 402.786 163.733 402.102 163.423C401.418 163.113 400.676 162.952 399.926 162.952L315.078 162.952Z" fill="#292A2E"/>
<path d="M321.514 92.9708C321.514 92.9708 316.505 87.978 316.451 78.0608C316.408 70.3819 322.673 76.2127 322.673 76.2127C322.673 76.2127 322.696 70.6833 326.569 71.7644C330.441 72.8454 331.874 78.8535 331.874 78.8535" fill="#0C0C0C"/>
<path d="M346.887 75.2014C346.887 75.2014 366.186 79.9952 355.47 105.626L353.72 105.504L350.17 105.257" fill="#0C0C0C"/>
<path d="M322.115 132.264C322.202 132.252 323.167 148.292 341.76 146.895C354.631 145.928 359.221 132.241 359.516 132.241C358.128 131.945 356.413 131.497 355.731 131.342C354.246 130.997 352.901 130.206 351.876 129.075C350.85 127.944 350.192 126.528 349.989 125.013C349.612 122.739 350.25 111.107 350.055 108.806L330.297 113.226C330.573 118.085 332.505 129.349 325.734 131.342C324.604 131.672 323.39 131.974 322.115 132.264Z" fill="#E98862"/>
<path opacity="0.52" d="M330.017 126.739C330.327 125.739 330.526 124.709 330.612 123.665C330.829 121.285 330.785 118.888 330.481 116.517C334.497 115.974 338.28 114.312 341.401 111.721C341.768 113.08 343.786 119.014 343.226 120.302C342.173 122.744 337.21 126.739 330.017 126.739Z" fill="#0C0C0C"/>
<path d="M332.972 122.06C340.79 122.427 350.702 118.805 352.27 108.316L353.687 98.8521C355.256 88.3634 351.031 79.0342 341.179 77.5533C331.326 76.0724 322.689 83.4686 321.12 93.9573L320.493 98.1469C320.303 99.5893 320.211 101.043 320.218 102.498C320.209 106.343 320.209 112.192 322.235 116.426C324.147 120.424 327.978 121.826 332.972 122.06Z" fill="#E98862"/>
<path d="M330.702 111.965C329.098 111.818 327.551 111.296 326.186 110.44C326.157 110.424 326.13 110.402 326.109 110.375C326.088 110.348 326.073 110.318 326.064 110.285C326.055 110.252 326.053 110.218 326.058 110.184C326.062 110.151 326.074 110.118 326.091 110.089C326.108 110.06 326.131 110.035 326.159 110.015C326.186 109.995 326.217 109.981 326.25 109.973C326.283 109.965 326.318 109.965 326.351 109.97C326.384 109.976 326.416 109.989 326.444 110.008C329.396 111.778 332.267 111.972 334.753 110.571C334.803 110.541 334.855 110.514 334.908 110.489C334.969 110.467 335.037 110.469 335.097 110.495C335.156 110.522 335.204 110.571 335.228 110.631C335.253 110.692 335.252 110.76 335.228 110.821C335.203 110.881 335.156 110.93 335.096 110.957C335.077 110.965 335.045 110.985 334.999 111.01C333.694 111.75 332.197 112.082 330.702 111.965Z" fill="#0C0C0C"/>
<path d="M330.453 114.342C330.162 114.32 329.874 114.273 329.592 114.202C329.56 114.195 329.53 114.18 329.503 114.161C329.476 114.141 329.454 114.116 329.437 114.088C329.42 114.06 329.409 114.028 329.404 113.996C329.399 113.963 329.4 113.93 329.408 113.898C329.416 113.865 329.43 113.835 329.45 113.809C329.469 113.782 329.494 113.759 329.522 113.742C329.55 113.725 329.582 113.714 329.614 113.709C329.647 113.704 329.68 113.705 329.712 113.713C331.412 114.134 332.344 113.455 332.383 113.425C332.436 113.385 332.503 113.367 332.569 113.376C332.635 113.385 332.695 113.42 332.735 113.474C332.776 113.527 332.793 113.594 332.784 113.66C332.775 113.726 332.74 113.786 332.687 113.827C332.024 114.252 331.235 114.434 330.453 114.342Z" fill="#0C0C0C"/>
<path d="M323.93 98.536C324.608 98.536 325.157 97.9853 325.157 97.3059C325.157 96.6266 324.608 96.0759 323.93 96.0759C323.252 96.0759 322.703 96.6266 322.703 97.3059C322.703 97.9853 323.252 98.536 323.93 98.536Z" fill="#0C0C0C"/>
<path d="M335.341 99.2984C336.019 99.2984 336.568 98.7477 336.568 98.0684C336.568 97.3891 336.019 96.8384 335.341 96.8384C334.663 96.8384 334.114 97.3891 334.114 98.0684C334.114 98.7477 334.663 99.2984 335.341 99.2984Z" fill="#0C0C0C"/>
<path d="M351.18 111.42C354.175 111.869 357.083 109.024 357.532 106.023C357.98 103.021 355.801 101.001 352.807 100.552L350.963 102.33L348.606 111.033L351.18 111.42Z" fill="#E98862"/>
<path d="M348.856 106.179C348.856 106.179 349.876 91.1722 345.503 89.6365C342.592 88.6138 334.745 91.8757 328.192 89.6657C325.324 88.6987 322.431 89.0454 321.956 90.4C321.768 90.9362 321.018 82.7547 326.45 77.369C330.775 73.0809 342.971 73.3771 348.221 75.6986C362.757 82.1266 353.336 101.291 353.336 101.291L351.96 106.324L348.856 106.179Z" fill="#0C0C0C"/>
<path d="M329.368 108.207H329.349C328.384 108.065 326.78 107.718 326.886 106.994C326.973 106.394 329.563 100.162 329.859 99.4541C329.87 99.4226 329.888 99.3938 329.911 99.3694C329.934 99.345 329.962 99.3256 329.993 99.3122C330.023 99.2988 330.056 99.2918 330.09 99.2915C330.123 99.2913 330.156 99.2978 330.187 99.3107C330.218 99.3236 330.246 99.3427 330.27 99.3667C330.293 99.3907 330.311 99.4192 330.323 99.4505C330.336 99.4818 330.341 99.5152 330.34 99.5487C330.339 99.5823 330.331 99.6153 330.317 99.6457C329.168 102.405 327.438 106.658 327.378 107.066C327.448 107.251 328.421 107.566 329.42 107.714C329.483 107.724 329.54 107.758 329.579 107.809C329.617 107.86 329.635 107.924 329.628 107.987C329.622 108.051 329.591 108.109 329.542 108.15C329.493 108.192 329.431 108.213 329.367 108.209L329.368 108.207Z" fill="#0C0C0C"/>
<path d="M328.05 93.2698C327.072 92.8506 326 92.7039 324.946 92.8452C324.428 92.9112 323.924 93.0546 323.449 93.2707C322.98 93.4821 322.539 93.752 322.138 94.0739C322.064 94.1309 322.015 94.2142 322.001 94.3065C321.987 94.3988 322.009 94.493 322.062 94.5694C322.116 94.6459 322.196 94.6988 322.288 94.717C322.379 94.7353 322.474 94.7176 322.553 94.6676L322.577 94.6514C322.943 94.3944 323.34 94.1845 323.758 94.0268C324.169 93.8693 324.601 93.7752 325.04 93.7476C325.905 93.6865 326.771 93.8552 327.551 94.2368L327.583 94.2538C327.712 94.32 327.861 94.3324 327.998 94.2883C328.136 94.2443 328.25 94.1473 328.316 94.0188C328.382 93.8903 328.394 93.7407 328.35 93.6031C328.306 93.4654 328.21 93.3508 328.081 93.2847L328.05 93.2698Z" fill="#0C0C0C"/>
<path d="M335.159 94.8687C335.984 94.5984 336.865 94.5512 337.714 94.732C338.145 94.8198 338.56 94.9729 338.945 95.1858C339.337 95.3999 339.701 95.6626 340.028 95.9676L340.049 95.9864C340.12 96.0478 340.212 96.0793 340.305 96.0743C340.399 96.0694 340.487 96.0283 340.551 95.9598C340.615 95.8913 340.649 95.8006 340.648 95.7068C340.647 95.613 340.609 95.5234 340.543 95.4567C340.19 95.0823 339.791 94.7541 339.355 94.4798C338.915 94.2 338.435 93.988 337.932 93.8508C336.907 93.5652 335.825 93.5621 334.798 93.8417C334.659 93.8807 334.542 93.9734 334.471 94.0994C334.4 94.2254 334.382 94.3743 334.421 94.5135C334.46 94.6527 334.553 94.7707 334.678 94.8416C334.804 94.9125 334.953 94.9304 335.092 94.8914L335.123 94.8814L335.159 94.8687Z" fill="#0C0C0C"/>
<path d="M336.846 78.8659C337.976 75.6842 337.144 72.481 334.988 71.7112C332.831 70.9415 330.166 72.8966 329.036 76.0783C327.906 79.2599 328.738 82.4631 330.894 83.2329C333.051 84.0027 335.716 82.0475 336.846 78.8659Z" fill="#0C0C0C"/>
<path d="M201.795 386.024C201.795 386.024 199.465 398.13 188.157 398.805C176.85 399.479 179.301 408.509 179.301 408.509H222.515V386.869L201.795 386.024Z" fill="#2C47FA"/>
<path d="M284.008 378.381C284.008 378.381 287.248 390.275 277.398 395.883C267.548 401.492 273.725 408.509 273.725 408.509L312.501 389.388L302.97 369.972L284.008 378.381Z" fill="#2C47FA"/>
<path d="M308.025 375.022L275.324 271.625H334.598C346.504 271.625 351.468 261.505 351.468 249.571C351.468 237.638 339.763 227.177 327.857 227.177H247.86C240.598 227.177 232.455 231.628 228.47 237.713C224.485 243.798 225.562 253.226 228.449 259.905L280.813 387.378" fill="#262626"/>
<path opacity="0.8" d="M308.025 375.022L275.324 271.625H334.598C346.504 271.625 351.468 261.505 351.468 249.571C351.468 237.638 339.763 227.177 327.857 227.177H247.86C240.598 227.177 232.455 231.628 228.47 237.713C224.485 243.798 225.562 253.226 228.449 259.905L280.813 387.378" fill="#0A0A0A"/>
<path d="M225 397.267L279.675 271.625L351.467 271.62C368.289 270.298 375.993 261.058 375.748 249.127C375.507 237.347 369.556 225.712 357.857 225.712H261.095C252.439 225.891 245.628 235.479 242.417 243.538L196.963 389.575" fill="#262626"/>
<path d="M380.646 225.857C380.646 225.857 383.835 246.696 378.781 258.283C372.471 272.747 348.82 271.621 348.82 271.621L350.152 225.713L380.646 225.857Z" fill="#262626"/>
<path d="M240.36 225.447L291.072 214.914C293.185 214.475 295.154 213.509 296.796 212.106C298.438 210.702 299.7 208.906 300.466 206.883L320.411 154.201C321.019 152.62 321.309 150.935 321.264 149.241C321.219 147.547 320.841 145.879 320.152 144.332C319.462 142.786 318.474 141.391 317.245 140.228C316.016 139.065 314.57 138.156 312.989 137.555C311.409 136.954 309.726 136.672 308.036 136.725C306.347 136.778 304.684 137.164 303.144 137.863C301.605 138.562 300.218 139.559 299.063 140.796C297.909 142.034 297.01 143.488 296.418 145.075L278.969 191.157L235.153 200.259C235.153 200.259 239.482 225.629 240.36 225.447Z" fill="#2C47FA"/>
<path d="M299.016 167.579C299.601 174.476 303.753 217.499 304.317 225.993H380.613C381.051 218.332 382.474 185.806 384.137 170.825C385.723 156.529 386.299 148.371 384.472 143.929C381.248 136.093 373.181 133.274 366.233 132.331C361.99 131.755 355.609 131.342 355.609 131.342C355.609 131.342 355.069 142.297 342.185 142.906C324.647 143.734 325.818 131.341 325.731 131.341C322.89 131.341 307.424 133.412 303.557 135.938C298.095 139.507 296.481 144.369 296.417 148.837C296.343 153.983 298.35 159.759 299.016 167.579Z" fill="#2C47FA"/>
<path d="M302.014 202.734H302.033C302.09 202.729 302.143 202.702 302.18 202.658C302.217 202.614 302.235 202.557 302.231 202.499L300.25 178.65C300.248 178.622 300.241 178.594 300.228 178.568C300.215 178.542 300.198 178.519 300.176 178.501C300.154 178.482 300.128 178.468 300.101 178.459C300.073 178.451 300.044 178.448 300.016 178.451C299.987 178.454 299.96 178.462 299.934 178.475C299.909 178.488 299.886 178.506 299.868 178.528C299.849 178.55 299.835 178.575 299.827 178.602C299.818 178.629 299.815 178.658 299.817 178.687L301.797 202.534C301.801 202.589 301.826 202.64 301.867 202.677C301.907 202.714 301.96 202.734 302.014 202.734Z" fill="#0C0C0C"/>
<path d="M265.676 217.047L248.935 165.468C248.641 164.562 248.069 163.772 247.299 163.212C246.53 162.652 245.604 162.35 244.653 162.349H176.448C175.737 162.349 175.036 162.518 174.402 162.842C173.769 163.165 173.221 163.634 172.803 164.211C172.385 164.788 172.109 165.455 171.998 166.159C171.887 166.863 171.944 167.583 172.164 168.261L188.905 219.841C189.199 220.747 189.772 221.537 190.542 222.097C191.311 222.657 192.238 222.959 193.189 222.959H261.392C262.103 222.959 262.804 222.79 263.438 222.467C264.071 222.143 264.619 221.674 265.037 221.097C265.455 220.521 265.73 219.853 265.841 219.149C265.952 218.445 265.896 217.725 265.676 217.047Z" fill="#292A2E"/>
<path d="M265.676 217.047L248.935 165.468C248.641 164.562 248.069 163.772 247.299 163.212C246.53 162.652 245.604 162.35 244.653 162.349H176.448C175.737 162.349 175.036 162.518 174.402 162.842C173.769 163.165 173.221 163.634 172.803 164.211C172.385 164.788 172.109 165.455 171.998 166.159C171.887 166.863 171.944 167.583 172.164 168.261L188.905 219.841C189.199 220.747 189.772 221.537 190.542 222.097C191.311 222.657 192.238 222.959 193.189 222.959H261.392C262.103 222.959 262.804 222.79 263.438 222.467C264.071 222.143 264.619 221.674 265.037 221.097C265.455 220.521 265.73 219.853 265.841 219.149C265.952 218.445 265.896 217.725 265.676 217.047Z" fill="#292A2E"/>
<path d="M297.675 218.776H252.019C250.882 218.776 249.96 219.701 249.96 220.841V220.894C249.96 222.034 250.882 222.959 252.019 222.959H297.675C298.813 222.959 299.735 222.034 299.735 220.894V220.841C299.735 219.701 298.813 218.776 297.675 218.776Z" fill="#292A2E"/>
<path d="M297.675 218.776H252.019C250.882 218.776 249.96 219.701 249.96 220.841V220.894C249.96 222.034 250.882 222.959 252.019 222.959H297.675C298.813 222.959 299.735 222.034 299.735 220.894V220.841C299.735 219.701 298.813 218.776 297.675 218.776Z" fill="#292A2E"/>
<path d="M218.92 202.34C222.871 202.34 226.073 199.13 226.073 195.17C226.073 191.211 222.871 188.001 218.92 188.001C214.969 188.001 211.767 191.211 211.767 195.17C211.767 199.13 214.969 202.34 218.92 202.34Z" fill="white"/>
<path d="M269.492 204.965L280.886 200.962L279.251 200.848C278.723 200.801 278.233 200.555 277.88 200.16C277.527 199.765 277.336 199.25 277.347 198.719C277.362 198.446 277.433 198.178 277.555 197.933C277.677 197.688 277.847 197.47 278.055 197.292C278.264 197.115 278.506 196.983 278.768 196.902C279.029 196.822 279.304 196.796 279.576 196.826L299.735 198.973L299.211 205.466C299.049 207.483 298.289 209.405 297.029 210.986C295.77 212.567 294.067 213.735 292.141 214.341L283.411 217.066C282.96 217.217 282.471 217.206 282.027 217.037C281.583 216.868 281.211 216.55 280.974 216.137C280.767 215.76 280.687 215.327 280.744 214.9C280.801 214.474 280.992 214.077 281.29 213.767C281.263 213.748 281.243 213.721 281.23 213.691C281.219 213.662 281.216 213.631 281.22 213.601C281.225 213.57 281.237 213.542 281.255 213.517L279.647 214.023C279.145 214.192 278.598 214.163 278.116 213.943C277.634 213.723 277.254 213.328 277.051 212.838C276.886 212.393 276.882 211.904 277.041 211.457C277.2 211.01 277.512 210.634 277.92 210.394C277.902 210.384 277.885 210.37 277.871 210.354L277.21 210.562C276.758 210.713 276.268 210.704 275.823 210.535C275.378 210.366 275.005 210.047 274.768 209.634C274.518 209.176 274.454 208.64 274.59 208.136C274.726 207.633 275.052 207.202 275.498 206.933C275.494 206.92 275.492 206.906 275.492 206.893L270.746 208.56C270.511 208.642 270.262 208.678 270.013 208.664C269.764 208.65 269.52 208.587 269.296 208.479C268.842 208.26 268.494 207.87 268.327 207.393C268.161 206.917 268.19 206.394 268.408 205.939C268.626 205.485 269.016 205.135 269.491 204.969L269.492 204.965Z" fill="#E98862"/>
<path opacity="0.2" d="M275.68 207.075C275.702 207.075 275.724 207.071 275.745 207.063L280.335 205.39C280.358 205.382 280.38 205.369 280.398 205.352C280.416 205.335 280.431 205.315 280.441 205.292C280.452 205.269 280.458 205.245 280.459 205.22C280.46 205.195 280.456 205.17 280.447 205.147C280.439 205.123 280.426 205.102 280.409 205.084C280.392 205.065 280.372 205.051 280.349 205.04C280.327 205.03 280.302 205.024 280.277 205.023C280.253 205.022 280.228 205.025 280.204 205.034L275.614 206.707C275.572 206.722 275.537 206.752 275.515 206.79C275.493 206.829 275.485 206.874 275.493 206.918C275.5 206.962 275.523 207.002 275.557 207.03C275.591 207.059 275.635 207.075 275.679 207.075H275.68Z" fill="#0A0A0A"/>
<path opacity="0.2" d="M278 210.418C278.021 210.418 278.043 210.414 278.063 210.407L281.681 209.12C281.705 209.112 281.727 209.1 281.746 209.083C281.765 209.066 281.78 209.046 281.791 209.024C281.802 209.001 281.809 208.976 281.81 208.951C281.812 208.926 281.808 208.901 281.8 208.877C281.792 208.853 281.779 208.831 281.762 208.812C281.745 208.794 281.724 208.779 281.701 208.768C281.678 208.757 281.654 208.752 281.628 208.751C281.603 208.75 281.578 208.754 281.555 208.763L277.937 210.05C277.895 210.065 277.859 210.094 277.837 210.133C277.814 210.171 277.806 210.217 277.813 210.261C277.821 210.305 277.844 210.345 277.878 210.373C277.912 210.402 277.955 210.418 278 210.418Z" fill="#0A0A0A"/>
<path opacity="0.2" d="M281.407 213.815C281.43 213.815 281.452 213.811 281.474 213.803L283.169 213.155C283.215 213.137 283.253 213.101 283.274 213.055C283.294 213.009 283.296 212.957 283.278 212.91C283.26 212.863 283.224 212.825 283.178 212.805C283.132 212.784 283.08 212.783 283.033 212.801L281.339 213.449C281.298 213.465 281.263 213.495 281.242 213.533C281.22 213.572 281.213 213.617 281.221 213.66C281.229 213.704 281.252 213.743 281.285 213.771C281.319 213.8 281.362 213.815 281.406 213.815H281.407Z" fill="#0A0A0A"/>
<path d="M290.812 195.13L338.613 195.098L356.698 150.883L383.673 162.251L361.11 214.727L360.89 215.25C359.786 217.801 357.927 219.95 355.564 221.406C353.201 222.862 350.449 223.555 347.68 223.391L290.089 219.981L290.812 195.13Z" fill="#2C47FA"/>
<path d="M348.472 223.632C351.152 223.627 353.772 222.84 356.013 221.367C358.254 219.894 360.018 217.798 361.09 215.336L361.31 214.814L380.535 170.101L380.136 169.927L360.69 215.166C359.599 217.671 357.768 219.782 355.444 221.213C353.121 222.645 350.415 223.329 347.692 223.174L290.313 219.777L291.024 195.349L338.759 195.317L352.664 161.321L352.262 161.156L338.468 194.882L290.602 194.914L289.866 220.187L290.077 220.199L347.667 223.609C347.936 223.624 348.207 223.632 348.472 223.632Z" fill="#0C0C0C"/>
<path d="M104.652 227.135L86.3326 408.914L87.1973 409.002L105.517 227.222L104.652 227.135Z" fill="#494949"/>
<path d="M401.641 227.133L400.776 227.22L419.108 408.998L419.973 408.911L401.641 227.133Z" fill="#494949"/>
<path d="M325.899 227.133L325.035 227.22L343.367 408.998L344.232 408.911L325.899 227.133Z" fill="#494949"/>
<path d="M28.9105 227.134L10.5909 408.913L11.4556 409.001L29.7752 227.221L28.9105 227.134Z" fill="#494949"/>
<path d="M12.39 230.746L416.96 230.746C418.927 230.746 420.521 229.148 420.521 227.177C420.521 225.206 418.927 223.608 416.96 223.608L12.39 223.608C10.4235 223.608 8.82925 225.206 8.82925 227.177C8.82925 229.148 10.4235 230.746 12.39 230.746Z" fill="#292A2E"/>
<path opacity="0.8" d="M12.39 230.746L416.96 230.746C418.927 230.746 420.521 229.148 420.521 227.177C420.521 225.206 418.927 223.608 416.96 223.608L12.39 223.608C10.4235 223.608 8.82925 225.206 8.82925 227.177C8.82925 229.148 10.4235 230.746 12.39 230.746Z" fill="white"/>
<path d="M8.39426 227.177C8.39495 226.115 8.8161 225.097 9.56521 224.346C10.3143 223.595 11.3301 223.173 12.3895 223.172H416.958C418.018 223.172 419.034 223.594 419.783 224.345C420.533 225.096 420.954 226.115 420.954 227.177C420.954 228.239 420.533 229.258 419.783 230.008C419.034 230.759 418.018 231.181 416.958 231.181H12.3895C11.3301 231.181 10.3143 230.759 9.56521 230.008C8.8161 229.257 8.39495 228.239 8.39426 227.177ZM12.3895 224.043C11.5604 224.043 10.7653 224.374 10.179 224.961C9.59273 225.549 9.26336 226.346 9.26336 227.177C9.26336 228.008 9.59273 228.805 10.179 229.393C10.7653 229.98 11.5604 230.31 12.3895 230.31H416.958C417.787 230.31 418.583 229.98 419.169 229.393C419.755 228.805 420.084 228.008 420.084 227.177C420.084 226.346 419.755 225.549 419.169 224.961C418.583 224.374 417.787 224.043 416.958 224.043H12.3895Z" fill="#292A2E"/>
<path d="M12.39 230.746L338.323 230.746C340.289 230.746 341.884 229.148 341.884 227.177C341.884 225.206 340.289 223.608 338.323 223.608L12.39 223.608C10.4234 223.608 8.82922 225.206 8.82922 227.177C8.82922 229.148 10.4234 230.746 12.39 230.746Z" fill="white"/>
<path d="M8.39426 227.177C8.39495 226.115 8.8161 225.097 9.56521 224.346C10.3143 223.595 11.3301 223.173 12.3895 223.172H338.323C339.383 223.172 340.399 223.594 341.148 224.345C341.897 225.096 342.318 226.115 342.318 227.177C342.318 228.239 341.897 229.258 341.148 230.008C340.399 230.759 339.383 231.181 338.323 231.181H12.3895C11.3301 231.181 10.3143 230.759 9.56521 230.008C8.8161 229.257 8.39495 228.239 8.39426 227.177ZM12.3895 224.043C11.5604 224.043 10.7653 224.374 10.179 224.961C9.59273 225.549 9.26336 226.346 9.26336 227.177C9.26336 228.008 9.59273 228.805 10.179 229.393C10.7653 229.98 11.5604 230.31 12.3895 230.31H338.323C339.152 230.31 339.947 229.98 340.533 229.393C341.12 228.805 341.449 228.008 341.449 227.177C341.449 226.346 341.12 225.549 340.533 224.961C339.947 224.374 339.152 224.043 338.323 224.043H12.3895Z" fill="#292A2E"/>
<path d="M59.1136 374.057C59.1136 374.057 50.8844 386.196 58.178 394.936C65.4715 403.676 57.2063 408.098 57.2063 408.098L27.4559 376.472L43.2189 361.574L59.1136 374.057Z" fill="#2C47FA"/>
<path d="M102.3 178.873C102.3 178.873 130.078 274.635 123.531 288.633C117.094 302.397 58.3479 382.797 58.3479 382.797L37.2212 364.344L89.4715 279.413C89.4715 279.413 74.0044 230.366 65.6423 204.644C60.6015 189.139 52.1199 189.633 51.3142 173.344L102.3 178.873Z" fill="#262626"/>
<path d="M71.5426 286.826L78.4142 278.983L76.6256 325.023L68.967 332.319L71.5426 286.826Z" fill="#0A0A0A"/>
<path d="M70.4046 219.386C70.4046 219.386 67.1146 199.812 70.6331 204.004C82.0745 217.637 83.2134 259.589 83.2134 259.589L70.4046 219.386Z" fill="#0A0A0A"/>
<path d="M89.6257 385.008C89.6257 385.008 91.964 397.156 103.314 397.833C114.664 398.51 112.201 407.571 112.201 407.571H68.8332V385.855L89.6257 385.008Z" fill="#2C47FA"/>
<path d="M24.8777 176.473C24.8777 176.473 24.6857 175.578 24.5735 180.812C24.4932 184.508 22.9957 197.589 28.1729 218.221C37.8713 256.877 66.9212 392.761 66.9212 392.761L95.417 392.521L68.5442 175.286L24.8777 176.473Z" fill="#262626"/>
<path d="M24.4367 176.63L24.3437 176.636C24.3437 176.636 24.4106 174.836 24.4367 176.63Z" fill="#333333"/>
<path d="M180.422 91.0037C180.251 90.6634 179.978 90.3848 179.642 90.2063C179.306 90.0279 178.923 89.9585 178.546 90.0076C178.549 89.974 178.542 89.9402 178.525 89.9109C178.507 89.8883 178.484 89.8707 178.458 89.8599C178.431 89.8491 178.402 89.8455 178.374 89.8495L179.647 88.9348C180.028 88.6734 180.301 88.2828 180.417 87.8352C180.533 87.3875 180.483 86.9131 180.277 86.4992C180.06 86.0969 179.702 85.7896 179.272 85.6372C178.842 85.4848 178.37 85.498 177.949 85.6742C177.952 85.6564 177.94 85.639 177.938 85.6207L178.459 85.2448C178.817 84.9971 179.078 84.6331 179.199 84.2144C179.32 83.7957 179.293 83.3481 179.122 82.9472C179.01 82.6982 178.844 82.4772 178.636 82.3002C178.428 82.1232 178.184 81.9947 177.92 81.9239C177.657 81.853 177.381 81.8417 177.113 81.8906C176.845 81.9395 176.591 82.0475 176.369 82.2068L175.162 83.074C175.159 83.0666 175.162 83.0583 175.157 83.0518C175.153 83.0452 175.14 83.0426 175.133 83.0352C175.41 82.7228 175.573 82.3252 175.595 81.9077C175.617 81.4902 175.497 81.0777 175.254 80.7376C174.684 79.8186 173.369 80.0063 172.588 80.5669L165.484 85.4857L166.754 83.3427C167.01 82.9304 167.1 82.4362 167.006 81.9599C166.912 81.4837 166.641 81.0608 166.249 80.7768C166.041 80.6374 165.807 80.5418 165.561 80.496C165.315 80.4501 165.062 80.455 164.818 80.5104C164.574 80.5657 164.344 80.6702 164.142 80.8177C163.939 80.9651 163.769 81.1523 163.641 81.3679L156.712 93.0657C155.898 94.4381 155.651 96.0743 156.022 97.6266C156.393 99.179 157.353 100.525 158.699 101.379C160.259 102.37 162.079 102.87 163.926 102.817C165.772 102.764 167.561 102.159 169.062 101.081L179.79 93.3736C180.147 93.1077 180.403 92.729 180.518 92.2989C180.632 91.8688 180.599 91.4124 180.422 91.0037Z" fill="#E98862"/>
<g opacity="0.25">
<path opacity="0.25" d="M168.134 87.9331C168.16 87.9691 168.199 87.9935 168.243 88.001C168.286 88.0085 168.331 87.9985 168.368 87.9732L175.118 83.287C175.136 83.2743 175.152 83.258 175.164 83.2392C175.176 83.2204 175.184 83.1993 175.188 83.1773C175.192 83.1553 175.192 83.1327 175.187 83.1108C175.182 83.089 175.173 83.0682 175.161 83.0499C175.148 83.0315 175.132 83.0158 175.113 83.0037C175.094 82.9915 175.073 82.9833 175.051 82.9793C175.029 82.9753 175.007 82.9757 174.985 82.9804C174.963 82.9852 174.942 82.9942 174.924 83.007L168.174 87.6931C168.156 87.7058 168.14 87.722 168.128 87.7408C168.116 87.7596 168.107 87.7806 168.103 87.8026C168.099 87.8246 168.1 87.8471 168.104 87.869C168.109 87.8909 168.118 87.9116 168.131 87.9301L168.134 87.9331Z" fill="#0C0C0C"/>
</g>
<g opacity="0.25">
<path opacity="0.25" d="M170.114 90.9741C170.14 91.01 170.179 91.0342 170.223 91.0416C170.266 91.049 170.311 91.039 170.348 91.0138L177.881 85.7841C177.899 85.7714 177.915 85.7552 177.927 85.7364C177.939 85.7176 177.947 85.6966 177.951 85.6746C177.956 85.6526 177.955 85.63 177.951 85.6081C177.946 85.5863 177.937 85.5655 177.924 85.5471C177.898 85.5113 177.858 85.4868 177.815 85.4787C177.771 85.4707 177.725 85.4795 177.688 85.5036L170.155 90.7333C170.136 90.746 170.121 90.7622 170.109 90.781C170.097 90.7997 170.088 90.8207 170.084 90.8427C170.08 90.8647 170.08 90.8873 170.085 90.9092C170.09 90.9311 170.099 90.9518 170.111 90.9702L170.114 90.9741Z" fill="#0C0C0C"/>
</g>
<g opacity="0.25">
<path opacity="0.25" d="M172.239 94.28C172.265 94.3159 172.304 94.3401 172.348 94.3475C172.392 94.3549 172.437 94.3449 172.473 94.3197L178.482 90.1483C178.519 90.1226 178.545 90.0831 178.553 90.0386C178.561 89.9942 178.551 89.9483 178.525 89.9112C178.499 89.874 178.46 89.8487 178.416 89.8406C178.371 89.8326 178.325 89.8425 178.288 89.8683L172.279 94.0396C172.261 94.0523 172.245 94.0685 172.233 94.0873C172.221 94.1061 172.213 94.1271 172.209 94.1491C172.205 94.1711 172.205 94.1937 172.21 94.2155C172.214 94.2374 172.223 94.2581 172.236 94.2766L172.239 94.28Z" fill="#0C0C0C"/>
</g>
<path d="M152.62 90.4009L132.259 125.158L107.415 92.4959L86.7802 111.14L122.017 156.879L122.248 157.204C123.659 159.141 125.538 160.685 127.708 161.692C129.879 162.699 132.269 163.136 134.655 162.961C137.04 162.786 139.342 162.005 141.343 160.692C143.344 159.379 144.978 157.577 146.092 155.455L175.046 102.901L152.62 90.4009Z" fill="#2C47FA"/>
<path d="M130.263 129.338C130.219 129.338 130.175 129.327 130.136 129.305C130.098 129.283 130.065 129.252 130.042 129.214C130.019 129.176 130.006 129.133 130.004 129.089C130.003 129.044 130.012 129 130.033 128.961L132.029 125.041C132.064 124.988 132.118 124.951 132.179 124.935C132.241 124.919 132.306 124.926 132.363 124.955C132.419 124.984 132.463 125.033 132.486 125.092C132.51 125.151 132.511 125.217 132.489 125.277L130.493 129.197C130.471 129.239 130.438 129.275 130.398 129.3C130.357 129.325 130.31 129.338 130.263 129.338Z" fill="#0C0C0C"/>
<path d="M105.981 124.96L105.36 135.938L105.876 135.968L106.498 124.99L105.981 124.96Z" fill="#0C0C0C"/>
<path d="M40.3734 45.5106C40.3734 45.5106 39.4174 57.7302 36.6233 62.135C28.5732 74.8162 26.1166 89.1587 33.9447 96.7574C41.7727 104.356 92.2447 105.046 96.2678 87.8237C99.6547 73.3244 92.7644 71.6815 91.2218 59.6702C90.5239 54.2353 88.5632 42.8333 88.5632 42.8333" fill="#0A0A0A"/>
<path d="M83.4185 85.071C83.3316 85.0593 82.3643 101.14 63.7263 99.7384C50.8231 98.7697 46.2221 85.0479 45.9266 85.0479C47.3172 84.7518 49.6603 84.321 50.2782 83.9904C52.3102 82.8958 54.8241 81.7573 55.4789 77.8024C55.8566 75.5232 55.216 63.862 55.4133 61.5562L75.2211 65.9871C74.9443 70.8579 73.0075 82.1497 79.7965 84.1498C80.9242 84.4782 82.1409 84.7822 83.4185 85.071Z" fill="#E98862"/>
<path opacity="0.52" d="M75.4971 79.5329C75.1871 78.5306 74.9873 77.4975 74.9013 76.4517C74.684 74.0654 74.7277 71.6623 75.0317 69.2855C71.006 68.7407 67.2135 67.0752 64.0848 64.4783C63.7172 65.8398 61.6948 71.7882 62.2545 73.0823C63.3144 75.5279 68.2865 79.5329 75.4971 79.5329Z" fill="#0C0C0C"/>
<path d="M72.8719 74.4718C65.0552 75.1382 54.9883 71.8907 53.0159 61.4439L51.2342 52.018C49.2618 41.5711 53.1371 32.0642 62.9502 30.2026C72.7637 28.3411 81.6977 35.4184 83.6701 45.8653L84.458 50.0384C85.2158 54.0468 86.8193 73.2823 72.8719 74.4718Z" fill="#E98862"/>
<path d="M81.6629 50.4935C82.3424 50.4935 82.8932 49.9414 82.8932 49.2604C82.8932 48.5794 82.3424 48.0273 81.6629 48.0273C80.9835 48.0273 80.4327 48.5794 80.4327 49.2604C80.4327 49.9414 80.9835 50.4935 81.6629 50.4935Z" fill="#0C0C0C"/>
<path d="M69.06 52.1805C69.7394 52.1805 70.2902 51.6284 70.2902 50.9474C70.2902 50.2664 69.7394 49.7144 69.06 49.7144C68.3806 49.7144 67.8298 50.2664 67.8298 50.9474C67.8298 51.6284 68.3806 52.1805 69.06 52.1805Z" fill="#0C0C0C"/>
<path d="M75.9764 59.9869C75.9828 59.9865 75.9892 59.9856 75.9955 59.9843C76.393 59.9058 76.7858 59.8055 77.1723 59.6838C77.7494 59.4978 78.505 59.1898 78.4068 58.6676C78.2947 58.0722 75.4549 51.96 75.1316 51.2631C75.1176 51.2331 75.0978 51.2061 75.0734 51.1837C75.049 51.1613 75.0204 51.1439 74.9893 51.1326C74.9582 51.1213 74.9251 51.1162 74.8921 51.1177C74.859 51.1192 74.8265 51.1271 74.7966 51.1412C74.7666 51.1552 74.7396 51.175 74.7173 51.1995C74.6949 51.224 74.6776 51.2526 74.6663 51.2838C74.655 51.315 74.65 51.3481 74.6514 51.3813C74.6529 51.4144 74.6609 51.4469 74.6749 51.477C75.886 54.0803 77.8358 58.361 77.9114 58.7617C77.8463 58.9472 76.8885 59.3005 75.9016 59.4878C75.8379 59.5003 75.7815 59.5369 75.7442 59.5901C75.7068 59.6433 75.6913 59.7088 75.7009 59.7731C75.7105 59.8375 75.7446 59.8956 75.7959 59.9354C75.8472 59.9752 75.9118 59.9937 75.9764 59.9869Z" fill="#0C0C0C"/>
<path d="M74.5232 64.4971C76.1238 64.2892 77.6532 63.7074 78.9882 62.7984C79.0435 62.7615 79.0821 62.7043 79.0955 62.6391C79.1089 62.5739 79.0961 62.506 79.0599 62.4502C79.0236 62.3944 78.9669 62.3552 78.9019 62.3412C78.837 62.3271 78.7692 62.3393 78.7132 62.3751C75.8243 64.2615 72.9536 64.5668 70.4132 63.2575C70.3618 63.2297 70.309 63.2045 70.255 63.1821C70.1923 63.16 70.1234 63.1636 70.0633 63.1922C70.0032 63.2207 69.9568 63.2719 69.9342 63.3346C69.9116 63.3973 69.9147 63.4664 69.9427 63.5269C69.9707 63.5873 70.0215 63.6342 70.0838 63.6573C70.1038 63.6656 70.1368 63.6835 70.1829 63.7074C71.5191 64.3976 73.0303 64.6725 74.5232 64.4971Z" fill="#0C0C0C"/>
<path d="M43.3853 55.3029L52.1824 53.6865C58.8445 50.9861 60.8596 39.4242 60.8596 39.4242C60.8596 39.4242 68.9518 47.3296 88.5632 42.8333C88.5632 42.8333 84.6309 15.4207 55.6584 23.3914C46.3155 25.9611 39.6112 35.3975 40.4464 48.0086C41.0318 56.8465 43.3853 55.3029 43.3853 55.3029Z" fill="#0A0A0A"/>
<path d="M54.2261 64.5109C51.2438 65.0771 48.2228 62.3375 47.6583 59.3483C47.0938 56.359 49.2001 54.2523 52.1824 53.686L54.097 55.3973L56.7913 64.024L54.2261 64.5109Z" fill="#E98862"/>
<path d="M76.9285 46.2673C77.799 45.7042 78.8046 45.3862 79.84 45.3466C80.3494 45.324 80.8593 45.378 81.3527 45.5068C81.8412 45.6328 82.3121 45.8198 82.7541 46.0635C82.8144 46.0954 82.8599 46.1495 82.8812 46.2144C82.9025 46.2793 82.8979 46.35 82.8683 46.4115C82.8387 46.473 82.7864 46.5207 82.7225 46.5444C82.6586 46.5681 82.588 46.5661 82.5255 46.5387L82.5064 46.53C82.0978 46.3289 81.6657 46.1799 81.2201 46.0866C80.7797 45.992 80.3276 45.9648 79.8791 46.006C78.989 46.0806 78.1345 46.3898 77.4021 46.9024L77.3787 46.9198C77.2936 46.9763 77.1899 46.9976 77.0895 46.9793C76.9891 46.961 76.8996 46.9044 76.8398 46.8215C76.78 46.7385 76.7545 46.6356 76.7687 46.5343C76.7829 46.433 76.8356 46.341 76.9159 46.2778L76.9285 46.2673Z" fill="#0C0C0C"/>
<path d="M69.083 48.1189C68.2159 47.9059 67.3079 47.9268 66.4514 48.1794C66.0184 48.3036 65.6066 48.4926 65.2299 48.74C64.8479 48.9884 64.4987 49.284 64.1904 49.6198L64.1765 49.6337C64.1283 49.6822 64.0631 49.71 63.9948 49.7112C63.9265 49.7125 63.8604 49.6871 63.8105 49.6404C63.7605 49.5937 63.7306 49.5294 63.7271 49.461C63.7235 49.3927 63.7466 49.3256 63.7915 49.274C64.1156 48.8866 64.4872 48.5419 64.8974 48.2478C65.3111 47.9491 65.7671 47.7141 66.2502 47.5509C67.2295 47.2134 68.2813 47.146 69.2955 47.3558C69.3981 47.3779 69.4877 47.4399 69.5446 47.5283C69.6015 47.6166 69.6211 47.724 69.5991 47.8268C69.577 47.9296 69.5151 48.0194 69.4269 48.0765C69.3388 48.1336 69.2317 48.1532 69.1291 48.1311L69.113 48.1271L69.083 48.1189Z" fill="#0C0C0C"/>
<path d="M74.8635 66.869C75.1535 66.8354 75.4402 66.7771 75.7204 66.6948C75.7522 66.6856 75.7819 66.6703 75.8078 66.6496C75.8337 66.6289 75.8553 66.6033 75.8713 66.5743C75.8873 66.5452 75.8975 66.5133 75.9012 66.4803C75.9049 66.4474 75.9021 66.414 75.8929 66.3821C75.8838 66.3502 75.8684 66.3204 75.8478 66.2945C75.8272 66.2685 75.8016 66.2469 75.7726 66.2309C75.7437 66.2148 75.7118 66.2046 75.6789 66.2009C75.646 66.1972 75.6127 66.2 75.5809 66.2092C73.8944 66.6957 72.9353 66.0511 72.8949 66.0232C72.8402 65.9847 72.7724 65.9695 72.7065 65.9811C72.6406 65.9926 72.582 66.03 72.5436 66.0848C72.5052 66.1397 72.49 66.2076 72.5016 66.2737C72.5131 66.3397 72.5503 66.3985 72.6051 66.437C73.2855 66.8382 74.0835 66.9909 74.8635 66.869Z" fill="#0C0C0C"/>
<path d="M52.2015 53.5737L52.1146 53.3297C63.2605 49.3191 60.535 38.3561 60.5063 38.2459L60.7561 38.1802C60.7853 38.2934 63.5751 49.4829 52.2015 53.5737Z" fill="#0C0C0C"/>
<path opacity="0.1" d="M68.0671 60.7566C69.354 60.6178 70.3149 59.7383 70.2133 58.7922C70.1117 57.846 68.9862 57.1915 67.6993 57.3303C66.4124 57.469 65.4515 58.3486 65.5531 59.2947C65.6547 60.2409 66.7802 60.8954 68.0671 60.7566Z" fill="#0C0C0C"/>
<path opacity="0.1" d="M81.6881 57.1371C81.7924 58.0818 82.9175 58.7356 84.2042 58.5984C84.4266 58.5744 84.6459 58.5273 84.8586 58.4577C84.9312 57.3335 84.9455 56.2516 84.926 55.2494C84.5702 55.1561 84.2001 55.1301 83.8348 55.1727C82.5477 55.3095 81.5873 56.1872 81.6881 57.1371Z" fill="#0C0C0C"/>
<path d="M106.575 120.475C105.988 127.388 103.132 170.517 102.568 179.032H24.5979C24.1586 171.352 22.3647 137.771 20.6982 122.753C19.1077 108.423 15.9868 101.247 18.2743 97.0115C22.0114 90.0861 32.2273 86.086 39.1923 85.1408C43.4458 84.5637 49.8428 84.1499 49.8428 84.1499C49.8428 84.1499 50.3847 95.1325 63.2996 95.7436C80.8812 96.575 79.707 84.1499 79.7944 84.1499C82.6424 84.1499 98.9147 85.957 102.894 88.3221C113.741 94.7583 107.822 105.824 106.575 120.475Z" fill="#2C47FA"/>
<path d="M155.055 125.303L147.855 160.375C147.709 161.087 147.324 161.728 146.763 162.19C146.203 162.651 145.502 162.907 144.777 162.913L95.2036 163.336C94.7307 163.34 94.263 163.238 93.8346 163.037C93.4062 162.837 93.028 162.542 92.7277 162.176C92.4273 161.81 92.2124 161.381 92.0987 160.921C91.985 160.461 91.9754 159.982 92.0705 159.517L99.2701 124.445C99.4165 123.733 99.8019 123.092 100.362 122.631C100.922 122.169 101.624 121.913 102.349 121.907L151.922 121.484C152.395 121.48 152.862 121.582 153.291 121.783C153.719 121.984 154.097 122.278 154.398 122.644C154.698 123.01 154.913 123.439 155.026 123.899C155.14 124.359 155.15 124.839 155.055 125.303Z" fill="#292A2E"/>
<path d="M108.829 150.216C108.856 150.677 108.715 151.133 108.433 151.499C108.15 151.865 107.745 152.116 107.292 152.207L105.767 152.544C105.794 152.553 105.819 152.568 105.838 152.589C105.858 152.61 105.873 152.635 105.88 152.663C105.884 152.696 105.877 152.728 105.86 152.756C106.227 152.86 106.552 153.075 106.791 153.372C107.03 153.669 107.171 154.034 107.194 154.415C107.196 154.86 107.049 155.292 106.776 155.642C106.503 155.992 106.12 156.239 105.689 156.344L92.8022 159.212C92.1434 159.36 91.4703 159.435 90.795 159.435C89.291 159.434 87.8095 159.068 86.4784 158.366C85.1473 157.664 84.0065 156.648 83.1543 155.406C82.2506 154.091 81.8942 152.476 82.1609 150.902C82.4276 149.329 83.2963 147.921 84.5822 146.98L95.5443 138.948C95.7854 138.771 96.066 138.655 96.3617 138.611L95.3526 143.522L95.6216 143.459L95.6786 143.449L104.085 141.732C105.021 141.525 106.305 141.867 106.47 142.935C106.559 143.344 106.507 143.771 106.323 144.147C106.139 144.523 105.833 144.825 105.456 145.004C105.461 145.009 105.472 145.015 105.472 145.025C105.472 145.036 105.466 145.041 105.466 145.051L106.92 144.729C107.186 144.67 107.462 144.671 107.727 144.732C107.993 144.792 108.242 144.911 108.456 145.08C108.67 145.248 108.845 145.463 108.966 145.707C109.088 145.951 109.154 146.219 109.16 146.492C109.16 146.928 109.01 147.351 108.734 147.688C108.459 148.025 108.076 148.257 107.65 148.344L107.023 148.483C107.019 148.504 107.023 148.527 107.013 148.54C107.47 148.544 107.908 148.717 108.244 149.027C108.579 149.337 108.788 149.76 108.829 150.216Z" fill="#E98862"/>
<g opacity="0.25">
<path opacity="0.25" d="M97.0978 146.753C97.1074 146.797 97.1337 146.835 97.1711 146.859C97.2085 146.884 97.2539 146.892 97.2977 146.884L105.341 145.229C105.385 145.219 105.424 145.193 105.449 145.155C105.474 145.118 105.482 145.072 105.473 145.027C105.464 144.983 105.438 144.944 105.4 144.919C105.363 144.895 105.317 144.886 105.273 144.895L97.229 146.55C97.1852 146.559 97.1469 146.586 97.1225 146.623C97.0981 146.661 97.0895 146.707 97.0987 146.751L97.0978 146.753Z" fill="#0C0C0C"/>
</g>
<g opacity="0.25">
<path opacity="0.25" d="M97.7275 150.329C97.7375 150.372 97.764 150.41 97.8013 150.434C97.8387 150.458 97.8839 150.466 97.9274 150.457L106.904 148.612C106.948 148.603 106.986 148.576 107.01 148.539C107.035 148.501 107.043 148.455 107.034 148.411C107.024 148.368 106.997 148.33 106.96 148.306C106.923 148.281 106.877 148.272 106.834 148.281L97.857 150.126C97.8132 150.135 97.775 150.162 97.7506 150.199C97.7262 150.237 97.7176 150.283 97.7266 150.327L97.7275 150.329Z" fill="#0C0C0C"/>
</g>
<g opacity="0.25">
<path opacity="0.25" d="M98.3871 154.206C98.3966 154.25 98.4229 154.288 98.4603 154.312C98.4977 154.337 98.5432 154.345 98.587 154.336L105.747 152.865C105.769 152.86 105.79 152.852 105.809 152.839C105.828 152.827 105.844 152.811 105.857 152.792C105.869 152.773 105.878 152.752 105.882 152.73C105.886 152.708 105.886 152.685 105.882 152.663C105.877 152.641 105.868 152.62 105.856 152.601C105.843 152.583 105.827 152.567 105.808 152.555C105.789 152.542 105.768 152.534 105.746 152.53C105.724 152.526 105.701 152.526 105.679 152.531L98.5183 154.003C98.4745 154.012 98.4362 154.039 98.4118 154.077C98.3874 154.114 98.3788 154.16 98.388 154.204L98.3871 154.206Z" fill="#0C0C0C"/>
</g>
<path d="M92.0044 164.322L22.0909 176.986C19.9093 177.224 17.7024 176.952 15.6432 176.191C13.5841 175.431 11.7288 174.202 10.2229 172.602C8.71699 171.002 7.60147 169.074 6.96384 166.97C6.32621 164.865 6.18383 162.641 6.54785 160.472L16.3357 102.161C16.9609 98.4373 19.0361 95.1155 22.1048 92.9259C23.6243 91.8417 25.3419 91.0681 27.1597 90.6492C28.9775 90.2304 30.8597 90.1745 32.699 90.4848C34.5383 90.7951 36.2987 91.4654 37.8795 92.4576C39.4603 93.4497 40.8307 94.7442 41.9124 96.2672C42.9941 97.7902 43.7659 99.5118 44.1838 101.334C44.6017 103.156 44.6574 105.042 44.3479 106.886L37.6757 147.025L88.9326 140.573L92.0044 164.322Z" fill="#2C47FA"/>
<path d="M22.0905 177.245C22.0286 177.24 21.9703 177.214 21.9262 177.17C21.882 177.126 21.8549 177.068 21.8496 177.006C21.8444 176.944 21.8614 176.883 21.8976 176.832C21.9338 176.781 21.9868 176.745 22.0471 176.731L91.7181 164.111L88.7092 140.863L37.7062 147.283C37.6664 147.288 37.626 147.283 37.5883 147.27C37.5505 147.256 37.5165 147.234 37.4889 147.205C37.4609 147.176 37.4401 147.141 37.4282 147.102C37.4162 147.064 37.4135 147.023 37.4202 146.983L41.6628 121.329C41.668 121.295 41.6799 121.262 41.6977 121.233C41.7156 121.204 41.7391 121.179 41.7668 121.159C41.7946 121.139 41.826 121.125 41.8592 121.118C41.8925 121.11 41.9269 121.11 41.9604 121.116C41.994 121.121 42.0261 121.133 42.0549 121.151C42.0838 121.169 42.1088 121.193 42.1285 121.221C42.1482 121.248 42.1623 121.28 42.17 121.313C42.1776 121.346 42.1786 121.38 42.1729 121.414L37.9869 146.726L88.8995 140.317C88.9674 140.309 89.0356 140.328 89.0897 140.369C89.1437 140.411 89.1792 140.473 89.1885 140.541L92.2621 164.29C92.2701 164.356 92.2528 164.422 92.2138 164.476C92.1747 164.529 92.1168 164.566 92.0518 164.578L22.137 177.241C22.1216 177.244 22.1061 177.245 22.0905 177.245Z" fill="#0C0C0C"/>
<path d="M37.6339 146.77L33.1366 147.492L33.2184 148.004L37.7157 147.282L37.6339 146.77Z" fill="#0C0C0C"/>
<path d="M274.603 39.5866C274.609 34.3133 273.562 29.0921 271.525 24.2303C269.488 19.3684 266.501 14.9641 262.74 11.2764C258.98 7.58879 254.521 4.69237 249.627 2.75761C244.733 0.822853 239.502 -0.111163 234.242 0.0105315C212.89 0.491822 195.642 18.2499 195.703 39.6576C195.713 45.1835 196.882 50.6456 199.134 55.6894C201.387 60.7332 204.672 65.2461 208.776 68.9353C217.608 76.8977 222.851 88.0967 222.837 100.003V100.047L247.329 100.075V100.031C247.342 88.1407 252.584 76.9469 261.431 69.0224C265.574 65.3244 268.889 60.7899 271.159 55.7168C273.429 50.6437 274.602 45.1466 274.603 39.5866Z" fill="#0CBC8B"/>
<path d="M246.956 43.5121C246.551 42.9895 245.846 42.6645 244.863 42.5539C243.196 42.367 241.292 43.3135 239.657 45.1577L239.499 45.3319L239.375 45.1341C239.156 44.7776 238.906 44.4408 238.628 44.1276C237.451 42.8061 235.33 41.4567 231.893 42.5199C230.738 42.857 229.676 43.4553 228.788 44.2687L228.668 44.3819L228.548 44.2687C228.273 44.0178 227.974 43.7942 227.656 43.601C225.725 42.4211 223.571 42.7037 222.106 43.1489C221.699 43.2732 221.352 43.5422 221.129 43.9052C220.906 44.2683 220.824 44.7004 220.897 45.1202L230.497 100.114C230.513 100.206 230.565 100.289 230.641 100.343C230.718 100.397 230.812 100.418 230.904 100.402C230.997 100.386 231.079 100.334 231.133 100.258C231.187 100.181 231.208 100.086 231.192 99.9939L221.59 45.0017C221.546 44.7516 221.595 44.4938 221.727 44.2772C221.86 44.0605 222.067 43.8999 222.309 43.8257C223.638 43.4233 225.579 43.1615 227.289 44.2073C227.57 44.3773 227.833 44.5749 228.075 44.797L228.195 44.9068L228.096 45.034C227.278 46.1157 226.822 47.4286 226.792 48.7854C226.701 51.0886 227.698 53.3919 229.016 53.9145C229.27 54.019 229.548 54.0515 229.82 54.0086C230.091 53.9657 230.346 53.8489 230.556 53.6711C231.004 53.3035 231.686 52.3322 231.247 49.9619C230.856 47.8742 230.183 46.2161 229.241 45.0235L229.139 44.8963L229.259 44.7831C230.072 44.0423 231.044 43.4995 232.1 43.1968C234.535 42.4446 236.611 42.925 238.099 44.5993C238.432 44.9766 238.723 45.3902 238.965 45.8323L239.021 45.9312L238.955 46.0231C238.824 46.1973 238.697 46.3764 238.574 46.5602C237.15 48.6796 236.015 51.6962 236.89 53.3143C237.062 53.628 237.321 53.8852 237.635 54.0552C237.949 54.2251 238.306 54.3006 238.662 54.2726H238.694C239.42 54.2621 240.03 53.7782 240.407 52.9162C241.146 51.2311 240.928 48.3734 239.896 46.1163L239.85 46.0175L239.921 45.9325C241.348 44.2016 242.969 43.2373 244.421 43.2373C244.544 43.2373 244.664 43.2443 244.784 43.2547C246.638 43.4668 246.609 44.4307 246.603 44.5405L238.764 100.017C238.758 100.063 238.76 100.11 238.772 100.155C238.783 100.2 238.804 100.242 238.832 100.279C238.859 100.316 238.894 100.347 238.934 100.371C238.974 100.394 239.018 100.41 239.064 100.416C239.156 100.426 239.248 100.4 239.322 100.345C239.396 100.289 239.446 100.207 239.462 100.116L247.297 44.6485C247.335 44.2398 247.213 43.8323 246.956 43.5121ZM230.552 50.089C230.94 52.1767 230.373 52.908 230.108 53.1236C229.962 53.2499 229.776 53.32 229.583 53.3213C229.478 53.32 229.374 53.2997 229.277 53.2612C228.368 52.8971 227.408 50.9828 227.495 48.8137C227.531 47.6744 227.891 46.5689 228.531 45.6272L228.669 45.4295L228.817 45.6237C229.721 46.9635 230.314 48.4893 230.552 50.089ZM239.762 52.6323C239.494 53.242 239.131 53.5578 238.683 53.5648H238.616C238.395 53.5891 238.171 53.5463 237.973 53.4418C237.776 53.3373 237.615 53.1759 237.51 52.9785C236.901 51.8483 237.608 49.2589 239.161 46.9556L239.351 46.673L239.492 46.9626C240.245 48.937 240.357 51.2685 239.762 52.6318V52.6323Z" fill="white"/>
<path d="M222.853 100.012L247.344 100.036L247.343 101.471C247.339 104.726 246.046 107.847 243.747 110.146C241.449 112.446 238.333 113.736 235.085 113.733C231.837 113.73 228.724 112.433 226.429 110.129C224.135 107.825 222.848 104.702 222.851 101.446L222.853 100.012Z" fill="#262626"/>
</g>
<defs>
<clipPath id="clip0_2_985">
<rect width="431" height="409" fill="white"/>
</clipPath>
</defs>
</svg>
