<svg width="43" height="31" viewBox="0 0 43 31" fill="none" xmlns="http://www.w3.org/2000/svg">
<mask id="mask0_2_243" style="mask-type:alpha" maskUnits="userSpaceOnUse" x="0" y="0" width="43" height="31">
<path d="M19.4857 8.87395C19.4857 12.7962 16.3149 15.9731 12.4 15.9731C8.48514 15.9731 5.31429 12.7962 5.31429 8.87395C5.31429 4.95166 8.48514 1.77479 12.4 1.77479C16.3149 1.77479 19.4857 4.95166 19.4857 8.87395ZM19.4857 20.8005V30.1714H0V26.6218C0 22.6996 5.54457 19.5227 12.4 19.5227C15.0571 19.5227 17.484 20.0019 19.4857 20.8005ZM42.5143 30.1714H23.0286V0H42.5143V30.1714ZM28.3429 15.0857C28.3429 13.909 28.8094 12.7804 29.64 11.9483C30.4705 11.1162 31.5969 10.6487 32.7714 10.6487C33.946 10.6487 35.0724 11.1162 35.9029 11.9483C36.7334 12.7804 37.2 13.909 37.2 15.0857C37.2 16.2625 36.7334 17.391 35.9029 18.2231C35.0724 19.0552 33.946 19.5227 32.7714 19.5227C31.5969 19.5227 30.4705 19.0552 29.64 18.2231C28.8094 17.391 28.3429 16.2625 28.3429 15.0857ZM38.9714 7.09916C38.0318 7.09916 37.1307 6.72519 36.4662 6.05951C35.8018 5.39384 35.4286 4.49099 35.4286 3.54958H30.1143C30.1143 5.5196 28.5377 7.09916 26.5714 7.09916V23.0723C27.5111 23.0723 28.4122 23.4462 29.0766 24.1119C29.741 24.7776 30.1143 25.6804 30.1143 26.6218H35.4286C35.4286 24.6696 37.0229 23.0723 38.9714 23.0723V7.09916Z" fill="white"/>
</mask>
<g mask="url(#mask0_2_243)">
<rect x="-8.22858" y="-9.59998" width="60.3429" height="48" fill="#2C47FA"/>
</g>
</svg>
