<svg width="514" height="327" viewBox="0 0 514 327" fill="none" xmlns="http://www.w3.org/2000/svg">
<g clip-path="url(#clip0_2_668)">
<path opacity="0.1" d="M459.301 324.199C507.316 324.199 521.944 284.586 508.111 236.075C500.288 208.64 482.198 172.764 452.643 156.528C371.766 112.098 382.665 109.965 362.644 62.6744C329.96 -14.5244 204.284 -17.5034 152.931 37.8154C112.975 80.8578 95.8767 141.536 41.4393 186.243C-24.2698 240.208 -6.34763 324.98 56.7702 324.98L459.301 324.199Z" fill="#2C47FA"/>
<path d="M513.068 277.414H6.62891L35.7752 214.657H483.922L513.068 277.414Z" fill="#292A2E"/>
<path d="M513.068 277.414H6.62891L35.7752 214.657H483.922L513.068 277.414Z" fill="white"/>
<path d="M513.068 277.967H6.63172C6.53856 277.967 6.44688 277.944 6.36521 277.899C6.28353 277.854 6.21451 277.789 6.16455 277.711C6.1146 277.632 6.08533 277.542 6.07946 277.449C6.0736 277.356 6.09134 277.263 6.13102 277.179L35.2751 214.422C35.3197 214.327 35.3905 214.247 35.479 214.191C35.5676 214.134 35.6704 214.105 35.7753 214.104H483.921C484.026 214.104 484.129 214.134 484.218 214.191C484.307 214.247 484.377 214.327 484.422 214.422L513.57 277.179C513.61 277.263 513.627 277.356 513.622 277.448C513.616 277.541 513.587 277.631 513.537 277.709C513.488 277.788 513.419 277.853 513.338 277.898C513.257 277.943 513.166 277.967 513.073 277.967H513.068ZM7.49881 276.862H512.198L483.571 215.21H36.1268L7.49881 276.862Z" fill="#292A2E"/>
<path d="M294.871 193.646H245.826V230.734H294.871V193.646Z" fill="#292A2E"/>
<path opacity="0.64" d="M294.871 193.647H245.826V213.46H294.871V193.647Z" fill="#0C0C0C"/>
<path d="M374.515 46.5029H166.183C162.906 46.5029 160.25 49.16 160.25 52.4377V197.872C160.25 201.15 162.906 203.807 166.183 203.807H374.515C377.792 203.807 380.448 201.15 380.448 197.872V52.4377C380.448 49.16 377.792 46.5029 374.515 46.5029Z" fill="#292A2E"/>
<path d="M371.586 53.2441H169.112C167.767 53.2441 166.676 54.3348 166.676 55.6803V176.297C166.676 177.643 167.767 178.733 169.112 178.733H371.586C372.931 178.733 374.021 177.643 374.021 176.297V55.6803C374.021 54.3348 372.931 53.2441 371.586 53.2441Z" fill="white"/>
<path d="M305.075 227.686H235.623C233.845 227.686 232.404 229.127 232.404 230.905C232.404 232.683 233.845 234.124 235.623 234.124H305.075C306.852 234.124 308.293 232.683 308.293 230.905C308.293 229.127 306.852 227.686 305.075 227.686Z" fill="#292A2E"/>
<path d="M235.999 73.2887H226.778C226.723 73.2907 226.668 73.2816 226.616 73.2619C226.565 73.2423 226.518 73.2125 226.478 73.1743C226.439 73.136 226.407 73.0902 226.386 73.0396C226.364 72.9889 226.353 72.9344 226.353 72.8793C226.353 72.8243 226.364 72.7698 226.386 72.7191C226.407 72.6684 226.439 72.6226 226.478 72.5844C226.518 72.5462 226.565 72.5164 226.616 72.4967C226.668 72.4771 226.723 72.468 226.778 72.47H235.999C236.104 72.4739 236.205 72.5187 236.278 72.5951C236.352 72.6714 236.393 72.7733 236.393 72.8793C236.393 72.9854 236.352 73.0873 236.278 73.1636C236.205 73.24 236.104 73.2848 235.999 73.2887Z" fill="#292A2E"/>
<path d="M220.128 73.2887H216.639C216.584 73.2907 216.529 73.2816 216.478 73.2619C216.426 73.2423 216.379 73.2125 216.34 73.1743C216.3 73.136 216.269 73.0902 216.247 73.0396C216.225 72.9889 216.214 72.9344 216.214 72.8793C216.214 72.8243 216.225 72.7698 216.247 72.7191C216.269 72.6684 216.3 72.6226 216.34 72.5844C216.379 72.5462 216.426 72.5164 216.478 72.4967C216.529 72.4771 216.584 72.468 216.639 72.47H220.128C220.183 72.468 220.238 72.4771 220.289 72.4967C220.34 72.5164 220.387 72.5462 220.427 72.5844C220.467 72.6226 220.498 72.6684 220.52 72.7191C220.541 72.7698 220.552 72.8243 220.552 72.8793C220.552 72.9344 220.541 72.9889 220.52 73.0396C220.498 73.0902 220.467 73.136 220.427 73.1743C220.387 73.2125 220.34 73.2423 220.289 73.2619C220.238 73.2816 220.183 73.2907 220.128 73.2887Z" fill="#2C47FA"/>
<path d="M220.128 80.6767H216.639C216.53 80.6767 216.426 80.6335 216.349 80.5567C216.273 80.4799 216.229 80.3757 216.229 80.267C216.229 80.1584 216.273 80.0542 216.349 79.9774C216.426 79.9006 216.53 79.8574 216.639 79.8574H220.128C220.236 79.8574 220.34 79.9006 220.417 79.9774C220.494 80.0542 220.537 80.1584 220.537 80.267C220.537 80.3757 220.494 80.4799 220.417 80.5567C220.34 80.6335 220.236 80.6767 220.128 80.6767Z" fill="#2C47FA"/>
<path d="M220.128 88.0648H216.639C216.53 88.0648 216.426 88.0217 216.349 87.9449C216.273 87.8681 216.229 87.7639 216.229 87.6552C216.229 87.5466 216.273 87.4424 216.349 87.3656C216.426 87.2888 216.53 87.2456 216.639 87.2456H220.128C220.236 87.2456 220.34 87.2888 220.417 87.3656C220.494 87.4424 220.537 87.5466 220.537 87.6552C220.537 87.7639 220.494 87.8681 220.417 87.9449C220.34 88.0217 220.236 88.0648 220.128 88.0648Z" fill="#2C47FA"/>
<path d="M220.128 95.4528H216.639C216.53 95.4528 216.426 95.4096 216.349 95.3328C216.273 95.256 216.229 95.1518 216.229 95.0432C216.229 94.9345 216.273 94.8303 216.349 94.7535C216.426 94.6767 216.53 94.6335 216.639 94.6335H220.128C220.236 94.6335 220.34 94.6767 220.417 94.7535C220.494 94.8303 220.537 94.9345 220.537 95.0432C220.537 95.1518 220.494 95.256 220.417 95.3328C220.34 95.4096 220.236 95.4528 220.128 95.4528Z" fill="#2C47FA"/>
<path d="M220.128 102.84H216.639C216.584 102.842 216.529 102.833 216.478 102.813C216.426 102.794 216.379 102.764 216.34 102.726C216.3 102.688 216.269 102.642 216.247 102.591C216.225 102.54 216.214 102.486 216.214 102.431C216.214 102.376 216.225 102.321 216.247 102.271C216.269 102.22 216.3 102.174 216.34 102.136C216.379 102.098 216.426 102.068 216.478 102.048C216.529 102.029 216.584 102.019 216.639 102.022H220.128C220.183 102.019 220.238 102.029 220.289 102.048C220.34 102.068 220.387 102.098 220.427 102.136C220.467 102.174 220.498 102.22 220.52 102.271C220.541 102.321 220.552 102.376 220.552 102.431C220.552 102.486 220.541 102.54 220.52 102.591C220.498 102.642 220.467 102.688 220.427 102.726C220.387 102.764 220.34 102.794 220.289 102.813C220.238 102.833 220.183 102.842 220.128 102.84Z" fill="#2C47FA"/>
<path d="M220.128 110.226H216.639C216.53 110.226 216.426 110.183 216.349 110.106C216.273 110.029 216.229 109.925 216.229 109.816C216.229 109.708 216.273 109.604 216.349 109.527C216.426 109.45 216.53 109.407 216.639 109.407H220.128C220.236 109.407 220.34 109.45 220.417 109.527C220.494 109.604 220.537 109.708 220.537 109.816C220.537 109.925 220.494 110.029 220.417 110.106C220.34 110.183 220.236 110.226 220.128 110.226Z" fill="#2C47FA"/>
<path d="M220.128 117.616H216.639C216.53 117.616 216.426 117.573 216.349 117.496C216.273 117.42 216.229 117.315 216.229 117.207C216.229 117.098 216.273 116.994 216.349 116.917C216.426 116.84 216.53 116.797 216.639 116.797H220.128C220.236 116.797 220.34 116.84 220.417 116.917C220.494 116.994 220.537 117.098 220.537 117.207C220.537 117.315 220.494 117.42 220.417 117.496C220.34 117.573 220.236 117.616 220.128 117.616Z" fill="#2C47FA"/>
<path d="M220.128 125.004H216.639C216.584 125.006 216.529 124.997 216.478 124.977C216.426 124.957 216.379 124.928 216.34 124.889C216.3 124.851 216.269 124.805 216.247 124.755C216.225 124.704 216.214 124.649 216.214 124.594C216.214 124.539 216.225 124.485 216.247 124.434C216.269 124.384 216.3 124.338 216.34 124.3C216.379 124.261 216.426 124.231 216.478 124.212C216.529 124.192 216.584 124.183 216.639 124.185H220.128C220.183 124.183 220.238 124.192 220.289 124.212C220.34 124.231 220.387 124.261 220.427 124.3C220.467 124.338 220.498 124.384 220.52 124.434C220.541 124.485 220.552 124.539 220.552 124.594C220.552 124.649 220.541 124.704 220.52 124.755C220.498 124.805 220.467 124.851 220.427 124.889C220.387 124.928 220.34 124.957 220.289 124.977C220.238 124.997 220.183 125.006 220.128 125.004Z" fill="#2C47FA"/>
<path d="M220.128 132.393H216.639C216.53 132.393 216.426 132.35 216.349 132.273C216.273 132.196 216.229 132.092 216.229 131.983C216.229 131.875 216.273 131.771 216.349 131.694C216.426 131.617 216.53 131.574 216.639 131.574H220.128C220.236 131.574 220.34 131.617 220.417 131.694C220.494 131.771 220.537 131.875 220.537 131.983C220.537 132.092 220.494 132.196 220.417 132.273C220.34 132.35 220.236 132.393 220.128 132.393Z" fill="#2C47FA"/>
<path d="M220.128 139.78H216.639C216.53 139.78 216.426 139.737 216.349 139.66C216.273 139.583 216.229 139.479 216.229 139.37C216.229 139.262 216.273 139.157 216.349 139.081C216.426 139.004 216.53 138.961 216.639 138.961H220.128C220.236 138.961 220.34 139.004 220.417 139.081C220.494 139.157 220.537 139.262 220.537 139.37C220.537 139.479 220.494 139.583 220.417 139.66C220.34 139.737 220.236 139.78 220.128 139.78Z" fill="#2C47FA"/>
<path d="M220.128 147.167H216.639C216.584 147.169 216.529 147.16 216.478 147.141C216.426 147.121 216.379 147.091 216.34 147.053C216.3 147.015 216.269 146.969 216.247 146.918C216.225 146.868 216.214 146.813 216.214 146.758C216.214 146.703 216.225 146.648 216.247 146.598C216.269 146.547 216.3 146.501 216.34 146.463C216.379 146.425 216.426 146.395 216.478 146.375C216.529 146.356 216.584 146.347 216.639 146.349H220.128C220.183 146.347 220.238 146.356 220.289 146.375C220.34 146.395 220.387 146.425 220.427 146.463C220.467 146.501 220.498 146.547 220.52 146.598C220.541 146.648 220.552 146.703 220.552 146.758C220.552 146.813 220.541 146.868 220.52 146.918C220.498 146.969 220.467 147.015 220.427 147.053C220.387 147.091 220.34 147.121 220.289 147.141C220.238 147.16 220.183 147.169 220.128 147.167Z" fill="#2C47FA"/>
<path d="M220.128 154.555H216.639C216.53 154.555 216.426 154.512 216.349 154.435C216.273 154.359 216.229 154.254 216.229 154.146C216.229 154.037 216.273 153.933 216.349 153.856C216.426 153.779 216.53 153.736 216.639 153.736H220.128C220.236 153.736 220.34 153.779 220.417 153.856C220.494 153.933 220.537 154.037 220.537 154.146C220.537 154.254 220.494 154.359 220.417 154.435C220.34 154.512 220.236 154.555 220.128 154.555Z" fill="#2C47FA"/>
<path d="M220.128 161.944H216.639C216.53 161.944 216.426 161.9 216.349 161.824C216.273 161.747 216.229 161.643 216.229 161.534C216.229 161.425 216.273 161.321 216.349 161.244C216.426 161.167 216.53 161.124 216.639 161.124H220.128C220.236 161.124 220.34 161.167 220.417 161.244C220.494 161.321 220.537 161.425 220.537 161.534C220.537 161.643 220.494 161.747 220.417 161.824C220.34 161.9 220.236 161.944 220.128 161.944Z" fill="#2C47FA"/>
<path d="M220.128 169.331H216.639C216.584 169.333 216.529 169.324 216.478 169.304C216.426 169.285 216.379 169.255 216.34 169.217C216.3 169.178 216.269 169.132 216.247 169.082C216.225 169.031 216.214 168.977 216.214 168.922C216.214 168.867 216.225 168.812 216.247 168.761C216.269 168.711 216.3 168.665 216.34 168.627C216.379 168.588 216.426 168.559 216.478 168.539C216.529 168.519 216.584 168.51 216.639 168.512H220.128C220.183 168.51 220.238 168.519 220.289 168.539C220.34 168.559 220.387 168.588 220.427 168.627C220.467 168.665 220.498 168.711 220.52 168.761C220.541 168.812 220.552 168.867 220.552 168.922C220.552 168.977 220.541 169.031 220.52 169.082C220.498 169.132 220.467 169.178 220.427 169.217C220.387 169.255 220.34 169.285 220.289 169.304C220.238 169.324 220.183 169.333 220.128 169.331Z" fill="#2C47FA"/>
<path d="M243.367 80.6769H234.967C234.912 80.6789 234.857 80.6698 234.806 80.6501C234.755 80.6305 234.708 80.6007 234.668 80.5624C234.628 80.5242 234.597 80.4784 234.575 80.4277C234.554 80.3771 234.543 80.3226 234.543 80.2675C234.543 80.2125 234.554 80.158 234.575 80.1073C234.597 80.0566 234.628 80.0108 234.668 79.9726C234.708 79.9344 234.755 79.9046 234.806 79.8849C234.857 79.8653 234.912 79.8562 234.967 79.8582H243.367C243.422 79.8562 243.477 79.8653 243.529 79.8849C243.58 79.9046 243.627 79.9344 243.667 79.9726C243.706 80.0108 243.738 80.0566 243.759 80.1073C243.781 80.158 243.792 80.2125 243.792 80.2675C243.792 80.3226 243.781 80.3771 243.759 80.4277C243.738 80.4784 243.706 80.5242 243.667 80.5624C243.627 80.6007 243.58 80.6305 243.529 80.6501C243.477 80.6698 243.422 80.6789 243.367 80.6769Z" fill="#292A2E"/>
<path d="M235.999 125.004H226.778C226.723 125.006 226.668 124.997 226.616 124.977C226.565 124.958 226.518 124.928 226.478 124.89C226.439 124.851 226.407 124.806 226.386 124.755C226.364 124.704 226.353 124.65 226.353 124.595C226.353 124.54 226.364 124.485 226.386 124.434C226.407 124.384 226.439 124.338 226.478 124.3C226.518 124.262 226.565 124.232 226.616 124.212C226.668 124.192 226.723 124.183 226.778 124.185H235.999C236.104 124.189 236.205 124.234 236.278 124.31C236.352 124.387 236.393 124.489 236.393 124.595C236.393 124.701 236.352 124.803 236.278 124.879C236.205 124.955 236.104 125 235.999 125.004Z" fill="#292A2E"/>
<path d="M243.367 132.393H234.967C234.859 132.393 234.754 132.35 234.678 132.273C234.601 132.196 234.558 132.092 234.558 131.983C234.558 131.875 234.601 131.771 234.678 131.694C234.754 131.617 234.859 131.574 234.967 131.574H243.367C243.476 131.574 243.58 131.617 243.657 131.694C243.734 131.771 243.777 131.875 243.777 131.983C243.777 132.092 243.734 132.196 243.657 132.273C243.58 132.35 243.476 132.393 243.367 132.393Z" fill="#292A2E"/>
<path d="M301.913 88.0648H240.698C240.589 88.0648 240.485 88.0217 240.408 87.9449C240.331 87.8681 240.288 87.7639 240.288 87.6552C240.288 87.5466 240.331 87.4424 240.408 87.3656C240.485 87.2888 240.589 87.2456 240.698 87.2456H301.913C302.021 87.2456 302.125 87.2888 302.202 87.3656C302.279 87.4424 302.322 87.5466 302.322 87.6552C302.322 87.7639 302.279 87.8681 302.202 87.9449C302.125 88.0217 302.021 88.0648 301.913 88.0648Z" fill="#292A2E"/>
<path d="M346.2 88.0648H310.776C310.667 88.0648 310.563 88.0217 310.486 87.9449C310.409 87.8681 310.366 87.7639 310.366 87.6552C310.366 87.5466 310.409 87.4424 310.486 87.3656C310.563 87.2888 310.667 87.2456 310.776 87.2456H346.2C346.309 87.2456 346.413 87.2888 346.49 87.3656C346.567 87.4424 346.61 87.5466 346.61 87.6552C346.61 87.7639 346.567 87.8681 346.49 87.9449C346.413 88.0217 346.309 88.0648 346.2 88.0648Z" fill="#0CBC8B"/>
<path d="M365.211 88.0648H354.354C354.245 88.0648 354.141 88.0217 354.064 87.9449C353.988 87.8681 353.944 87.7639 353.944 87.6552C353.944 87.5466 353.988 87.4424 354.064 87.3656C354.141 87.2888 354.245 87.2456 354.354 87.2456H365.212C365.32 87.2456 365.424 87.2888 365.501 87.3656C365.578 87.4424 365.621 87.5466 365.621 87.6552C365.621 87.7639 365.578 87.8681 365.501 87.9449C365.424 88.0217 365.32 88.0648 365.212 88.0648H365.211Z" fill="#292A2E"/>
<path d="M326.477 102.84H240.698C240.643 102.842 240.588 102.833 240.536 102.814C240.485 102.794 240.438 102.764 240.398 102.726C240.359 102.688 240.327 102.642 240.306 102.591C240.284 102.541 240.273 102.486 240.273 102.431C240.273 102.376 240.284 102.322 240.306 102.271C240.327 102.22 240.359 102.174 240.398 102.136C240.438 102.098 240.485 102.068 240.536 102.048C240.588 102.029 240.643 102.02 240.698 102.022H326.477C326.532 102.02 326.587 102.029 326.638 102.048C326.69 102.068 326.737 102.098 326.776 102.136C326.816 102.174 326.847 102.22 326.869 102.271C326.89 102.322 326.902 102.376 326.902 102.431C326.902 102.486 326.89 102.541 326.869 102.591C326.847 102.642 326.816 102.688 326.776 102.726C326.737 102.764 326.69 102.794 326.638 102.814C326.587 102.833 326.532 102.842 326.477 102.84Z" fill="#292A2E"/>
<path d="M346.2 102.84H335.343C335.288 102.842 335.233 102.833 335.182 102.814C335.13 102.794 335.083 102.764 335.044 102.726C335.004 102.688 334.973 102.642 334.951 102.591C334.93 102.541 334.919 102.486 334.919 102.431C334.919 102.376 334.93 102.322 334.951 102.271C334.973 102.22 335.004 102.174 335.044 102.136C335.083 102.098 335.13 102.068 335.182 102.048C335.233 102.029 335.288 102.02 335.343 102.022H346.201C346.256 102.02 346.311 102.029 346.363 102.048C346.414 102.068 346.461 102.098 346.501 102.136C346.54 102.174 346.572 102.22 346.593 102.271C346.615 102.322 346.626 102.376 346.626 102.431C346.626 102.486 346.615 102.541 346.593 102.591C346.572 102.642 346.54 102.688 346.501 102.726C346.461 102.764 346.414 102.794 346.363 102.814C346.311 102.833 346.256 102.842 346.201 102.84H346.2Z" fill="#2C47FA"/>
<path d="M249.918 95.4528H240.698C240.589 95.4528 240.485 95.4096 240.408 95.3328C240.331 95.256 240.288 95.1518 240.288 95.0432C240.288 94.9345 240.331 94.8303 240.408 94.7535C240.485 94.6767 240.589 94.6335 240.698 94.6335H249.918C250.027 94.6335 250.131 94.6767 250.208 94.7535C250.285 94.8303 250.328 94.9345 250.328 95.0432C250.328 95.1518 250.285 95.256 250.208 95.3328C250.131 95.4096 250.027 95.4528 249.918 95.4528Z" fill="#0CBC8B"/>
<path d="M321.638 95.4528H258.783C258.674 95.4528 258.57 95.4096 258.493 95.3328C258.416 95.256 258.373 95.1518 258.373 95.0432C258.373 94.9345 258.416 94.8303 258.493 94.7535C258.57 94.6767 258.674 94.6335 258.783 94.6335H321.638C321.746 94.6335 321.85 94.6767 321.927 94.7535C322.004 94.8303 322.047 94.9345 322.047 95.0432C322.047 95.1518 322.004 95.256 321.927 95.3328C321.85 95.4096 321.746 95.4528 321.638 95.4528Z" fill="#2C47FA"/>
<path d="M365.282 95.4528H331.497C331.388 95.4528 331.284 95.4096 331.207 95.3328C331.13 95.256 331.087 95.1518 331.087 95.0432C331.087 94.9345 331.13 94.8303 331.207 94.7535C331.284 94.6767 331.388 94.6335 331.497 94.6335H365.282C365.39 94.6335 365.495 94.6767 365.571 94.7535C365.648 94.8303 365.691 94.9345 365.691 95.0432C365.691 95.1518 365.648 95.256 365.571 95.3328C365.495 95.4096 365.39 95.4528 365.282 95.4528Z" fill="#292A2E"/>
<path d="M301.913 110.226H240.698C240.589 110.226 240.485 110.183 240.408 110.106C240.331 110.029 240.288 109.925 240.288 109.817C240.288 109.708 240.331 109.604 240.408 109.527C240.485 109.45 240.589 109.407 240.698 109.407H301.913C302.021 109.407 302.125 109.45 302.202 109.527C302.279 109.604 302.322 109.708 302.322 109.817C302.322 109.925 302.279 110.029 302.202 110.106C302.125 110.183 302.021 110.226 301.913 110.226Z" fill="#292A2E"/>
<path d="M329.824 110.226H310.777C310.668 110.226 310.564 110.183 310.487 110.106C310.411 110.029 310.367 109.925 310.367 109.817C310.367 109.708 310.411 109.604 310.487 109.527C310.564 109.45 310.668 109.407 310.777 109.407H329.824C329.932 109.407 330.037 109.45 330.113 109.527C330.19 109.604 330.233 109.708 330.233 109.817C330.233 109.925 330.19 110.029 330.113 110.106C330.037 110.183 329.932 110.226 329.824 110.226Z" fill="#0CBC8B"/>
<path d="M365.211 110.226H337.976C337.867 110.226 337.763 110.183 337.686 110.106C337.609 110.029 337.566 109.925 337.566 109.817C337.566 109.708 337.609 109.604 337.686 109.527C337.763 109.45 337.867 109.407 337.976 109.407H365.211C365.319 109.407 365.423 109.45 365.5 109.527C365.577 109.604 365.62 109.708 365.62 109.817C365.62 109.925 365.577 110.029 365.5 110.106C365.423 110.183 365.319 110.226 365.211 110.226Z" fill="#292A2E"/>
<path d="M249.918 117.616H240.698C240.589 117.616 240.485 117.573 240.408 117.496C240.331 117.42 240.288 117.315 240.288 117.207C240.288 117.098 240.331 116.994 240.408 116.917C240.485 116.84 240.589 116.797 240.698 116.797H249.918C250.027 116.797 250.131 116.84 250.208 116.917C250.285 116.994 250.328 117.098 250.328 117.207C250.328 117.315 250.285 117.42 250.208 117.496C250.131 117.573 250.027 117.616 249.918 117.616Z" fill="#2C47FA"/>
<path d="M321.638 117.616H258.783C258.674 117.616 258.57 117.573 258.493 117.496C258.416 117.42 258.373 117.315 258.373 117.207C258.373 117.098 258.416 116.994 258.493 116.917C258.57 116.84 258.674 116.797 258.783 116.797H321.638C321.746 116.797 321.85 116.84 321.927 116.917C322.004 116.994 322.047 117.098 322.047 117.207C322.047 117.315 322.004 117.42 321.927 117.496C321.85 117.573 321.746 117.616 321.638 117.616Z" fill="#0CBC8B"/>
<path d="M300.275 147.168H239.06C238.952 147.168 238.847 147.125 238.771 147.048C238.694 146.971 238.651 146.867 238.651 146.758C238.651 146.65 238.694 146.546 238.771 146.469C238.847 146.392 238.952 146.349 239.06 146.349H300.275C300.383 146.349 300.487 146.392 300.564 146.469C300.641 146.546 300.684 146.65 300.684 146.758C300.684 146.867 300.641 146.971 300.564 147.048C300.487 147.125 300.383 147.168 300.275 147.168Z" fill="#292A2E"/>
<path d="M344.563 147.168H309.138C309.03 147.168 308.926 147.125 308.849 147.048C308.772 146.971 308.729 146.867 308.729 146.758C308.729 146.65 308.772 146.546 308.849 146.469C308.926 146.392 309.03 146.349 309.138 146.349H344.563C344.671 146.349 344.776 146.392 344.852 146.469C344.929 146.546 344.972 146.65 344.972 146.758C344.972 146.867 344.929 146.971 344.852 147.048C344.776 147.125 344.671 147.168 344.563 147.168Z" fill="#2C47FA"/>
<path d="M264.66 139.78H239.06C238.952 139.78 238.847 139.737 238.771 139.66C238.694 139.583 238.651 139.479 238.651 139.37C238.651 139.262 238.694 139.157 238.771 139.081C238.847 139.004 238.952 138.961 239.06 138.961H264.66C264.769 138.961 264.873 139.004 264.95 139.081C265.027 139.157 265.07 139.262 265.07 139.37C265.07 139.479 265.027 139.583 264.95 139.66C264.873 139.737 264.769 139.78 264.66 139.78Z" fill="#0CBC8B"/>
<path d="M319.998 139.78H273.521C273.412 139.78 273.308 139.737 273.231 139.66C273.154 139.583 273.111 139.479 273.111 139.37C273.111 139.262 273.154 139.157 273.231 139.081C273.308 139.004 273.412 138.961 273.521 138.961H319.998C320.106 138.961 320.211 139.004 320.287 139.081C320.364 139.157 320.407 139.262 320.407 139.37C320.407 139.479 320.364 139.583 320.287 139.66C320.211 139.737 320.106 139.78 319.998 139.78Z" fill="#2C47FA"/>
<path d="M363.644 139.78H329.859C329.751 139.78 329.646 139.737 329.57 139.66C329.493 139.583 329.45 139.479 329.45 139.37C329.45 139.262 329.493 139.157 329.57 139.081C329.646 139.004 329.751 138.961 329.859 138.961H363.644C363.753 138.961 363.857 139.004 363.934 139.081C364.011 139.157 364.054 139.262 364.054 139.37C364.054 139.479 364.011 139.583 363.934 139.66C363.857 139.737 363.753 139.78 363.644 139.78Z" fill="#292A2E"/>
<path d="M324.84 161.944H239.06C238.952 161.944 238.847 161.9 238.771 161.824C238.694 161.747 238.651 161.643 238.651 161.534C238.651 161.425 238.694 161.321 238.771 161.244C238.847 161.167 238.952 161.124 239.06 161.124H324.84C324.948 161.124 325.052 161.167 325.129 161.244C325.206 161.321 325.249 161.425 325.249 161.534C325.249 161.643 325.206 161.747 325.129 161.824C325.052 161.9 324.948 161.944 324.84 161.944Z" fill="#2C47FA"/>
<path d="M350.089 161.944H333.704C333.596 161.944 333.492 161.9 333.415 161.824C333.338 161.747 333.295 161.643 333.295 161.534C333.295 161.425 333.338 161.321 333.415 161.244C333.492 161.167 333.596 161.124 333.704 161.124H350.089C350.198 161.124 350.302 161.167 350.379 161.244C350.456 161.321 350.499 161.425 350.499 161.534C350.499 161.643 350.456 161.747 350.379 161.824C350.302 161.9 350.198 161.944 350.089 161.944Z" fill="#292A2E"/>
<path d="M248.28 154.556H239.06C239.005 154.558 238.95 154.548 238.899 154.529C238.847 154.509 238.801 154.479 238.761 154.441C238.721 154.403 238.69 154.357 238.668 154.306C238.647 154.256 238.636 154.201 238.636 154.146C238.636 154.091 238.647 154.037 238.668 153.986C238.69 153.935 238.721 153.889 238.761 153.851C238.801 153.813 238.847 153.783 238.899 153.764C238.95 153.744 239.005 153.735 239.06 153.737H248.28C248.335 153.735 248.39 153.744 248.442 153.764C248.493 153.783 248.54 153.813 248.58 153.851C248.619 153.889 248.651 153.935 248.672 153.986C248.694 154.037 248.705 154.091 248.705 154.146C248.705 154.201 248.694 154.256 248.672 154.306C248.651 154.357 248.619 154.403 248.58 154.441C248.54 154.479 248.493 154.509 248.442 154.529C248.39 154.548 248.335 154.558 248.28 154.556Z" fill="#2C47FA"/>
<path d="M319.998 154.556H257.144C257.089 154.558 257.034 154.548 256.983 154.529C256.932 154.509 256.885 154.479 256.845 154.441C256.805 154.403 256.774 154.357 256.752 154.306C256.731 154.256 256.72 154.201 256.72 154.146C256.72 154.091 256.731 154.037 256.752 153.986C256.774 153.935 256.805 153.889 256.845 153.851C256.885 153.813 256.932 153.783 256.983 153.764C257.034 153.744 257.089 153.735 257.144 153.737H319.998C320.053 153.735 320.108 153.744 320.159 153.764C320.211 153.783 320.257 153.813 320.297 153.851C320.337 153.889 320.368 153.935 320.39 153.986C320.411 154.037 320.422 154.091 320.422 154.146C320.422 154.201 320.411 154.256 320.39 154.306C320.368 154.357 320.337 154.403 320.297 154.441C320.257 154.479 320.211 154.509 320.159 154.529C320.108 154.548 320.053 154.558 319.998 154.556Z" fill="#292A2E"/>
<path d="M363.644 154.556H329.859C329.804 154.558 329.749 154.548 329.698 154.529C329.647 154.509 329.6 154.479 329.56 154.441C329.52 154.403 329.489 154.357 329.467 154.306C329.446 154.256 329.435 154.201 329.435 154.146C329.435 154.091 329.446 154.037 329.467 153.986C329.489 153.935 329.52 153.889 329.56 153.851C329.6 153.813 329.647 153.783 329.698 153.764C329.749 153.744 329.804 153.735 329.859 153.737H363.644C363.699 153.735 363.754 153.744 363.806 153.764C363.857 153.783 363.904 153.813 363.944 153.851C363.983 153.889 364.015 153.935 364.036 153.986C364.058 154.037 364.069 154.091 364.069 154.146C364.069 154.201 364.058 154.256 364.036 154.306C364.015 154.357 363.983 154.403 363.944 154.441C363.904 154.479 363.857 154.509 363.806 154.529C363.754 154.548 363.699 154.558 363.644 154.556Z" fill="#0CBC8B"/>
<path d="M300.275 169.332H239.06C238.952 169.332 238.847 169.289 238.771 169.212C238.694 169.135 238.651 169.031 238.651 168.922C238.651 168.813 238.694 168.709 238.771 168.632C238.847 168.556 238.952 168.512 239.06 168.512H300.275C300.383 168.512 300.487 168.556 300.564 168.632C300.641 168.709 300.684 168.813 300.684 168.922C300.684 169.031 300.641 169.135 300.564 169.212C300.487 169.289 300.383 169.332 300.275 169.332Z" fill="#0CBC8B"/>
<path d="M328.186 169.332H309.14C309.031 169.332 308.927 169.289 308.85 169.212C308.773 169.135 308.73 169.031 308.73 168.922C308.73 168.813 308.773 168.709 308.85 168.632C308.927 168.556 309.031 168.512 309.14 168.512H328.186C328.295 168.512 328.399 168.556 328.476 168.632C328.553 168.709 328.596 168.813 328.596 168.922C328.596 169.031 328.553 169.135 328.476 169.212C328.399 169.289 328.295 169.332 328.186 169.332Z" fill="#292A2E"/>
<path d="M363.573 169.332H336.338C336.229 169.332 336.125 169.289 336.048 169.212C335.971 169.135 335.928 169.031 335.928 168.922C335.928 168.813 335.971 168.709 336.048 168.632C336.125 168.556 336.229 168.512 336.338 168.512H363.573C363.681 168.512 363.785 168.556 363.862 168.632C363.939 168.709 363.982 168.813 363.982 168.922C363.982 169.031 363.939 169.135 363.862 169.212C363.785 169.289 363.681 169.332 363.573 169.332H363.573Z" fill="#2C47FA"/>
<path d="M211.093 173.367C211.039 173.367 210.986 173.356 210.936 173.336C210.886 173.315 210.841 173.285 210.803 173.247C210.765 173.209 210.735 173.164 210.714 173.114C210.694 173.065 210.683 173.012 210.683 172.958V60.3933C210.683 60.2846 210.726 60.1804 210.803 60.1036C210.88 60.0268 210.984 59.9836 211.093 59.9836C211.201 59.9836 211.305 60.0268 211.382 60.1036C211.459 60.1804 211.502 60.2846 211.502 60.3933V172.958C211.502 173.012 211.492 173.065 211.471 173.114C211.45 173.164 211.42 173.209 211.382 173.247C211.344 173.285 211.299 173.315 211.249 173.336C211.2 173.356 211.146 173.367 211.093 173.367Z" fill="#292A2E"/>
<path d="M192.367 65.5082H174.635C174.526 65.5082 174.422 65.465 174.345 65.3882C174.268 65.3114 174.225 65.2072 174.225 65.0986C174.225 64.9899 174.268 64.8858 174.345 64.8089C174.422 64.7321 174.526 64.689 174.635 64.689H192.365C192.473 64.689 192.577 64.7321 192.654 64.8089C192.731 64.8858 192.774 64.9899 192.774 65.0986C192.774 65.2072 192.731 65.3114 192.654 65.3882C192.577 65.465 192.473 65.5082 192.365 65.5082H192.367Z" fill="#292A2E"/>
<path d="M187.026 73.5856H174.635C174.58 73.5876 174.525 73.5785 174.474 73.5588C174.422 73.5392 174.375 73.5093 174.336 73.4711C174.296 73.4329 174.264 73.3871 174.243 73.3364C174.221 73.2858 174.21 73.2313 174.21 73.1762C174.21 73.1212 174.221 73.0667 174.243 73.016C174.264 72.9653 174.296 72.9195 174.336 72.8813C174.375 72.8431 174.422 72.8133 174.474 72.7936C174.525 72.7739 174.58 72.7649 174.635 72.7669H187.024C187.13 72.7708 187.23 72.8156 187.304 72.8919C187.377 72.9683 187.418 73.0702 187.418 73.1762C187.418 73.2822 187.377 73.3841 187.304 73.4605C187.23 73.5368 187.13 73.5817 187.024 73.5856H187.026Z" fill="#292A2E"/>
<path d="M197.92 81.6635H174.635C174.526 81.6635 174.422 81.6203 174.345 81.5435C174.268 81.4667 174.225 81.3625 174.225 81.2538C174.225 81.1452 174.268 81.041 174.345 80.9642C174.422 80.8874 174.526 80.8442 174.635 80.8442H197.918C198.027 80.8442 198.131 80.8874 198.208 80.9642C198.285 81.041 198.328 81.1452 198.328 81.2538C198.328 81.3625 198.285 81.4667 198.208 81.5435C198.131 81.6203 198.027 81.6635 197.918 81.6635H197.92Z" fill="#292A2E"/>
<path d="M202.264 89.7408H182.826C182.771 89.7429 182.716 89.7338 182.664 89.7141C182.613 89.6945 182.566 89.6646 182.526 89.6264C182.487 89.5882 182.455 89.5424 182.434 89.4917C182.412 89.4411 182.401 89.3866 182.401 89.3315C182.401 89.2764 182.412 89.222 182.434 89.1713C182.455 89.1206 182.487 89.0748 182.526 89.0366C182.566 88.9984 182.613 88.9685 182.664 88.9489C182.716 88.9292 182.771 88.9201 182.826 88.9222H202.264C202.319 88.9201 202.373 88.9292 202.425 88.9489C202.476 88.9685 202.523 88.9984 202.563 89.0366C202.602 89.0748 202.634 89.1206 202.656 89.1713C202.677 89.222 202.688 89.2764 202.688 89.3315C202.688 89.3866 202.677 89.4411 202.656 89.4917C202.634 89.5424 202.602 89.5882 202.563 89.6264C202.523 89.6646 202.476 89.6945 202.425 89.7141C202.373 89.7338 202.319 89.7429 202.264 89.7408Z" fill="#292A2E"/>
<path d="M192.865 97.8187H182.826C182.717 97.8187 182.613 97.7756 182.536 97.6988C182.459 97.622 182.416 97.5178 182.416 97.4091C182.416 97.3005 182.459 97.1963 182.536 97.1195C182.613 97.0427 182.717 96.9995 182.826 96.9995H192.865C192.973 96.9995 193.078 97.0427 193.154 97.1195C193.231 97.1963 193.274 97.3005 193.274 97.4091C193.274 97.5178 193.231 97.622 193.154 97.6988C193.078 97.7756 192.973 97.8187 192.865 97.8187Z" fill="#292A2E"/>
<path d="M200.554 105.897H182.826C182.717 105.897 182.613 105.853 182.536 105.777C182.459 105.7 182.416 105.596 182.416 105.487C182.416 105.378 182.459 105.274 182.536 105.197C182.613 105.121 182.717 105.077 182.826 105.077H200.554C200.662 105.077 200.766 105.121 200.843 105.197C200.92 105.274 200.963 105.378 200.963 105.487C200.963 105.596 200.92 105.7 200.843 105.777C200.766 105.853 200.662 105.897 200.554 105.897Z" fill="#292A2E"/>
<path d="M188.308 113.974H174.635C174.526 113.974 174.422 113.931 174.345 113.854C174.268 113.777 174.225 113.673 174.225 113.564C174.225 113.456 174.268 113.352 174.345 113.275C174.422 113.198 174.526 113.155 174.635 113.155H188.306C188.414 113.155 188.518 113.198 188.595 113.275C188.672 113.352 188.715 113.456 188.715 113.564C188.715 113.673 188.672 113.777 188.595 113.854C188.518 113.931 188.414 113.974 188.306 113.974H188.308Z" fill="#292A2E"/>
<path d="M183.608 122.052H174.635C174.526 122.052 174.422 122.009 174.345 121.932C174.268 121.855 174.225 121.751 174.225 121.642C174.225 121.534 174.268 121.429 174.345 121.353C174.422 121.276 174.526 121.233 174.635 121.233H183.606C183.714 121.233 183.819 121.276 183.895 121.353C183.972 121.429 184.015 121.534 184.015 121.642C184.015 121.751 183.972 121.855 183.895 121.932C183.819 122.009 183.714 122.052 183.606 122.052H183.608Z" fill="#292A2E"/>
<path d="M219.571 63.7759V63.9235L224.689 65.8234C224.762 65.8532 224.824 65.9043 224.868 65.9701C224.912 66.0358 224.935 66.1132 224.934 66.1922V66.3315C224.935 66.3932 224.92 66.4541 224.891 66.5085C224.862 66.563 224.82 66.6092 224.768 66.6427C224.716 66.6792 224.656 66.7021 224.593 66.7093C224.53 66.7164 224.467 66.7076 224.408 66.6836L218.627 64.4227C218.555 64.3939 218.493 64.3443 218.449 64.2801C218.405 64.2158 218.382 64.14 218.381 64.0623V63.6449C218.381 63.5669 218.404 63.4906 218.448 63.4262C218.492 63.3618 218.554 63.3123 218.627 63.2845L224.408 61.018C224.455 61.0018 224.505 60.9934 224.555 60.9932C224.631 60.9948 224.705 61.0176 224.768 61.0589C224.82 61.0941 224.863 61.1418 224.892 61.1976C224.921 61.2534 224.935 61.3156 224.934 61.3785V61.5172C224.936 61.5954 224.913 61.6721 224.869 61.7367C224.825 61.8013 224.762 61.8506 224.689 61.8776L219.571 63.7759Z" fill="#2C47FA"/>
<path d="M229.716 59.3447L226.654 68.7228C226.629 68.8011 226.58 68.8696 226.514 68.9182C226.447 68.9668 226.367 68.993 226.285 68.9931C226.226 68.994 226.167 68.9803 226.114 68.9531C226.061 68.9259 226.016 68.8861 225.982 68.8372C225.945 68.7887 225.92 68.7325 225.909 68.6729C225.898 68.6133 225.9 68.5518 225.917 68.4934L228.979 59.1236C229.005 59.0442 229.056 58.9749 229.123 58.9254C229.191 58.8759 229.272 58.8486 229.356 58.8472C229.415 58.8471 229.473 58.8612 229.526 58.8883C229.579 58.9155 229.624 58.9548 229.659 59.0031C229.695 59.0512 229.719 59.1074 229.729 59.1668C229.739 59.2263 229.735 59.2873 229.716 59.3447Z" fill="#2C47FA"/>
<path d="M237.236 63.6449V64.0623C237.237 64.1392 237.215 64.2148 237.173 64.2791C237.131 64.3433 237.07 64.3934 236.999 64.4227L231.209 66.6836C231.152 66.7073 231.09 66.716 231.028 66.7089C230.966 66.7017 230.908 66.6789 230.857 66.6427C230.805 66.6093 230.762 66.5633 230.732 66.5089C230.702 66.4546 230.686 66.3936 230.685 66.3315V66.1922C230.684 66.1119 230.708 66.0334 230.754 65.9673C230.799 65.9012 230.864 65.851 230.94 65.8235L236.057 63.9235V63.7759L230.94 61.8755C230.864 61.8505 230.799 61.802 230.753 61.7372C230.707 61.6723 230.684 61.5944 230.685 61.515V61.3763C230.686 61.313 230.702 61.2508 230.732 61.1951C230.762 61.1394 230.805 61.0919 230.857 61.0568C230.921 61.0155 230.994 60.9927 231.07 60.991C231.118 60.9905 231.165 60.9989 231.209 61.0159L236.999 63.2823C237.071 63.3109 237.132 63.3611 237.175 63.426C237.217 63.4909 237.239 63.5674 237.236 63.6449Z" fill="#2C47FA"/>
<path d="M26.9375 325.136C23.5989 325.135 20.3098 324.328 17.3502 322.782C14.3906 321.237 11.8481 318.999 9.939 316.259C8.02995 313.52 6.81088 310.359 6.38555 307.047C5.96021 303.735 6.3412 300.368 7.4961 297.235C8.66825 294.054 38.7342 216.421 43.9705 202.929L80.1519 223.99C77.2097 231.577 66.547 260.334 57.981 283.499L72.2121 281.951L76.6885 319.851L29.1796 325.014C28.4349 325.095 27.6865 325.136 26.9375 325.136Z" fill="#2C47FA"/>
<path d="M145.283 186.788C145.156 186.771 141.674 199.878 114.501 197.838C95.6889 196.428 91.102 183.62 90.6709 183.62C92.6991 183.189 95.9928 182.741 96.8937 182.26C99.8558 180.668 102.013 178.73 103.1 174.571C103.949 171.318 104.382 158.797 104.382 152.515L133.329 159.021C132.926 166.108 130.102 182.537 140 185.444C141.647 185.923 143.421 186.365 145.283 186.788Z" fill="#E98862"/>
<path d="M132.327 172.951C120.916 173.852 106.257 169.032 103.472 153.803L100.959 140.061C98.1747 124.832 103.914 111.023 118.25 108.401C132.585 105.778 145.558 116.164 148.342 131.393L149.454 137.477C150.523 143.32 152.688 171.344 132.327 172.951Z" fill="#E98862"/>
<path d="M78.3094 185.726C68.0546 186.487 57.598 187.598 50.0523 194.585C40.9646 203.001 39.3178 213.349 45.1155 241.825C50.1037 266.328 48.1247 277.034 51.4621 322.248C51.5604 323.58 51.771 326.335 51.771 326.335L161.47 326.153C161.47 326.153 171.75 266.166 177.425 238.498C181.74 217.464 193.076 191.929 145.281 186.783C145.157 186.769 106.826 183.61 78.3094 185.726Z" fill="#2C47FA"/>
<path d="M51.7732 326.612C51.7017 326.612 51.633 326.584 51.5815 326.535C51.5299 326.485 51.4996 326.418 51.4969 326.346L48.0589 237.084C48.0575 237.048 48.0633 237.012 48.0759 236.978C48.0885 236.944 48.1077 236.912 48.1324 236.886C48.1571 236.859 48.1868 236.838 48.2198 236.822C48.2528 236.807 48.2884 236.799 48.3247 236.797C48.3614 236.795 48.3982 236.799 48.4329 236.811C48.4676 236.823 48.4995 236.843 48.5264 236.868C48.5534 236.892 48.5749 236.923 48.5895 236.956C48.6042 236.99 48.6117 237.027 48.6116 237.063L52.0495 326.325C52.0522 326.398 52.0257 326.47 51.9759 326.523C51.9261 326.577 51.8569 326.609 51.7837 326.611L51.7732 326.612Z" fill="#0C0C0C"/>
<path d="M227.799 217.596L235.506 200.303C235.675 199.923 235.922 199.583 236.23 199.304C236.538 199.024 236.901 198.812 237.296 198.681C237.69 198.549 238.108 198.501 238.522 198.54C238.936 198.579 239.337 198.704 239.701 198.906C240.36 199.301 240.85 199.927 241.074 200.663C241.298 201.398 241.241 202.191 240.914 202.887L239.261 206.595L249.809 197.32C250.964 196.27 253.053 195.717 254.147 197.09C254.603 197.591 254.875 198.232 254.92 198.907C254.964 199.583 254.779 200.254 254.393 200.811C254.406 200.819 254.418 200.829 254.428 200.84C254.435 200.849 254.441 200.859 254.446 200.869L256.226 199.248C256.556 198.948 256.949 198.725 257.376 198.596C257.803 198.467 258.253 198.435 258.694 198.502C259.135 198.569 259.556 198.733 259.925 198.984C260.294 199.234 260.603 199.563 260.829 199.948C261.172 200.561 261.295 201.273 261.176 201.966C261.058 202.659 260.705 203.289 260.177 203.753L259.419 204.443C259.428 204.474 259.433 204.507 259.431 204.539C260.051 204.192 260.775 204.077 261.472 204.214C262.169 204.351 262.795 204.732 263.238 205.288C263.704 205.912 263.918 206.687 263.837 207.461C263.757 208.235 263.387 208.951 262.803 209.464L260.921 211.178C260.965 211.172 261.009 211.177 261.05 211.192C261.092 211.208 261.129 211.232 261.159 211.265C261.192 211.305 261.214 211.354 261.22 211.406C261.858 211.25 262.529 211.308 263.131 211.571C263.733 211.834 264.232 212.287 264.551 212.862C264.874 213.472 264.982 214.173 264.857 214.852C264.731 215.531 264.381 216.148 263.861 216.603L247.981 231.064C245.759 233.088 242.984 234.401 240.011 234.836C237.039 235.271 234.004 234.809 231.296 233.507C228.96 232.385 227.155 230.397 226.262 227.964C225.369 225.532 225.46 222.847 226.515 220.48L227.799 217.596Z" fill="#E98862"/>
<g opacity="0.2">
<path opacity="0.2" d="M243.996 210.041C244.045 210.094 244.113 210.126 244.185 210.13C244.258 210.134 244.328 210.109 244.383 210.061L254.403 201.228C254.458 201.179 254.491 201.111 254.496 201.038C254.5 200.964 254.476 200.892 254.427 200.837C254.379 200.782 254.31 200.749 254.237 200.744C254.164 200.739 254.092 200.764 254.037 200.813L244.017 209.646C243.99 209.67 243.968 209.699 243.952 209.731C243.936 209.764 243.926 209.799 243.924 209.836C243.922 209.872 243.927 209.908 243.938 209.942C243.95 209.977 243.969 210.009 243.993 210.036L243.996 210.041Z" fill="#0C0C0C"/>
</g>
<g opacity="0.2">
<path opacity="0.2" d="M247.769 214.568C247.818 214.622 247.886 214.654 247.958 214.657C248.03 214.661 248.101 214.636 248.156 214.588L259.338 204.731C259.365 204.707 259.387 204.678 259.403 204.645C259.419 204.612 259.428 204.577 259.431 204.541C259.433 204.504 259.428 204.468 259.416 204.434C259.405 204.399 259.386 204.368 259.362 204.34C259.312 204.288 259.244 204.255 259.172 204.251C259.099 204.246 259.028 204.269 258.972 204.316L247.79 214.173C247.762 214.198 247.74 214.227 247.724 214.259C247.708 214.292 247.699 214.327 247.697 214.364C247.694 214.4 247.699 214.436 247.711 214.47C247.723 214.505 247.741 214.537 247.765 214.564L247.769 214.568Z" fill="#0C0C0C"/>
</g>
<g opacity="0.2">
<path opacity="0.2" d="M251.827 219.496C251.876 219.549 251.944 219.581 252.016 219.585C252.088 219.588 252.159 219.564 252.214 219.515L261.133 211.652C261.188 211.603 261.222 211.535 261.226 211.462C261.231 211.389 261.206 211.317 261.158 211.262C261.109 211.207 261.041 211.173 260.968 211.169C260.894 211.164 260.822 211.189 260.767 211.237L251.848 219.101C251.821 219.125 251.798 219.154 251.782 219.187C251.766 219.219 251.757 219.255 251.755 219.291C251.752 219.327 251.757 219.364 251.769 219.398C251.781 219.432 251.799 219.464 251.823 219.491L251.827 219.496Z" fill="#0C0C0C"/>
</g>
<path d="M142.907 157.342C140.941 147.465 140.04 140.875 140.143 133.923C142.911 129.066 142.184 123.493 141.554 121.084C142.347 121.536 143.177 121.92 144.035 122.232C144.434 122.371 144.864 122.393 145.275 122.296C145.686 122.198 146.061 121.986 146.355 121.683C146.649 121.38 146.851 120.999 146.936 120.585C147.022 120.172 146.987 119.742 146.837 119.347C144.695 113.8 139.189 103.019 127.823 99.4065C124.962 98.2927 117.654 96.8858 107.957 98.2164C99.7071 99.3485 81.029 107.177 78.1237 130.078V130.09C78.0276 130.85 74.4171 150.291 70.5243 160.415C65.2914 174.024 57.944 178.253 58.1302 193.955C58.3701 214.152 95.4888 216.84 117.882 215.33C140.275 213.82 152.771 206.455 152.933 191.899C153.109 175.589 146.837 177.103 142.907 157.342Z" fill="#0A0A0A"/>
<path d="M142.913 150.338C138.557 151.136 134.173 147.12 133.376 142.762C132.58 138.404 134.565 133.923 140.143 133.923L142.913 150.338Z" fill="#E98862"/>
<path d="M189.772 322C185.39 321.999 181.121 320.61 177.577 318.032C174.034 315.453 171.398 311.818 170.048 307.648L141.255 218.573L180.693 205.818L195.835 252.669L222.005 211.041L257.095 233.112L207.311 312.304C205.446 315.272 202.858 317.718 199.791 319.413C196.724 321.109 193.277 321.999 189.772 322Z" fill="#2C47FA"/>
<path d="M166.538 297.404C166.521 297.404 166.504 297.403 166.487 297.4C166.415 297.386 166.351 297.345 166.31 297.285C166.269 297.224 166.253 297.15 166.266 297.078L176.054 243.932C176.061 243.896 176.074 243.862 176.094 243.832C176.114 243.801 176.139 243.775 176.169 243.754C176.199 243.734 176.233 243.719 176.268 243.711C176.304 243.704 176.34 243.703 176.376 243.71C176.412 243.716 176.446 243.73 176.476 243.75C176.507 243.769 176.533 243.795 176.554 243.825C176.574 243.855 176.589 243.888 176.596 243.924C176.604 243.96 176.604 243.996 176.598 244.032L166.809 297.18C166.797 297.243 166.764 297.3 166.714 297.341C166.665 297.382 166.602 297.404 166.538 297.404Z" fill="#0C0C0C"/>
<path d="M199.358 265.213C199.297 265.213 199.237 265.192 199.189 265.155C199.14 265.118 199.106 265.065 199.09 265.006L195.83 252.443C195.811 252.372 195.822 252.297 195.859 252.234C195.896 252.17 195.957 252.125 196.028 252.106C196.099 252.088 196.174 252.098 196.237 252.136C196.301 252.173 196.346 252.233 196.365 252.304L199.625 264.867C199.636 264.908 199.637 264.951 199.628 264.992C199.62 265.033 199.602 265.072 199.576 265.106C199.55 265.139 199.517 265.166 199.479 265.185C199.441 265.203 199.4 265.213 199.357 265.213H199.358Z" fill="#0C0C0C"/>
<path d="M421.18 263.106H313.135C312.459 263.106 311.791 262.962 311.174 262.685C310.557 262.408 310.007 262.003 309.558 261.497C309.109 260.991 308.773 260.396 308.571 259.75C308.369 259.105 308.306 258.424 308.386 257.753L311.277 233.622C311.416 232.46 311.977 231.39 312.852 230.613C313.727 229.836 314.856 229.408 316.026 229.408H421.18C422.448 229.408 423.665 229.912 424.562 230.809C425.458 231.706 425.962 232.923 425.963 234.192V258.322C425.962 259.591 425.458 260.808 424.561 261.705C423.665 262.602 422.448 263.106 421.18 263.106Z" fill="#292A2E"/>
<path d="M342.362 263.333L346.982 245.596C347.084 245.206 347.103 244.8 347.039 244.402C346.975 244.004 346.829 243.624 346.61 243.286C346.391 242.948 346.104 242.66 345.767 242.439C345.43 242.218 345.051 242.069 344.654 242.003C341.366 241.382 340.966 245.912 340.343 248.084L337.971 234.694C337.609 231.082 332.754 230.963 332.395 234.562C332.369 234.558 332.343 234.562 332.32 234.575C332.434 227.997 325.154 228.506 326.4 234.271C326.374 234.288 326.351 234.31 326.332 234.336C325.116 231.147 320.133 232.639 320.806 236.021L321.193 238.454C321.169 238.429 321.141 238.409 321.111 238.396C321.08 238.382 321.046 238.375 321.013 238.374C320.979 238.373 320.945 238.379 320.914 238.391C320.882 238.404 320.853 238.422 320.829 238.445C319.157 236.078 315.059 237.815 315.689 240.779L318.96 261.315C320.831 274.598 340.372 279.055 342.362 263.333Z" fill="#E98862"/>
<g opacity="0.2">
<path opacity="0.2" d="M334.68 247.826C333.961 247.758 332.425 235.261 332.138 234.87C332.125 234.801 332.142 234.729 332.182 234.671C332.223 234.612 332.285 234.573 332.355 234.561C332.425 234.548 332.497 234.564 332.555 234.605C332.613 234.646 332.653 234.708 332.665 234.778L334.901 247.515C334.907 247.55 334.906 247.586 334.898 247.62C334.891 247.655 334.876 247.688 334.855 247.717C334.835 247.746 334.809 247.77 334.779 247.789C334.749 247.808 334.715 247.82 334.68 247.826Z" fill="#0C0C0C"/>
</g>
<g opacity="0.2">
<path opacity="0.2" d="M329.089 248.969C329.019 248.979 328.949 248.962 328.892 248.92C328.835 248.879 328.797 248.817 328.785 248.748L326.286 234.533C326.274 234.463 326.29 234.391 326.33 234.333C326.371 234.275 326.433 234.236 326.503 234.223C327.236 234.156 329.02 248.356 329.313 248.655C329.319 248.691 329.318 248.727 329.311 248.762C329.303 248.797 329.288 248.83 329.267 248.86C329.246 248.889 329.22 248.913 329.189 248.932C329.158 248.951 329.124 248.963 329.089 248.969Z" fill="#0C0C0C"/>
</g>
<g opacity="0.2">
<path opacity="0.2" d="M323.043 250.242C322.973 250.252 322.903 250.235 322.846 250.193C322.789 250.152 322.751 250.09 322.74 250.021L320.746 238.682C320.736 238.613 320.753 238.543 320.794 238.487C320.835 238.431 320.896 238.392 320.964 238.38C321.033 238.368 321.103 238.384 321.161 238.423C321.218 238.462 321.258 238.522 321.272 238.59L323.267 249.928C323.273 249.963 323.273 250 323.265 250.035C323.257 250.07 323.242 250.103 323.221 250.132C323.2 250.161 323.174 250.186 323.143 250.205C323.113 250.224 323.078 250.236 323.043 250.242Z" fill="#0C0C0C"/>
</g>
<path d="M178.116 326.612H49.6786L41.516 263.882C41.3523 262.623 41.4588 261.344 41.8284 260.129C42.1981 258.915 42.8225 257.794 43.6599 256.84C44.4972 255.886 45.5284 255.122 46.6844 254.599C47.8405 254.075 49.0948 253.804 50.3638 253.804H160.798C162.966 253.804 165.06 254.592 166.689 256.022C168.318 257.453 169.371 259.427 169.652 261.577L178.116 326.612Z" fill="white"/>
<path d="M170.32 261.493C170.015 259.182 168.882 257.059 167.131 255.52C165.379 253.981 163.129 253.13 160.798 253.124H50.3638C49.1507 253.125 47.9488 253.356 46.8214 253.804C46.3445 253.992 45.8842 254.219 45.4453 254.484C43.8364 255.444 42.5432 256.853 41.7252 258.538C40.9073 260.224 40.6002 262.112 40.8418 263.97L48.9988 326.612H50.3638L42.1903 263.799C42.0387 262.636 42.1368 261.454 42.4782 260.332C42.8195 259.21 43.3962 258.173 44.1697 257.292C44.9433 256.41 45.8959 255.704 46.964 255.219C48.0321 254.735 49.1912 254.485 50.3638 254.484H160.798C162.799 254.489 164.73 255.22 166.234 256.54C167.738 257.86 168.713 259.681 168.977 261.665L177.433 326.612H178.803L170.32 261.493Z" fill="#292A2E"/>
<path d="M170.624 326.612H42.1848L34.0223 263.882C33.8582 262.623 33.9645 261.343 34.3341 260.129C34.7037 258.915 35.328 257.793 36.1654 256.839C37.0029 255.886 38.0341 255.121 39.1903 254.598C40.3465 254.075 41.601 253.804 42.8701 253.804H153.303C155.47 253.804 157.562 254.593 159.191 256.023C160.819 257.454 161.871 259.428 162.151 261.577L170.624 326.612Z" fill="#292A2E"/>
<path d="M162.826 261.493C162.638 260.053 162.125 258.673 161.327 257.459C160.528 256.245 159.465 255.228 158.217 254.484C157.778 254.22 157.318 253.993 156.841 253.804C155.716 253.356 154.516 253.125 153.304 253.124H42.8701C41.5041 253.124 40.1538 253.415 38.9093 253.978C37.6648 254.541 36.5548 255.363 35.6535 256.39C34.7521 257.417 34.0802 258.624 33.6827 259.931C33.2851 261.238 33.171 262.615 33.348 263.97L41.4995 326.612H42.8701L34.6965 263.799C34.5449 262.636 34.643 261.454 34.9844 260.332C35.3257 259.21 35.9024 258.173 36.676 257.292C37.4495 256.41 38.4021 255.704 39.4702 255.219C40.5383 254.735 41.6974 254.485 42.8701 254.484H153.303C155.304 254.489 157.235 255.22 158.739 256.54C160.243 257.86 161.217 259.681 161.482 261.665L169.937 326.612H171.308L162.826 261.493Z" fill="#292A2E"/>
<path d="M388.635 189.526C388.762 189.509 390.169 212.848 417.274 210.814C436.039 209.407 442.73 189.493 443.16 189.493C441.137 189.063 437.73 188.437 436.831 187.957C433.876 186.37 429.667 184.717 428.715 178.977C428.167 175.669 429.098 158.745 428.811 155.397L400.559 161.828C400.962 168.898 403.779 185.286 393.905 188.186C392.265 188.667 390.493 189.109 388.635 189.526Z" fill="#E98862"/>
<path d="M401.354 172.854C412.73 173.732 427.333 168.904 430.082 153.72L432.563 140.02C435.312 124.836 429.568 111.083 415.276 108.494C400.983 105.904 388.072 116.278 385.322 131.461L384.224 137.526C383.883 139.615 383.685 141.725 383.631 143.841C383.447 149.433 383.189 157.937 385.952 164.184C388.566 170.084 394.089 172.293 401.354 172.854Z" fill="#E98862"/>
<path d="M426.864 107.715C422.349 106.307 417.665 105.51 412.938 105.346C412.48 103.541 411.459 102.14 409.958 101.551C407.459 100.575 404.406 102.148 402.375 105.179C401.246 103.447 399.715 101.887 397.687 101.254C392.092 99.511 391.814 107.551 391.814 107.551C391.814 107.551 382.943 98.794 382.665 109.963C382.33 123.476 384.812 127.438 386.623 128.439C390.2 130.415 392.864 130.081 394.279 132.987C398.565 141.789 394.364 166.583 399.324 169.687C406.923 174.441 422.487 174.607 427.543 174.245C429.486 174.106 431.305 171.852 432.124 170.083C434.768 164.371 440.665 151.423 442.306 146.068C445.334 136.187 445.106 113.673 426.864 107.715Z" fill="#0C0C0C"/>
<path d="M395.928 160.832C400.316 160.356 403.364 155.273 402.888 150.882C402.411 146.49 398.591 144.458 394.203 144.934L392.261 148.121L392.155 161.24L395.928 160.832Z" fill="#E98862"/>
<path d="M469.231 322.951L469.367 322.959C469.367 322.959 469.269 320.338 469.231 322.951Z" fill="#333333"/>
<path d="M349.668 241.167C350.525 251.235 354.693 314.046 355.516 326.447H469.039C469.68 315.262 472.56 266.358 474.991 244.485C477.312 223.614 481.867 213.165 478.528 206.994C473.073 196.91 458.166 191.083 448.002 189.706C441.795 188.866 440.516 188.264 437.986 188.264H394.277C390.121 188.264 363.579 192.269 358.138 196.271C343.08 207.347 347.85 219.832 349.668 241.167Z" fill="#2C47FA"/>
<path d="M493.277 325.789C496.616 325.789 499.906 324.982 502.866 323.436C505.826 321.891 508.369 319.653 510.279 316.913C512.188 314.173 513.407 311.012 513.832 307.699C514.258 304.386 513.876 301.019 512.721 297.886C511.548 294.704 484.053 221.877 478.819 208.381L440.06 224.09C443.003 231.677 453.667 260.436 462.234 283.603L448.001 282.056L443.522 323.275L491.034 325.667C491.779 325.748 492.528 325.789 493.277 325.789Z" fill="#2C47FA"/>
<path d="M471.158 244.907L468.368 326.437L469.123 326.462L471.912 244.933L471.158 244.907Z" fill="#0C0C0C"/>
<path d="M333.247 325.789C329.908 325.789 326.618 324.981 323.658 323.436C320.698 321.89 318.155 319.652 316.246 316.912C314.336 314.172 313.117 311.011 312.692 307.698C312.267 304.386 312.648 301.019 313.804 297.886C314.976 294.704 343.623 221.555 348.857 208.061L386.464 224.091C383.521 231.678 372.857 260.438 364.29 283.605L378.523 282.057L383.002 323.277L335.49 325.668C334.745 325.749 333.996 325.789 333.247 325.789Z" fill="#2C47FA"/>
<path d="M364.202 278.772C364.136 278.772 364.072 278.757 364.014 278.727C363.956 278.698 363.906 278.655 363.867 278.602C363.829 278.55 363.803 278.489 363.793 278.424C363.782 278.36 363.787 278.294 363.807 278.232L373.869 246.544C373.884 246.491 373.91 246.441 373.945 246.398C373.98 246.355 374.023 246.319 374.072 246.293C374.12 246.267 374.174 246.251 374.229 246.246C374.284 246.241 374.34 246.247 374.393 246.263C374.446 246.28 374.495 246.307 374.537 246.343C374.579 246.379 374.613 246.424 374.638 246.473C374.663 246.523 374.677 246.577 374.681 246.632C374.685 246.687 374.677 246.743 374.659 246.795L364.597 278.48C364.571 278.564 364.518 278.638 364.447 278.691C364.376 278.743 364.29 278.772 364.202 278.772Z" fill="#0C0C0C"/>
<path d="M493.144 263.882L484.977 326.612H356.542L365.009 261.577C365.29 259.428 366.342 257.454 367.97 256.024C369.598 254.594 371.69 253.805 373.857 253.804H484.292C485.561 253.803 486.816 254.074 487.973 254.597C489.129 255.12 490.161 255.884 490.999 256.838C491.837 257.792 492.462 258.913 492.832 260.128C493.202 261.343 493.308 262.622 493.144 263.882Z" fill="white"/>
<path d="M491.509 256.391C490.848 255.64 490.075 254.996 489.216 254.484C488.775 254.219 488.313 253.992 487.834 253.804C486.707 253.356 485.505 253.125 484.292 253.124H373.857C371.526 253.131 369.277 253.982 367.526 255.521C365.775 257.06 364.641 259.182 364.335 261.493L355.857 326.612H357.228L365.683 261.665C365.946 259.681 366.919 257.86 368.422 256.54C369.926 255.219 371.857 254.489 373.857 254.484H484.292C485.464 254.485 486.623 254.736 487.691 255.22C488.76 255.705 489.712 256.411 490.486 257.292C491.26 258.174 491.837 259.21 492.18 260.332C492.522 261.454 492.621 262.636 492.471 263.799L484.292 326.612H485.662L493.814 263.97C493.99 262.615 493.876 261.239 493.479 259.932C493.081 258.625 492.41 257.418 491.509 256.391Z" fill="#292A2E"/>
<path d="M500.638 263.882L492.471 326.612H364.036L372.503 261.577C372.706 260.022 373.315 258.547 374.268 257.302C375.222 256.057 376.487 255.085 377.936 254.484C379.018 254.033 380.179 253.802 381.351 253.804H491.79C493.059 253.805 494.314 254.076 495.469 254.599C496.625 255.123 497.656 255.887 498.494 256.841C499.331 257.794 499.955 258.916 500.325 260.13C500.695 261.344 500.802 262.623 500.638 263.882Z" fill="#292A2E"/>
<path d="M499.002 256.391C498.101 255.366 496.992 254.544 495.748 253.981C494.505 253.418 493.155 253.126 491.79 253.124H381.351C379.622 253.127 377.927 253.597 376.443 254.484C375.194 255.228 374.131 256.245 373.331 257.459C372.532 258.673 372.019 260.052 371.829 261.493L363.352 326.612H364.722L373.177 261.665C373.44 259.681 374.413 257.86 375.916 256.539C377.419 255.219 379.35 254.489 381.35 254.484H491.79C492.963 254.485 494.122 254.735 495.19 255.219C496.258 255.703 497.211 256.41 497.985 257.291C498.758 258.173 499.335 259.209 499.676 260.332C500.018 261.454 500.116 262.636 499.964 263.799L491.79 326.612H493.155L501.313 263.97C501.488 262.615 501.372 261.238 500.974 259.932C500.575 258.625 499.903 257.418 499.002 256.391Z" fill="#292A2E"/>
<path d="M6.60413 327H511.398C511.5 327 511.599 326.959 511.671 326.887C511.744 326.814 511.784 326.716 511.784 326.613C511.784 326.51 511.744 326.412 511.671 326.339C511.599 326.267 511.5 326.226 511.398 326.226H6.60413C6.50154 326.226 6.40314 326.267 6.33059 326.339C6.25804 326.412 6.21729 326.51 6.21729 326.613C6.21729 326.716 6.25804 326.814 6.33059 326.887C6.40314 326.959 6.50154 327 6.60413 327Z" fill="#292A2E"/>
<g opacity="0.65">
<path opacity="0.65" d="M6.60413 327H511.398C511.5 327 511.599 326.959 511.671 326.887C511.744 326.814 511.784 326.716 511.784 326.613C511.784 326.51 511.744 326.412 511.671 326.339C511.599 326.267 511.5 326.226 511.398 326.226H6.60413C6.50154 326.226 6.40314 326.267 6.33059 326.339C6.25804 326.412 6.21729 326.51 6.21729 326.613C6.21729 326.716 6.25804 326.814 6.33059 326.887C6.40314 326.959 6.50154 327 6.60413 327Z" fill="#292A2E"/>
</g>
<path d="M312.524 305.394L314.301 258.655L338.852 257.355L341.086 305.394H312.524Z" fill="#2C47FA"/>
</g>
<defs>
<clipPath id="clip0_2_668">
<rect width="514" height="327" fill="white"/>
</clipPath>
</defs>
</svg>
