<svg width="479" height="460" viewBox="0 0 479 460" fill="none" xmlns="http://www.w3.org/2000/svg">
<g clip-path="url(#clip0_2_819)">
<path d="M81.8279 109.312L165.758 109.312V-1.52588e-05L81.8279 -1.52588e-05L81.8279 109.312Z" fill="#F4F4F4"/>
<path d="M81.828 0H79.1051V109.312H81.828V0Z" fill="#F4F4F4"/>
<path opacity="0.05" d="M81.828 0H79.1051V109.312H81.828V0Z" fill="#292A2E"/>
<path opacity="0.05" d="M97.1168 89.3994H150.469V19.9122H97.1168V89.3994Z" fill="#292A2E"/>
<path opacity="0.03" d="M97.1169 89.3994H99.8973L99.8973 19.9122H97.1169L97.1169 89.3994Z" fill="#292A2E"/>
<path d="M13.186 205.508H81.8275L81.8275 136.194H13.186L13.186 205.508Z" fill="#F4F4F4"/>
<path opacity="0.05" d="M25.6901 192.882H69.3239V148.821H25.6901L25.6901 192.882Z" fill="#292A2E"/>
<path d="M13.1865 136.194H10.4636V205.508H13.1865V136.194Z" fill="#F4F4F4"/>
<path opacity="0.05" d="M13.1865 136.194H10.4636V205.508H13.1865V136.194Z" fill="#292A2E"/>
<path opacity="0.03" d="M25.6906 192.882H28.4711L28.4711 148.821H25.6906L25.6906 192.882Z" fill="#292A2E"/>
<path d="M453.689 3.89551H256.093V201.612H453.689V3.89551Z" fill="#F4F4F4"/>
<path d="M455.954 3.89551H453.689V201.612H455.954V3.89551Z" fill="#F4F4F4"/>
<path opacity="0.05" d="M455.954 3.89551H453.689V201.612H455.954V3.89551Z" fill="#292A2E"/>
<path opacity="0.05" d="M405.821 140.139V88.4097H363.472V118.463H297.875V171.677H269.996V201.612H297.875H303.246H444.184V140.139H405.821Z" fill="#292A2E"/>
<path opacity="0.34" d="M399.747 94.0261H368.908V99.6426H399.747V94.0261Z" fill="#FFFFFA"/>
<path opacity="0.34" d="M399.747 105.665H368.908V111.282H399.747V105.665Z" fill="#FFFFFA"/>
<path opacity="0.34" d="M399.747 117.304H368.908V122.92H399.747V117.304Z" fill="#FFFFFA"/>
<path opacity="0.34" d="M438.715 145.591H433.031V151.207H438.715V145.591Z" fill="#FFFFFA"/>
<path opacity="0.34" d="M438.715 157.229H433.031V162.846H438.715V157.229Z" fill="#FFFFFA"/>
<path opacity="0.34" d="M438.715 168.868H433.031V174.485H438.715V168.868Z" fill="#FFFFFA"/>
<path opacity="0.34" d="M428.2 145.591H422.516V151.207H428.2V145.591Z" fill="#FFFFFA"/>
<path opacity="0.34" d="M428.2 157.229H422.516V162.846H428.2V157.229Z" fill="#FFFFFA"/>
<path opacity="0.34" d="M428.2 168.868H422.516V174.485H428.2V168.868Z" fill="#FFFFFA"/>
<path opacity="0.34" d="M417.969 145.591H412.285V151.207H417.969V145.591Z" fill="#FFFFFA"/>
<path opacity="0.34" d="M417.969 157.229H412.285V162.846H417.969V157.229Z" fill="#FFFFFA"/>
<path opacity="0.34" d="M417.969 168.868H412.285V174.485H417.969V168.868Z" fill="#FFFFFA"/>
<path d="M453.689 101.645H413.929V3.89551H410.641V101.645H303.246V3.89551H299.958V101.645H256.093V104.935H299.958V201.612H303.246V104.935H410.641V201.612H413.929V104.935H453.689V101.645Z" fill="white"/>
<path d="M461.56 201.374H248.221V207.949H461.56V201.374Z" fill="#F4F4F4"/>
<path opacity="0.1" d="M461.56 201.374H248.221V207.949H461.56V201.374Z" fill="#292A2E"/>
<path opacity="0.1" d="M464.64 201.374H461.56V207.949H464.64V201.374Z" fill="#292A2E"/>
<path opacity="0.1" d="M464.64 201.374H461.56V207.949H464.64V201.374Z" fill="#292A2E"/>
<path d="M436.533 395.036C436.469 395.036 436.406 395.024 436.346 394.999C436.287 394.975 436.233 394.938 436.188 394.893C435.501 394.206 434.381 381.589 431.363 344.023C430.128 328.652 428.962 314.133 428.111 305.31C428.05 304.68 427.806 304.606 427.726 304.582C426.561 304.23 423.018 307.026 421.04 309.474C420.958 309.575 420.84 309.639 420.712 309.653C420.583 309.666 420.454 309.628 420.353 309.547C420.253 309.465 420.189 309.347 420.175 309.218C420.161 309.09 420.199 308.961 420.281 308.86C421.589 307.242 425.852 302.999 428.006 303.647C428.441 303.778 428.982 304.156 429.083 305.216C429.934 314.047 431.101 328.57 432.336 343.945C434.169 366.773 436.247 392.635 436.929 394.263C436.981 394.336 437.013 394.422 437.019 394.512C437.026 394.601 437.008 394.691 436.967 394.771C436.926 394.851 436.864 394.918 436.787 394.964C436.711 395.011 436.623 395.036 436.533 395.036Z" fill="#494949"/>
<path d="M426.858 321.5C434.952 315.008 437.635 304.903 432.85 298.93C428.065 292.957 417.624 293.377 409.53 299.87C401.435 306.362 398.753 316.467 403.537 322.44C408.322 328.413 418.763 327.992 426.858 321.5Z" fill="#0CBC8B"/>
<path opacity="0.2" d="M426.858 321.5C434.952 315.008 437.635 304.903 432.85 298.93C428.065 292.957 417.624 293.377 409.53 299.87C401.435 306.362 398.753 316.467 403.537 322.44C408.322 328.413 418.763 327.992 426.858 321.5Z" fill="white"/>
<path d="M405.807 323.96C405.761 323.96 405.715 323.946 405.676 323.921C405.637 323.897 405.606 323.861 405.587 323.819C405.567 323.777 405.56 323.731 405.565 323.685C405.571 323.639 405.59 323.596 405.62 323.56L428.688 295.725C428.708 295.699 428.733 295.678 428.762 295.663C428.79 295.647 428.821 295.638 428.854 295.634C428.886 295.631 428.918 295.634 428.949 295.644C428.98 295.653 429.009 295.669 429.034 295.689C429.059 295.71 429.079 295.736 429.094 295.764C429.109 295.793 429.119 295.825 429.121 295.857C429.124 295.889 429.12 295.922 429.11 295.952C429.1 295.983 429.084 296.012 429.063 296.036L405.995 323.872C405.972 323.899 405.943 323.921 405.911 323.937C405.878 323.952 405.843 323.96 405.807 323.96Z" fill="white"/>
<path d="M441.565 389.069C441.487 389.069 441.41 389.05 441.341 389.015C441.272 388.979 441.212 388.927 441.167 388.864C441.122 388.8 441.092 388.727 441.081 388.65C441.07 388.573 441.078 388.494 441.104 388.42L449.769 363.485C450.024 362.753 450.459 362.096 451.033 361.575C451.608 361.054 452.304 360.685 453.058 360.503C453.811 360.321 454.599 360.331 455.348 360.533C456.096 360.734 456.783 361.12 457.344 361.656L461.925 366.035C462.018 366.124 462.073 366.247 462.076 366.376C462.079 366.506 462.03 366.631 461.941 366.725C461.851 366.819 461.728 366.873 461.599 366.876C461.469 366.879 461.344 366.83 461.251 366.741L456.67 362.362C456.227 361.939 455.685 361.634 455.094 361.475C454.503 361.317 453.881 361.309 453.286 361.452C452.691 361.596 452.142 361.887 451.689 362.298C451.235 362.709 450.892 363.228 450.69 363.806L442.025 388.741C441.992 388.837 441.93 388.92 441.847 388.979C441.765 389.037 441.666 389.069 441.565 389.069Z" fill="#494949"/>
<path d="M474.724 379.841C480.722 375.089 480.366 364.64 473.927 356.501C467.489 348.362 457.407 345.615 451.408 350.367C445.409 355.118 445.766 365.567 452.204 373.706C458.643 381.845 468.725 384.592 474.724 379.841Z" fill="#0CBC8B"/>
<path d="M432.597 393.446C432.487 393.446 432.381 393.409 432.295 393.341C432.209 393.273 432.148 393.178 432.122 393.071L417.581 332.233C417.482 331.819 417.27 331.439 416.969 331.137C416.668 330.835 416.29 330.622 415.876 330.521C415.462 330.42 415.028 330.436 414.622 330.565C414.216 330.695 413.854 330.935 413.575 331.257L409.093 336.441C409.008 336.539 408.888 336.599 408.759 336.608C408.63 336.617 408.502 336.575 408.404 336.49C408.307 336.406 408.246 336.286 408.237 336.156C408.228 336.027 408.27 335.9 408.355 335.802L412.838 330.619C413.234 330.16 413.749 329.82 414.326 329.636C414.903 329.451 415.52 329.43 416.108 329.574C416.697 329.717 417.234 330.021 417.661 330.45C418.089 330.88 418.389 331.419 418.53 332.009L433.072 392.846C433.087 392.909 433.089 392.973 433.079 393.037C433.069 393.1 433.046 393.161 433.013 393.215C432.979 393.27 432.935 393.318 432.883 393.355C432.831 393.393 432.773 393.42 432.71 393.435C432.673 393.443 432.635 393.447 432.597 393.446Z" fill="#494949"/>
<path d="M427.234 349.956C429.001 339.727 424.323 330.378 416.785 329.074C409.246 327.769 401.702 335.004 399.934 345.232C398.167 355.46 402.845 364.81 410.383 366.114C417.922 367.418 425.466 360.184 427.234 349.956Z" fill="#0CBC8B"/>
<path d="M436.534 395.036C436.514 395.036 436.494 395.035 436.474 395.032C436.41 395.025 436.349 395.004 436.293 394.973C436.237 394.941 436.188 394.899 436.149 394.848C436.109 394.798 436.08 394.74 436.063 394.678C436.046 394.616 436.041 394.552 436.049 394.488L445.335 319.05C445.436 318.229 445.772 317.453 446.303 316.818C446.834 316.183 447.537 315.715 448.327 315.47C449.117 315.225 449.962 315.213 450.758 315.437C451.555 315.661 452.27 316.11 452.818 316.73L463.432 328.758C463.474 328.807 463.506 328.863 463.527 328.923C463.548 328.984 463.557 329.048 463.553 329.112C463.549 329.176 463.532 329.239 463.504 329.296C463.476 329.354 463.437 329.405 463.389 329.448C463.341 329.49 463.285 329.523 463.224 329.543C463.163 329.564 463.099 329.573 463.035 329.569C462.971 329.565 462.909 329.548 462.851 329.52C462.794 329.492 462.742 329.453 462.7 329.405L452.088 317.377C451.665 316.897 451.112 316.55 450.496 316.377C449.88 316.204 449.228 316.213 448.617 316.402C448.006 316.591 447.463 316.953 447.052 317.444C446.642 317.935 446.382 318.534 446.304 319.169L437.017 394.607C437.003 394.725 436.946 394.834 436.857 394.913C436.768 394.992 436.653 395.036 436.534 395.036Z" fill="#494949"/>
<path d="M474.317 335.443C478.02 328.744 473.663 319.241 464.585 314.217C455.508 309.192 445.147 310.55 441.444 317.248C437.741 323.947 442.098 333.45 451.175 338.475C460.253 343.499 470.614 342.142 474.317 335.443Z" fill="#0CBC8B"/>
<path opacity="0.2" d="M474.724 379.841C480.722 375.089 480.366 364.64 473.927 356.501C467.489 348.362 457.407 345.615 451.408 350.367C445.409 355.118 445.766 365.567 452.204 373.706C458.643 381.845 468.725 384.592 474.724 379.841Z" fill="white"/>
<path opacity="0.5" d="M427.234 349.956C429.001 339.727 424.323 330.378 416.785 329.074C409.246 327.769 401.702 335.004 399.934 345.232C398.167 355.46 402.845 364.81 410.383 366.114C417.922 367.418 425.466 360.184 427.234 349.956Z" fill="white"/>
<path opacity="0.5" d="M474.317 335.443C478.02 328.744 473.663 319.241 464.585 314.217C455.508 309.192 445.147 310.55 441.444 317.248C437.741 323.947 442.098 333.45 451.175 338.475C460.253 343.499 470.614 342.142 474.317 335.443Z" fill="white"/>
<path d="M448.41 459.045H424.656L420.72 382.999H452.346L448.41 459.045Z" fill="#292A2E"/>
<path opacity="0.3" d="M448.41 459.045H424.656L420.72 382.999H452.346L448.41 459.045Z" fill="white"/>
<path d="M474.724 380.082C474.688 380.082 474.651 380.074 474.618 380.058C474.585 380.041 474.556 380.018 474.533 379.989L451.216 350.515C451.196 350.49 451.182 350.461 451.173 350.43C451.164 350.4 451.161 350.367 451.165 350.336C451.169 350.304 451.179 350.273 451.194 350.245C451.21 350.217 451.231 350.192 451.256 350.172C451.281 350.152 451.31 350.138 451.341 350.129C451.371 350.12 451.404 350.118 451.436 350.121C451.467 350.125 451.498 350.135 451.526 350.15C451.554 350.166 451.579 350.187 451.599 350.212L474.917 379.687C474.956 379.737 474.975 379.802 474.967 379.866C474.96 379.93 474.927 379.988 474.877 380.028C474.834 380.063 474.78 380.082 474.724 380.082Z" fill="white"/>
<path d="M472.766 337.804C472.715 337.804 472.664 337.787 472.623 337.756L442.786 315.956C442.76 315.937 442.738 315.914 442.722 315.886C442.705 315.859 442.694 315.828 442.689 315.797C442.684 315.765 442.685 315.733 442.693 315.702C442.7 315.67 442.714 315.641 442.733 315.615C442.752 315.589 442.776 315.567 442.803 315.551C442.83 315.534 442.861 315.523 442.892 315.518C442.924 315.513 442.956 315.514 442.988 315.522C443.019 315.529 443.048 315.543 443.074 315.562L472.91 337.362C472.951 337.392 472.981 337.435 472.997 337.484C473.012 337.532 473.012 337.584 472.996 337.633C472.98 337.681 472.949 337.724 472.908 337.754C472.867 337.784 472.817 337.8 472.766 337.801V337.804Z" fill="white"/>
<path d="M409.17 365.796C409.149 365.796 409.128 365.793 409.107 365.788C409.045 365.771 408.992 365.73 408.959 365.674C408.927 365.618 408.918 365.551 408.935 365.489L418.433 329.881C418.451 329.82 418.492 329.769 418.548 329.738C418.603 329.707 418.668 329.698 418.73 329.715C418.791 329.731 418.844 329.771 418.876 329.825C418.909 329.88 418.919 329.945 418.904 330.007L409.406 365.615C409.392 365.667 409.361 365.713 409.319 365.745C409.276 365.778 409.224 365.796 409.17 365.796Z" fill="white"/>
<path d="M88.222 308.338H49.0394V319.745H88.222V308.338Z" fill="#F4F4F4"/>
<path opacity="0.05" d="M59.4353 308.338H54.3013V319.745H59.4353V308.338Z" fill="#292A2E"/>
<path d="M83.2153 310.817H61.8674V317.577H83.2153V310.817Z" fill="white"/>
<path d="M119.475 309.826L83.0681 293.915L78.5049 304.369L114.912 320.28L119.475 309.826Z" fill="#F4F4F4"/>
<path opacity="0.05" d="M119.475 309.826L83.0681 293.915L78.5049 304.369L114.912 320.28L119.475 309.826Z" fill="#292A2E"/>
<path d="M114.586 307.689L109.816 305.604L105.253 316.058L110.023 318.143L114.586 307.689Z" fill="white"/>
<path d="M106.564 306.889L86.7288 298.22L84.0247 304.415L103.86 313.084L106.564 306.889Z" fill="white"/>
<path opacity="0.05" d="M119.544 452.85H109.697V459.43H119.544V452.85Z" fill="#292A2E"/>
<path opacity="0.05" d="M18.8727 452.85H9.02612V459.43H18.8727V452.85Z" fill="#292A2E"/>
<path d="M128.57 320.28H0V452.627H128.57V320.28Z" fill="#F4F4F4"/>
<path opacity="0.03" d="M128.57 320.28H0V452.627H128.57V320.28Z" fill="#292A2E"/>
<path d="M152.396 320.28H23.8258V452.627H152.396V320.28Z" fill="#F4F4F4"/>
<path opacity="0.05" d="M143.37 452.85H133.523V459.43H143.37V452.85Z" fill="#292A2E"/>
<path opacity="0.05" d="M42.6985 452.85H32.8519V459.43H42.6985V452.85Z" fill="#292A2E"/>
<path opacity="0.7" d="M147.57 326.479H28.6526V351.905H147.57V326.479Z" fill="white"/>
<path opacity="0.7" d="M147.57 358.129H28.6526V383.556H147.57V358.129Z" fill="white"/>
<path opacity="0.7" d="M147.57 389.778H28.6526V415.205H147.57V389.778Z" fill="white"/>
<path opacity="0.05" d="M88.1113 342.75C90.075 342.75 91.6668 341.157 91.6668 339.192C91.6668 337.227 90.075 335.634 88.1113 335.634C86.1477 335.634 84.5558 337.227 84.5558 339.192C84.5558 341.157 86.1477 342.75 88.1113 342.75Z" fill="#292A2E"/>
<path opacity="0.05" d="M88.1113 374.4C90.075 374.4 91.6668 372.807 91.6668 370.842C91.6668 368.877 90.075 367.284 88.1113 367.284C86.1477 367.284 84.5558 368.877 84.5558 370.842C84.5558 372.807 86.1477 374.4 88.1113 374.4Z" fill="#292A2E"/>
<path opacity="0.05" d="M88.1113 406.05C90.075 406.05 91.6668 404.457 91.6668 402.492C91.6668 400.527 90.075 398.934 88.1113 398.934C86.1477 398.934 84.5558 400.527 84.5558 402.492C84.5558 404.457 86.1477 406.05 88.1113 406.05Z" fill="#292A2E"/>
<path opacity="0.7" d="M147.57 422.142H28.6526V447.568H147.57V422.142Z" fill="white"/>
<path opacity="0.05" d="M88.1113 438.413C90.075 438.413 91.6668 436.82 91.6668 434.855C91.6668 432.89 90.075 431.297 88.1113 431.297C86.1477 431.297 84.5558 432.89 84.5558 434.855C84.5558 436.82 86.1477 438.413 88.1113 438.413Z" fill="#292A2E"/>
<path d="M310.601 353.684H58.4036C54.9996 353.684 51.735 352.331 49.328 349.922C46.921 347.514 45.5688 344.247 45.5688 340.841L54.3491 55.9744H331.728L323.436 340.841C323.436 344.247 322.083 347.514 319.676 349.922C317.269 352.331 314.005 353.684 310.601 353.684Z" fill="#292A2E"/>
<path opacity="0.9" d="M310.601 353.684H58.4036C54.9996 353.684 51.735 352.331 49.328 349.922C46.921 347.514 45.5688 344.247 45.5688 340.841L54.3491 55.9744H331.728L323.436 340.841C323.436 344.247 322.083 347.514 319.676 349.922C317.269 352.331 314.005 353.684 310.601 353.684Z" fill="white"/>
<path d="M310.601 354.172H58.4036C54.8714 354.168 51.485 352.762 48.9874 350.263C46.4897 347.764 45.0846 344.376 45.0805 340.841L53.8608 55.4863H332.216L323.923 340.841C323.919 344.376 322.514 347.764 320.017 350.263C317.519 352.762 314.133 354.168 310.601 354.172ZM54.8364 56.4625L46.0561 340.841C46.0598 344.117 47.362 347.257 49.6768 349.573C51.9916 351.889 55.1301 353.192 58.4036 353.196H310.601C313.874 353.192 317.013 351.889 319.327 349.573C321.642 347.257 322.944 344.117 322.948 340.841L331.24 56.4625H54.8364Z" fill="#292A2E"/>
<path d="M319.869 27.729H67.6718C64.1396 27.733 60.7532 29.1388 58.2555 31.6379C55.7578 34.137 54.3528 37.5254 54.3486 41.0598L53.8608 56.4625H332.216L333.191 41.0598C333.187 37.5255 331.783 34.1371 329.285 31.6379C326.787 29.1388 323.401 27.733 319.869 27.729Z" fill="#0C0C0C"/>
<path d="M324.747 27.729H69.6229C66.0907 27.733 62.7043 29.1388 60.2067 31.6379C57.709 34.137 56.3039 37.5254 56.2998 41.0598V56.4625H338.069V41.0598C338.065 37.5255 336.66 34.1371 334.163 31.6379C331.665 29.1388 328.279 27.733 324.747 27.729Z" fill="#292A2E"/>
<path d="M56.7881 55.9744H337.582V345.722C337.582 349.128 336.23 352.395 333.823 354.803C331.416 357.212 328.151 358.565 324.747 358.565H69.6229C66.2189 358.565 62.9543 357.212 60.5473 354.803C58.1403 352.395 56.7881 349.128 56.7881 345.722V55.9744Z" fill="white"/>
<path d="M324.747 359.053H69.6229C66.0907 359.049 62.7043 357.643 60.2067 355.144C57.709 352.645 56.3039 349.257 56.2998 345.722V55.4863H338.069V345.722C338.065 349.257 336.66 352.645 334.163 355.144C331.665 357.643 328.279 359.049 324.747 359.053ZM57.2754 56.4625V345.722C57.2791 348.998 58.5813 352.138 60.8961 354.454C63.2109 356.77 66.3494 358.073 69.6229 358.077H324.747C328.02 358.073 331.159 356.77 333.473 354.454C335.788 352.138 337.09 348.998 337.094 345.722V56.4625H57.2754Z" fill="#292A2E"/>
<path d="M90.5283 16.1929C87.4717 16.1964 84.5413 17.4129 82.3799 19.5756C80.2185 21.7382 79.0028 24.6704 78.9993 27.7289H79.9749C79.9744 25.7023 80.5568 23.7184 81.6524 22.0139C82.7481 20.3094 84.3108 18.9564 86.154 18.1163C87.9972 17.2762 90.043 16.9846 92.0473 17.2762C94.0516 17.5678 95.9297 18.4303 97.4575 19.7608C98.9853 21.0913 100.098 22.8335 100.663 24.7797C101.229 26.7258 101.222 28.7935 100.645 30.7361C100.068 32.6787 98.9443 34.4141 97.4083 35.7351C95.8724 37.0561 93.989 37.9071 91.9829 38.1863C91.8139 37.8378 91.5258 37.5613 91.1708 37.4068C90.8158 37.2524 90.4173 37.2302 90.0473 37.3442C89.6773 37.4583 89.3604 37.7011 89.1537 38.0286C88.9471 38.3562 88.8645 38.747 88.9208 39.1302C88.9772 39.5135 89.1687 39.8639 89.4608 40.1181C89.7529 40.3723 90.1263 40.5135 90.5134 40.5162C90.9005 40.5188 91.2758 40.3828 91.5714 40.1326C91.867 39.8824 92.0633 39.5346 92.1248 39.1522C95.0162 38.7483 97.6466 37.2618 99.4853 34.9928C101.324 32.7238 102.234 29.8414 102.031 26.9273C101.828 24.0132 100.528 21.2845 98.3935 19.2922C96.2585 17.2999 93.4476 16.1922 90.5283 16.1929Z" fill="#F4F4F4"/>
<path d="M315.37 27.7288C315.35 24.6822 314.127 21.7671 311.967 19.6198C309.807 17.4725 306.886 16.2673 303.841 16.2673C300.796 16.2673 297.875 17.4725 295.715 19.6198C293.555 21.7671 292.332 24.6822 292.312 27.7288H293.287C293.287 25.7022 293.869 23.7183 294.965 22.0138C296.061 20.3093 297.623 18.9563 299.466 18.1162C301.31 17.2761 303.355 16.9845 305.36 17.2761C307.364 17.5677 309.242 18.4302 310.77 19.7607C312.298 21.0912 313.411 22.8335 313.976 24.7796C314.541 26.7257 314.535 28.7934 313.958 30.736C313.38 32.6786 312.257 34.414 310.721 35.735C309.185 37.0561 307.301 37.907 305.295 38.1862C305.126 37.8377 304.838 37.5612 304.483 37.4067C304.128 37.2523 303.73 37.2301 303.36 37.3441C302.99 37.4582 302.673 37.701 302.466 38.0286C302.26 38.3561 302.177 38.7469 302.233 39.1301C302.29 39.5134 302.481 39.8638 302.773 40.118C303.065 40.3722 303.439 40.5134 303.826 40.5161C304.213 40.5187 304.588 40.3827 304.884 40.1325C305.179 39.8823 305.376 39.5346 305.437 39.1521C308.19 38.7637 310.71 37.3945 312.535 35.2959C314.36 33.1974 315.367 30.5105 315.37 27.7288Z" fill="#F4F4F4"/>
<path d="M284.897 27.7289C284.897 24.6694 283.682 21.7351 281.52 19.5717C279.358 17.4083 276.425 16.1929 273.368 16.1929C270.31 16.1929 267.378 17.4083 265.216 19.5717C263.053 21.7351 261.839 24.6694 261.839 27.7289H262.814C262.814 25.7025 263.396 23.7188 264.492 22.0145C265.588 20.3102 267.15 18.9574 268.993 18.1174C270.836 17.2774 272.882 16.9858 274.886 17.2773C276.89 17.5689 278.768 18.4313 280.296 19.7616C281.824 21.0919 282.936 22.8339 283.502 24.7798C284.067 26.7257 284.061 28.7932 283.484 30.7357C282.907 32.6782 281.784 34.4135 280.248 35.7346C278.712 37.0557 276.829 37.9068 274.823 38.1863C274.655 37.8374 274.366 37.5605 274.011 37.4058C273.656 37.251 273.257 37.2285 272.887 37.3424C272.517 37.4563 272.199 37.6991 271.992 38.0268C271.786 38.3544 271.703 38.7454 271.759 39.129C271.815 39.5125 272.007 39.8632 272.299 40.1177C272.591 40.3723 272.964 40.5137 273.352 40.5165C273.739 40.5193 274.115 40.3833 274.411 40.1331C274.707 39.8828 274.903 39.5349 274.965 39.1522C277.717 38.7636 280.237 37.3942 282.062 35.2957C283.886 33.1972 284.893 30.5104 284.897 27.7289Z" fill="#F4F4F4"/>
<path d="M254.424 27.7288C254.404 24.6822 253.181 21.7671 251.021 19.6198C248.861 17.4725 245.939 16.2673 242.895 16.2673C239.85 16.2673 236.928 17.4725 234.768 19.6198C232.608 21.7671 231.385 24.6822 231.365 27.7288H232.341C232.34 25.7022 232.923 23.7183 234.018 22.0138C235.114 20.3093 236.677 18.9563 238.52 18.1162C240.363 17.2761 242.409 16.9845 244.413 17.2761C246.418 17.5677 248.296 18.4302 249.824 19.7607C251.351 21.0912 252.464 22.8335 253.029 24.7796C253.595 26.7257 253.588 28.7934 253.011 30.736C252.434 32.6786 251.31 34.414 249.774 35.735C248.238 37.0561 246.355 37.907 244.349 38.1862C244.18 37.8377 243.892 37.5612 243.537 37.4067C243.182 37.2523 242.783 37.2301 242.413 37.3441C242.043 37.4582 241.726 37.701 241.52 38.0286C241.313 38.3561 241.23 38.7469 241.287 39.1301C241.343 39.5134 241.535 39.8638 241.827 40.118C242.119 40.3722 242.492 40.5134 242.879 40.5161C243.267 40.5187 243.642 40.3827 243.937 40.1325C244.233 39.8823 244.429 39.5346 244.491 39.1521C247.244 38.7637 249.764 37.3945 251.589 35.2959C253.413 33.1974 254.42 30.5105 254.424 27.7288Z" fill="#F4F4F4"/>
<path d="M223.95 27.7289C223.95 26.214 223.652 24.7139 223.073 23.3143C222.493 21.9146 221.644 20.6429 220.574 19.5717C219.503 18.5005 218.232 17.6507 216.833 17.071C215.435 16.4913 213.935 16.1929 212.421 16.1929C210.907 16.1929 209.408 16.4913 208.009 17.071C206.611 17.6507 205.34 18.5005 204.269 19.5717C203.198 20.6429 202.349 21.9146 201.77 23.3143C201.19 24.7139 200.892 26.214 200.892 27.7289H201.868C201.868 25.7024 202.45 23.7187 203.546 22.0143C204.641 20.31 206.204 18.9572 208.047 18.1172C209.89 17.2772 211.936 16.9856 213.94 17.2772C215.944 17.5688 217.822 18.4313 219.35 19.7617C220.877 21.0921 221.99 22.8342 222.555 24.7802C223.121 26.7262 223.114 28.7938 222.537 30.7362C221.96 32.6787 220.837 34.414 219.301 35.735C217.765 37.056 215.882 37.907 213.876 38.1863C213.707 37.8378 213.419 37.5613 213.064 37.4068C212.709 37.2524 212.31 37.2302 211.94 37.3442C211.57 37.4583 211.253 37.7011 211.047 38.0286C210.84 38.3562 210.758 38.747 210.814 39.1302C210.87 39.5135 211.062 39.8639 211.354 40.1181C211.646 40.3723 212.019 40.5135 212.406 40.5162C212.794 40.5188 213.169 40.3828 213.464 40.1326C213.76 39.8824 213.956 39.5346 214.018 39.1522C216.77 38.7637 219.291 37.3944 221.115 35.2959C222.94 33.1973 223.947 30.5105 223.95 27.7289Z" fill="#F4F4F4"/>
<path d="M193.477 27.7288C193.458 24.6822 192.234 21.7671 190.074 19.6198C187.914 17.4725 184.993 16.2673 181.948 16.2673C178.903 16.2673 175.982 17.4725 173.822 19.6198C171.662 21.7671 170.439 24.6822 170.419 27.7288H171.394C171.394 25.7022 171.976 23.7183 173.072 22.0138C174.168 20.3093 175.73 18.9563 177.574 18.1162C179.417 17.2761 181.463 16.9845 183.467 17.2761C185.471 17.5677 187.349 18.4302 188.877 19.7607C190.405 21.0912 191.518 22.8335 192.083 24.7796C192.648 26.7257 192.642 28.7934 192.065 30.736C191.487 32.6786 190.364 34.414 188.828 35.735C187.292 37.0561 185.409 37.907 183.402 38.1862C183.233 37.8377 182.945 37.5612 182.59 37.4067C182.235 37.2523 181.837 37.2301 181.467 37.3441C181.097 37.4582 180.78 37.701 180.573 38.0286C180.367 38.3561 180.284 38.7469 180.34 39.1301C180.397 39.5134 180.588 39.8638 180.88 40.118C181.172 40.3722 181.546 40.5134 181.933 40.5161C182.32 40.5187 182.695 40.3827 182.991 40.1325C183.286 39.8823 183.483 39.5346 183.544 39.1521C186.297 38.7637 188.817 37.3945 190.642 35.2959C192.467 33.1974 193.474 30.5105 193.477 27.7288Z" fill="#F4F4F4"/>
<path d="M163.004 27.7289C163.004 24.6694 161.789 21.7351 159.627 19.5717C157.465 17.4083 154.533 16.1929 151.475 16.1929C148.417 16.1929 145.485 17.4083 143.323 19.5717C141.16 21.7351 139.946 24.6694 139.946 27.7289H140.921C140.921 25.7024 141.503 23.7187 142.599 22.0143C143.695 20.31 145.257 18.9572 147.1 18.1172C148.944 17.2772 150.989 16.9856 152.993 17.2772C154.998 17.5688 156.876 18.4313 158.403 19.7617C159.931 21.0921 161.044 22.8342 161.609 24.7802C162.174 26.7262 162.168 28.7938 161.591 30.7362C161.014 32.6787 159.89 34.414 158.354 35.735C156.819 37.056 154.935 37.907 152.929 38.1863C152.76 37.8378 152.472 37.5613 152.117 37.4068C151.762 37.2524 151.364 37.2302 150.994 37.3442C150.624 37.4583 150.307 37.7011 150.1 38.0286C149.894 38.3562 149.811 38.747 149.867 39.1302C149.924 39.5135 150.115 39.8639 150.407 40.1181C150.699 40.3723 151.073 40.5135 151.46 40.5162C151.847 40.5188 152.222 40.3828 152.518 40.1326C152.813 39.8824 153.01 39.5346 153.071 39.1522C155.824 38.7637 158.344 37.3944 160.169 35.2959C161.993 33.1973 163 30.5105 163.004 27.7289Z" fill="#F4F4F4"/>
<path d="M132.531 27.7288C132.511 24.6822 131.288 21.7671 129.128 19.6198C126.968 17.4725 124.046 16.2673 121.002 16.2673C117.957 16.2673 115.036 17.4725 112.876 19.6198C110.716 21.7671 109.492 24.6822 109.472 27.7288H110.448C110.447 25.7022 111.03 23.7183 112.125 22.0138C113.221 20.3093 114.784 18.9563 116.627 18.1162C118.47 17.2761 120.516 16.9845 122.52 17.2761C124.525 17.5677 126.403 18.4302 127.931 19.7607C129.458 21.0912 130.571 22.8335 131.136 24.7796C131.702 26.7257 131.695 28.7934 131.118 30.736C130.541 32.6786 129.417 34.414 127.881 35.735C126.345 37.0561 124.462 37.907 122.456 38.1862C122.287 37.8377 121.999 37.5612 121.644 37.4067C121.289 37.2523 120.89 37.2301 120.52 37.3441C120.15 37.4582 119.833 37.701 119.627 38.0286C119.42 38.3561 119.338 38.7469 119.394 39.1301C119.45 39.5134 119.642 39.8638 119.934 40.118C120.226 40.3722 120.599 40.5134 120.986 40.5161C121.374 40.5187 121.749 40.3827 122.044 40.1325C122.34 39.8823 122.536 39.5346 122.598 39.1521C125.351 38.7637 127.871 37.3945 129.696 35.2959C131.52 33.1974 132.527 30.5105 132.531 27.7288Z" fill="#F4F4F4"/>
<g opacity="0.6">
<path opacity="0.6" d="M90.5283 16.1929C87.4717 16.1964 84.5413 17.4129 82.3799 19.5756C80.2185 21.7382 79.0028 24.6704 78.9993 27.7289H79.9749C79.9744 25.7023 80.5568 23.7184 81.6524 22.0139C82.7481 20.3094 84.3108 18.9564 86.154 18.1163C87.9972 17.2762 90.043 16.9846 92.0473 17.2762C94.0516 17.5678 95.9297 18.4303 97.4575 19.7608C98.9853 21.0913 100.098 22.8335 100.663 24.7797C101.229 26.7258 101.222 28.7935 100.645 30.7361C100.068 32.6787 98.9443 34.4141 97.4083 35.7351C95.8724 37.0561 93.989 37.9071 91.9829 38.1863C91.8139 37.8378 91.5258 37.5613 91.1708 37.4068C90.8158 37.2524 90.4173 37.2302 90.0473 37.3442C89.6773 37.4583 89.3604 37.7011 89.1537 38.0286C88.9471 38.3562 88.8645 38.747 88.9208 39.1302C88.9772 39.5135 89.1687 39.8639 89.4608 40.1181C89.7529 40.3723 90.1263 40.5135 90.5134 40.5162C90.9005 40.5188 91.2758 40.3828 91.5714 40.1326C91.867 39.8824 92.0633 39.5346 92.1248 39.1522C95.0162 38.7483 97.6466 37.2618 99.4853 34.9928C101.324 32.7238 102.234 29.8414 102.031 26.9273C101.828 24.0132 100.528 21.2845 98.3935 19.2922C96.2585 17.2999 93.4476 16.1922 90.5283 16.1929Z" fill="#292A2E"/>
<path opacity="0.6" d="M315.37 27.7288C315.35 24.6822 314.127 21.7671 311.967 19.6198C309.807 17.4725 306.886 16.2673 303.841 16.2673C300.796 16.2673 297.875 17.4725 295.715 19.6198C293.555 21.7671 292.332 24.6822 292.312 27.7288H293.287C293.287 25.7022 293.869 23.7183 294.965 22.0138C296.061 20.3093 297.623 18.9563 299.466 18.1162C301.31 17.2761 303.355 16.9845 305.36 17.2761C307.364 17.5677 309.242 18.4302 310.77 19.7607C312.298 21.0912 313.411 22.8335 313.976 24.7796C314.541 26.7257 314.535 28.7934 313.958 30.736C313.38 32.6786 312.257 34.414 310.721 35.735C309.185 37.0561 307.301 37.907 305.295 38.1862C305.126 37.8377 304.838 37.5612 304.483 37.4067C304.128 37.2523 303.73 37.2301 303.36 37.3441C302.99 37.4582 302.673 37.701 302.466 38.0286C302.26 38.3561 302.177 38.7469 302.233 39.1301C302.29 39.5134 302.481 39.8638 302.773 40.118C303.065 40.3722 303.439 40.5134 303.826 40.5161C304.213 40.5187 304.588 40.3827 304.884 40.1325C305.179 39.8823 305.376 39.5346 305.437 39.1521C308.19 38.7637 310.71 37.3945 312.535 35.2959C314.36 33.1974 315.367 30.5105 315.37 27.7288Z" fill="#292A2E"/>
<path opacity="0.6" d="M284.897 27.7289C284.897 24.6694 283.682 21.7351 281.52 19.5717C279.358 17.4083 276.425 16.1929 273.368 16.1929C270.31 16.1929 267.378 17.4083 265.216 19.5717C263.053 21.7351 261.839 24.6694 261.839 27.7289H262.814C262.814 25.7025 263.396 23.7188 264.492 22.0145C265.588 20.3102 267.15 18.9574 268.993 18.1174C270.836 17.2774 272.882 16.9858 274.886 17.2773C276.89 17.5689 278.768 18.4313 280.296 19.7616C281.824 21.0919 282.936 22.8339 283.502 24.7798C284.067 26.7257 284.061 28.7932 283.484 30.7357C282.907 32.6782 281.784 34.4135 280.248 35.7346C278.712 37.0557 276.829 37.9068 274.823 38.1863C274.655 37.8374 274.366 37.5605 274.011 37.4058C273.656 37.251 273.257 37.2285 272.887 37.3424C272.517 37.4563 272.199 37.6991 271.992 38.0268C271.786 38.3544 271.703 38.7454 271.759 39.129C271.815 39.5125 272.007 39.8632 272.299 40.1177C272.591 40.3723 272.964 40.5137 273.352 40.5165C273.739 40.5193 274.115 40.3833 274.411 40.1331C274.707 39.8828 274.903 39.5349 274.965 39.1522C277.717 38.7636 280.237 37.3942 282.062 35.2957C283.886 33.1972 284.893 30.5104 284.897 27.7289Z" fill="#292A2E"/>
<path opacity="0.6" d="M254.424 27.7288C254.404 24.6822 253.181 21.7671 251.021 19.6198C248.861 17.4725 245.939 16.2673 242.895 16.2673C239.85 16.2673 236.928 17.4725 234.768 19.6198C232.608 21.7671 231.385 24.6822 231.365 27.7288H232.341C232.34 25.7022 232.923 23.7183 234.018 22.0138C235.114 20.3093 236.677 18.9563 238.52 18.1162C240.363 17.2761 242.409 16.9845 244.413 17.2761C246.418 17.5677 248.296 18.4302 249.824 19.7607C251.351 21.0912 252.464 22.8335 253.029 24.7796C253.595 26.7257 253.588 28.7934 253.011 30.736C252.434 32.6786 251.31 34.414 249.774 35.735C248.238 37.0561 246.355 37.907 244.349 38.1862C244.18 37.8377 243.892 37.5612 243.537 37.4067C243.182 37.2523 242.783 37.2301 242.413 37.3441C242.043 37.4582 241.726 37.701 241.52 38.0286C241.313 38.3561 241.23 38.7469 241.287 39.1301C241.343 39.5134 241.535 39.8638 241.827 40.118C242.119 40.3722 242.492 40.5134 242.879 40.5161C243.267 40.5187 243.642 40.3827 243.937 40.1325C244.233 39.8823 244.429 39.5346 244.491 39.1521C247.244 38.7637 249.764 37.3945 251.589 35.2959C253.413 33.1974 254.42 30.5105 254.424 27.7288Z" fill="#292A2E"/>
<path opacity="0.6" d="M223.95 27.7289C223.95 26.214 223.652 24.7139 223.073 23.3143C222.493 21.9146 221.644 20.6429 220.574 19.5717C219.503 18.5005 218.232 17.6507 216.833 17.071C215.435 16.4913 213.935 16.1929 212.421 16.1929C210.907 16.1929 209.408 16.4913 208.009 17.071C206.611 17.6507 205.34 18.5005 204.269 19.5717C203.198 20.6429 202.349 21.9146 201.77 23.3143C201.19 24.7139 200.892 26.214 200.892 27.7289H201.868C201.868 25.7024 202.45 23.7187 203.546 22.0143C204.641 20.31 206.204 18.9572 208.047 18.1172C209.89 17.2772 211.936 16.9856 213.94 17.2772C215.944 17.5688 217.822 18.4313 219.35 19.7617C220.877 21.0921 221.99 22.8342 222.555 24.7802C223.121 26.7262 223.114 28.7938 222.537 30.7362C221.96 32.6787 220.837 34.414 219.301 35.735C217.765 37.056 215.882 37.907 213.876 38.1863C213.707 37.8378 213.419 37.5613 213.064 37.4068C212.709 37.2524 212.31 37.2302 211.94 37.3442C211.57 37.4583 211.253 37.7011 211.047 38.0286C210.84 38.3562 210.758 38.747 210.814 39.1302C210.87 39.5135 211.062 39.8639 211.354 40.1181C211.646 40.3723 212.019 40.5135 212.406 40.5162C212.794 40.5188 213.169 40.3828 213.464 40.1326C213.76 39.8824 213.956 39.5346 214.018 39.1522C216.77 38.7637 219.291 37.3944 221.115 35.2959C222.94 33.1973 223.947 30.5105 223.95 27.7289Z" fill="#292A2E"/>
<path opacity="0.6" d="M193.477 27.7288C193.458 24.6822 192.234 21.7671 190.074 19.6198C187.914 17.4725 184.993 16.2673 181.948 16.2673C178.903 16.2673 175.982 17.4725 173.822 19.6198C171.662 21.7671 170.439 24.6822 170.419 27.7288H171.394C171.394 25.7022 171.976 23.7183 173.072 22.0138C174.168 20.3093 175.73 18.9563 177.574 18.1162C179.417 17.2761 181.463 16.9845 183.467 17.2761C185.471 17.5677 187.349 18.4302 188.877 19.7607C190.405 21.0912 191.518 22.8335 192.083 24.7796C192.648 26.7257 192.642 28.7934 192.065 30.736C191.487 32.6786 190.364 34.414 188.828 35.735C187.292 37.0561 185.409 37.907 183.402 38.1862C183.233 37.8377 182.945 37.5612 182.59 37.4067C182.235 37.2523 181.837 37.2301 181.467 37.3441C181.097 37.4582 180.78 37.701 180.573 38.0286C180.367 38.3561 180.284 38.7469 180.34 39.1301C180.397 39.5134 180.588 39.8638 180.88 40.118C181.172 40.3722 181.546 40.5134 181.933 40.5161C182.32 40.5187 182.695 40.3827 182.991 40.1325C183.286 39.8823 183.483 39.5346 183.544 39.1521C186.297 38.7637 188.817 37.3945 190.642 35.2959C192.467 33.1974 193.474 30.5105 193.477 27.7288Z" fill="#292A2E"/>
<path opacity="0.6" d="M163.004 27.7289C163.004 24.6694 161.789 21.7351 159.627 19.5717C157.465 17.4083 154.533 16.1929 151.475 16.1929C148.417 16.1929 145.485 17.4083 143.323 19.5717C141.16 21.7351 139.946 24.6694 139.946 27.7289H140.921C140.921 25.7024 141.503 23.7187 142.599 22.0143C143.695 20.31 145.257 18.9572 147.1 18.1172C148.944 17.2772 150.989 16.9856 152.993 17.2772C154.998 17.5688 156.876 18.4313 158.403 19.7617C159.931 21.0921 161.044 22.8342 161.609 24.7802C162.174 26.7262 162.168 28.7938 161.591 30.7362C161.014 32.6787 159.89 34.414 158.354 35.735C156.819 37.056 154.935 37.907 152.929 38.1863C152.76 37.8378 152.472 37.5613 152.117 37.4068C151.762 37.2524 151.364 37.2302 150.994 37.3442C150.624 37.4583 150.307 37.7011 150.1 38.0286C149.894 38.3562 149.811 38.747 149.867 39.1302C149.924 39.5135 150.115 39.8639 150.407 40.1181C150.699 40.3723 151.073 40.5135 151.46 40.5162C151.847 40.5188 152.222 40.3828 152.518 40.1326C152.813 39.8824 153.01 39.5346 153.071 39.1522C155.824 38.7637 158.344 37.3944 160.169 35.2959C161.993 33.1973 163 30.5105 163.004 27.7289Z" fill="#292A2E"/>
<path opacity="0.6" d="M132.531 27.7288C132.511 24.6822 131.288 21.7671 129.128 19.6198C126.968 17.4725 124.046 16.2673 121.002 16.2673C117.957 16.2673 115.036 17.4725 112.876 19.6198C110.716 21.7671 109.492 24.6822 109.472 27.7288H110.448C110.447 25.7022 111.03 23.7183 112.125 22.0138C113.221 20.3093 114.784 18.9563 116.627 18.1162C118.47 17.2761 120.516 16.9845 122.52 17.2761C124.525 17.5677 126.403 18.4302 127.931 19.7607C129.458 21.0912 130.571 22.8335 131.136 24.7796C131.702 26.7257 131.695 28.7934 131.118 30.736C130.541 32.6786 129.417 34.414 127.881 35.735C126.345 37.0561 124.462 37.907 122.456 38.1862C122.287 37.8377 121.999 37.5612 121.644 37.4067C121.289 37.2523 120.89 37.2301 120.52 37.3441C120.15 37.4582 119.833 37.701 119.627 38.0286C119.42 38.3561 119.338 38.7469 119.394 39.1301C119.45 39.5134 119.642 39.8638 119.934 40.118C120.226 40.3722 120.599 40.5134 120.986 40.5161C121.374 40.5187 121.749 40.3827 122.044 40.1325C122.34 39.8823 122.536 39.5346 122.598 39.1521C125.351 38.7637 127.871 37.3945 129.696 35.2959C131.52 33.1974 132.527 30.5105 132.531 27.7288Z" fill="#292A2E"/>
</g>
<g opacity="0.72">
<path opacity="0.72" d="M310.928 87.6027H82.1163C81.9869 87.6027 81.8628 87.5512 81.7714 87.4597C81.6799 87.3682 81.6285 87.244 81.6285 87.1146C81.6285 86.9851 81.6799 86.861 81.7714 86.7694C81.8628 86.6779 81.9869 86.6265 82.1163 86.6265H310.928C311.057 86.6265 311.181 86.6779 311.273 86.7694C311.364 86.861 311.416 86.9851 311.416 87.1146C311.416 87.244 311.364 87.3682 311.273 87.4597C311.181 87.5512 311.057 87.6027 310.928 87.6027Z" fill="#292A2E"/>
</g>
<g opacity="0.72">
<path opacity="0.72" d="M310.928 115.275H82.1163C81.9869 115.275 81.8628 115.224 81.7714 115.132C81.6799 115.041 81.6285 114.916 81.6285 114.787C81.6285 114.657 81.6799 114.533 81.7714 114.442C81.8628 114.35 81.9869 114.299 82.1163 114.299H310.928C311.057 114.299 311.181 114.35 311.273 114.442C311.364 114.533 311.416 114.657 311.416 114.787C311.416 114.916 311.364 115.041 311.273 115.132C311.181 115.224 311.057 115.275 310.928 115.275Z" fill="#292A2E"/>
</g>
<g opacity="0.72">
<path opacity="0.72" d="M181.822 142.948H82.1173C81.9879 142.948 81.8638 142.896 81.7723 142.805C81.6808 142.713 81.6295 142.589 81.6295 142.46C81.6295 142.33 81.6808 142.206 81.7723 142.115C81.8638 142.023 81.9879 141.972 82.1173 141.972H181.822C181.952 141.972 182.076 142.023 182.167 142.115C182.259 142.206 182.31 142.33 182.31 142.46C182.31 142.589 182.259 142.713 182.167 142.805C182.076 142.896 181.952 142.948 181.822 142.948Z" fill="#292A2E"/>
</g>
<path d="M419.918 231.855C422.076 231.855 424.201 231.333 426.114 230.334C428.026 229.335 429.669 227.889 430.903 226.118C432.136 224.347 432.924 222.304 433.199 220.162C433.474 218.021 433.228 215.845 432.481 213.82C431.723 211.763 413.958 164.69 410.576 155.969L385.533 166.121C387.436 171.025 394.325 189.614 399.86 204.588L390.664 203.588L387.77 230.233L418.469 231.779C418.95 231.83 419.434 231.856 419.918 231.855Z" fill="#2C47FA"/>
<path d="M199.691 165.708L208.948 132.596L427.042 190.891L417.786 224.002L199.691 165.708Z" fill="#2C47FA"/>
<path opacity="0.5" d="M199.691 165.708L208.948 132.596L427.042 190.891L417.786 224.002L199.691 165.708Z" fill="white"/>
<path d="M441.726 230.704L450.982 197.592L427.044 190.893L417.788 224.004L441.726 230.704Z" fill="#262626"/>
<path d="M199.691 165.707C199.691 165.707 193.41 158.664 187.801 152.334C183.353 147.313 179.33 142.74 179.206 142.49C179.083 142.239 185.126 140.192 191.801 138.032C199.91 135.405 208.949 132.598 208.949 132.598L199.691 165.707Z" fill="#2C47FA"/>
<path opacity="0.9" d="M199.691 165.707C199.691 165.707 193.41 158.664 187.801 152.334C183.353 147.313 179.33 142.74 179.206 142.49C179.083 142.239 185.126 140.192 191.801 138.032C199.91 135.405 208.949 132.598 208.949 132.598L199.691 165.707Z" fill="white"/>
<path d="M187.801 152.333C183.353 147.312 179.33 142.74 179.206 142.489C179.083 142.239 185.126 140.192 191.801 138.031L187.801 152.333Z" fill="#262626"/>
<path d="M202.637 155.415L420.789 213.092L420.372 214.604L202.219 156.928L202.637 155.415Z" fill="white"/>
<path d="M206.253 142.46L424.406 200.136L423.988 201.648L205.836 143.972L206.253 142.46Z" fill="white"/>
<path d="M391.491 438.404C391.491 438.404 389.288 449.825 378.599 450.464C367.91 451.103 370.228 459.621 370.228 459.621H411.076V439.202L391.491 438.404Z" fill="#2C47FA"/>
<path d="M404.089 230.025C404.089 230.025 403.961 226.59 403.988 234.38C404.089 263.436 404.593 296.624 405.824 316.045C407.803 347.265 412.877 445.696 412.877 445.696L386.036 445.471L360.022 228.844L404.089 230.025Z" fill="#262626"/>
<path d="M373.778 264.288C373.778 264.288 372.666 285.373 372.461 290.323C371.984 301.772 371.818 313.624 371.818 327.063L367.588 291.833C367.588 291.833 370.682 280.792 373.778 264.288Z" fill="#0A0A0A"/>
<path d="M343.706 438.404C343.706 438.404 341.503 449.825 330.814 450.464C320.125 451.103 322.443 459.621 322.443 459.621H363.291V439.202L343.706 438.404Z" fill="#2C47FA"/>
<path d="M330.709 232.283C330.709 232.283 328.332 331.588 328.68 336.442L338.662 444.944L365.06 445.432L362.487 332.516C362.487 332.516 364.302 301.368 371.823 272.445C375.672 257.601 377.987 242.4 378.734 227.083L330.709 232.283Z" fill="#262626"/>
<path d="M404.382 230.021L404.469 230.026C404.469 230.026 404.406 228.333 404.382 230.021Z" fill="#333333"/>
<path d="M326.931 177.16C327.484 183.667 330.177 224.266 330.709 232.28H404.06C404.474 225.051 404.545 193.73 406.116 179.593C407.616 166.103 412.349 159.06 410.192 155.072C406.667 148.554 397.035 144.788 390.468 143.898C386.457 143.355 380.426 142.965 380.426 142.965C380.426 142.965 379.915 153.303 367.737 153.879C351.158 154.66 352.266 142.965 352.183 142.965C349.5 142.965 334.645 144.487 331.378 147.38C322.592 155.161 325.756 163.37 326.931 177.16Z" fill="#2C47FA"/>
<path d="M343.445 142.074C343.527 142.063 345.776 150.535 363.336 149.217C375.492 148.306 378.457 140.026 378.734 140.026C377.424 139.747 375.295 139.458 374.713 139.148C372.799 138.119 371.405 136.866 370.703 134.177C370.154 132.075 369.874 123.981 369.874 119.92L351.169 124.126C351.429 128.706 353.254 139.326 346.858 141.206C345.795 141.516 344.648 141.802 343.445 142.074Z" fill="#E98862"/>
<path d="M351.816 133.131C359.19 133.714 368.663 130.598 370.462 120.754L372.086 111.87C373.885 102.026 370.177 93.1 360.916 91.4048C351.652 89.7097 343.27 96.4229 341.47 106.267L340.752 110.2C340.059 113.978 338.659 132.093 351.816 133.131Z" fill="#E98862"/>
<path d="M344.979 124.093C346.302 117.438 346.909 112.998 346.839 108.314C344.975 105.044 345.465 101.285 345.889 99.6629C344.605 100.479 343.095 100.867 341.577 100.769C341.577 100.769 344.66 88.3875 355.138 85.0558C357.065 84.3051 361.985 83.3573 368.518 84.2539C374.075 85.0163 387.772 89.1739 389.729 104.604V104.613C389.794 105.124 391.109 119.341 393.729 126.162C397.254 135.332 402.203 138.181 402.077 148.761C401.916 162.369 376.913 164.18 361.834 163.163C346.756 162.145 338.335 157.183 338.225 147.375C338.107 136.387 342.33 137.408 344.979 124.093Z" fill="#0A0A0A"/>
<path d="M405.627 179.577L403.825 232.274L404.313 232.291L406.115 179.594L405.627 179.577Z" fill="#0C0C0C"/>
<path d="M258.109 180.618L250.86 170.242C250.701 170.014 250.496 169.822 250.259 169.677C250.021 169.533 249.756 169.44 249.48 169.404C249.204 169.367 248.924 169.389 248.658 169.467C248.391 169.545 248.143 169.678 247.93 169.857C247.548 170.2 247.306 170.672 247.252 171.183C247.198 171.694 247.335 172.207 247.638 172.622L249.192 174.847L241.094 170.095C240.203 169.551 238.762 169.454 238.216 170.494C237.981 170.881 237.883 171.336 237.939 171.785C237.995 172.235 238.202 172.652 238.526 172.968C238.519 172.975 238.512 172.983 238.507 172.991C238.503 172.999 238.501 173.006 238.499 173.013L237.125 172.174C236.87 172.019 236.584 171.923 236.287 171.892C235.991 171.862 235.691 171.897 235.41 171.997C235.13 172.097 234.874 172.259 234.664 172.47C234.453 172.681 234.292 172.936 234.193 173.217C234.045 173.663 234.054 174.147 234.22 174.587C234.386 175.026 234.697 175.396 235.103 175.633L235.688 175.99C235.686 176.011 235.687 176.033 235.692 176.055C235.241 175.905 234.751 175.921 234.311 176.1C233.87 176.279 233.508 176.609 233.289 177.031C233.062 177.499 233.02 178.035 233.171 178.532C233.322 179.03 233.655 179.452 234.103 179.715L235.555 180.602C235.531 180.603 235.508 180.608 235.487 180.618C235.466 180.628 235.447 180.642 235.431 180.66C235.415 180.678 235.403 180.698 235.396 180.72C235.389 180.743 235.386 180.766 235.388 180.79C234.949 180.769 234.516 180.892 234.155 181.141C233.794 181.39 233.524 181.751 233.388 182.168C233.253 182.61 233.271 183.084 233.439 183.514C233.608 183.944 233.916 184.304 234.314 184.537L246.568 192.018C248.283 193.065 250.27 193.575 252.277 193.484C254.283 193.393 256.216 192.705 257.829 191.507C259.219 190.474 260.152 188.94 260.43 187.23C260.708 185.52 260.308 183.768 259.316 182.348L258.109 180.618Z" fill="#E98862"/>
<g opacity="0.2">
<path opacity="0.2" d="M246.52 177.714C246.495 177.755 246.454 177.785 246.407 177.796C246.36 177.808 246.311 177.8 246.269 177.776L238.575 173.247C238.534 173.221 238.506 173.18 238.494 173.134C238.483 173.087 238.49 173.038 238.515 172.997C238.539 172.955 238.578 172.925 238.625 172.912C238.671 172.899 238.72 172.905 238.762 172.928L246.457 177.457C246.478 177.47 246.496 177.486 246.511 177.505C246.526 177.525 246.536 177.547 246.542 177.57C246.548 177.594 246.55 177.618 246.546 177.642C246.543 177.666 246.535 177.689 246.523 177.71L246.52 177.714Z" fill="#0C0C0C"/>
</g>
<g opacity="0.2">
<path opacity="0.2" d="M244.618 181.162C244.592 181.204 244.552 181.233 244.505 181.244C244.458 181.256 244.408 181.249 244.367 181.224L235.782 176.17C235.761 176.157 235.743 176.141 235.728 176.122C235.713 176.102 235.703 176.08 235.697 176.057C235.691 176.033 235.689 176.009 235.693 175.985C235.696 175.961 235.704 175.937 235.716 175.916C235.742 175.875 235.783 175.846 235.83 175.834C235.877 175.822 235.927 175.828 235.969 175.851L244.554 180.905C244.596 180.93 244.627 180.971 244.639 181.018C244.652 181.066 244.645 181.116 244.62 181.159L244.618 181.162Z" fill="#0C0C0C"/>
</g>
<g opacity="0.2">
<path opacity="0.2" d="M242.58 184.912C242.555 184.953 242.514 184.982 242.468 184.994C242.421 185.005 242.371 184.998 242.33 184.974L235.48 180.942C235.439 180.916 235.411 180.876 235.399 180.829C235.388 180.783 235.395 180.733 235.42 180.692C235.444 180.651 235.483 180.62 235.53 180.608C235.576 180.595 235.625 180.6 235.667 180.623L242.517 184.655C242.538 184.667 242.556 184.683 242.571 184.703C242.586 184.722 242.596 184.744 242.602 184.768C242.608 184.791 242.61 184.816 242.606 184.84C242.603 184.864 242.595 184.887 242.583 184.908L242.58 184.912Z" fill="#0C0C0C"/>
</g>
<path d="M328.65 150.513L298.238 196.123L259.838 173.845L245.97 196.573L295.158 228.183C298.313 230.206 302.135 230.909 305.803 230.143C309.471 229.376 312.692 227.2 314.774 224.083L314.956 223.809L352.995 166.767L328.65 150.513Z" fill="#2C47FA"/>
<path d="M328.743 203.704C328.698 203.704 328.655 203.692 328.617 203.669C328.579 203.646 328.549 203.614 328.528 203.575C328.507 203.536 328.497 203.492 328.499 203.448C328.502 203.404 328.516 203.361 328.54 203.324L336.561 191.377C336.597 191.325 336.653 191.29 336.715 191.279C336.778 191.267 336.842 191.281 336.895 191.316C336.948 191.351 336.984 191.406 336.998 191.468C337.011 191.53 336.999 191.595 336.965 191.649L328.945 203.596C328.923 203.629 328.893 203.657 328.857 203.675C328.822 203.694 328.783 203.704 328.743 203.704Z" fill="#0C0C0C"/>
<path d="M464.136 460H4.89061C4.79061 460 4.6947 459.96 4.62399 459.889C4.55328 459.819 4.51355 459.723 4.51355 459.623C4.51355 459.523 4.55328 459.427 4.62399 459.356C4.6947 459.285 4.79061 459.245 4.89061 459.245H464.136C464.236 459.245 464.332 459.285 464.403 459.356C464.474 459.427 464.513 459.523 464.513 459.623C464.513 459.723 464.474 459.819 464.403 459.889C464.332 459.96 464.236 460 464.136 460Z" fill="#3F3F3F"/>
</g>
<defs>
<clipPath id="clip0_2_819">
<rect width="479" height="460" fill="white"/>
</clipPath>
</defs>
</svg>
